<?xml version="1.0" standalone="no"?>
<!DOCTYPE svg PUBLIC "-//W3C//DTD SVG 1.1//EN" "http://www.w3.org/Graphics/SVG/1.1/DTD/svg11.dtd" >
<svg>
<metadata>
Created by FontForge 20090914 at Wed Feb  1 11:17:09 2017
 By www-data
Diogene
</metadata>
<defs>
<font id="ChopinScript" horiz-adv-x="236" >
  <font-face 
    font-family="ChopinScript"
    font-weight="400"
    font-stretch="normal"
    units-per-em="1000"
    panose-1="0 0 4 0 0 0 0 0 0 0"
    ascent="800"
    descent="-200"
    x-height="299.999"
    cap-height="678"
    bbox="-448 -425.999 1611 930"
    underline-thickness="50"
    underline-position="-125"
    unicode-range="U+0020-U+F002"
  />
<missing-glyph horiz-adv-x="500" 
d="M63 0v686h375v-686h-375zM125 63h250v561h-250v-561z" />
    <glyph glyph-name=".notdef" horiz-adv-x="500" 
d="M63 0v686h375v-686h-375zM125 63h250v561h-250v-561z" />
    <glyph glyph-name="space" unicode=" " horiz-adv-x="270" 
 />
    <glyph glyph-name="exclam" unicode="!" horiz-adv-x="328" 
d="M411 641c0 -33.333 -56.666 -130.999 -169.999 -292.999c-26.667 -38.667 -62.667 -94.667 -108 -168h-11c11.333 21.333 21.333 41.666 30 60.999l146 344c11.333 27.333 25.166 50 41.499 68s31.5 27 45.5 27c17.333 0 26 -13 26 -39zM97.001 50.001
c0 -15.333 -6.00098 -28.999 -18.001 -40.999s-25.333 -18 -40 -18c-27.333 0 -41 16.333 -41 49c0 15.333 5.83301 29.166 17.5 41.499s24.834 18.5 39.501 18.5c28 0 42 -16.667 42 -50z" />
    <glyph glyph-name="quotedbl" unicode="&#x22;" horiz-adv-x="218" 
d="M334 624c0 -36 -17.001 -72.666 -51.001 -109.999c-17.333 -19.333 -32.666 -29 -45.999 -29c-6 1.33301 -9 3.66602 -9 6.99902s2.16699 6 6.5 8s8.83301 4.33301 13.5 7c20.667 14.667 31 28 31 40c0 6.66699 -2.33301 11 -7 13c-26 12.667 -39 29 -39 49
c0 16 5.66699 30.167 17 42.5s24.333 18.5 39 18.5c12 0 22.5 -4.5 31.5 -13.5s13.5 -19.833 13.5 -32.5zM232.999 624.001c0 -36 -17.001 -72.666 -51.001 -109.999c-17.333 -19.333 -32.666 -29 -45.999 -29c-6 1.33301 -9 3.66602 -9 6.99902s2.16699 6 6.5 8
s8.83301 4.33301 13.5 7c20.667 14.667 31 28 31 40c0 6.66699 -2.33301 11 -7 13c-26 12.667 -39 29 -39 49c0 16 5.66699 30.167 17 42.5s24.333 18.5 39 18.5c12 0 22.5 -4.5 31.5 -13.5s13.5 -19.833 13.5 -32.5z" />
    <glyph glyph-name="numbersign" unicode="#" horiz-adv-x="495" 
d="M443 414l-34 -60h-101l-62 -111h102l-34 -60h-101l-101 -183h-21l101 183h-120l-100 -183h-21l100 183h-96l33 60h96l61 111h-96l33 60h96l89 162h22l-89 -162h119l89 162h22l-89 -162h102zM286 354h-119l-62 -111h119z" />
    <glyph glyph-name="dollar" unicode="$" horiz-adv-x="370" 
d="M336 426c0 -16 -5.33008 -29.8291 -15.9971 -41.4961s-23.334 -17.5 -38.001 -17.5c-25.333 0 -38 12.333 -38 37c0 11.333 0.333008 18.666 1 21.999c13.333 -7.33301 23.666 -11 30.999 -11c16 0 24 9.66699 24 29c0 14.667 -5.33301 26.667 -16 36s-24 14 -40 14
c-17.333 0 -32 -5.83301 -44 -17.5s-18 -26.167 -18 -43.5c0 -22.667 5.66699 -46.334 17 -71.001l31 -67c10.667 -23.333 16 -48.666 16 -75.999c0 -38 -11.833 -68.333 -35.5 -91s-55.167 -34 -94.5 -34c-22.667 0 -42 2 -58 6l-52 -97l-16 6l52 99
c-35.333 25.333 -53 57.333 -53 96c0 25.333 8.66699 47.666 26 66.999s38 29 62 29c19.333 0 35.5 -6 48.5 -18s19.5 -26.667 19.5 -44c0 -14 -5 -26.5 -15 -37.5s-21.333 -16.5 -34 -16.5c-14 0 -28.667 11.667 -44 35c23.333 3.33301 35 11.666 35 24.999
c0 14 -8.33301 21 -25 21c-14 0 -26.5 -7.33301 -37.5 -22s-16.5 -31.334 -16.5 -50.001c0 -21.333 7.83301 -39.333 23.5 -54s35.167 -22 58.5 -22c20.667 0 39.667 7.83301 57 23.5s26 33.834 26 54.501c0 9.33301 -5.33301 28.666 -16 57.999l-33 91
c-6.66699 18.667 -10 36.667 -10 54c0 33.333 11.5 60.333 34.5 81s52.833 31 89.5 31c10.667 0 17 -0.333008 19 -1l33 61l14 -6l-31 -59c19.333 -6 34.666 -16.5 45.999 -31.5s17 -30.833 17 -47.5z" />
    <glyph glyph-name="percent" unicode="%" horiz-adv-x="504" 
d="M491 599c0 -24.667 -39.335 -58.333 -118.002 -101c-74.667 -112 -168.667 -237.333 -282 -376c-24 -29.333 -51.333 -71.666 -82 -126.999c-4.66699 -4 -11 -6 -19 -6h-12c-8.66699 0 -17 -9.33301 -25 -28l-12 1c26 79.333 68.333 149 127 209l68 74
c70.667 80 136.334 160 197.001 240l-73 -13c-11.333 -32.667 -28.666 -62.334 -51.999 -89.001c-28 -33.333 -56.333 -50 -85 -50c-17.333 0 -32.5 6.83301 -45.5 20.5s-19.5 30.167 -19.5 49.5c0 39.333 17.5 80.833 52.5 124.5s71.5 65.5 109.5 65.5
c32 0 48 -19.333 48 -58c0 -14 -1.66699 -29.333 -5 -46c34.667 3.33301 64 10 88 20c50 71.333 90 107 120 107c13.333 0 20 -5.66699 20 -17zM380.998 209.001c0 -40.667 -14 -83 -42 -127c-31.333 -48.667 -66.333 -73 -105 -73c-17.333 0 -32.333 7.16699 -45 21.5
s-19 31.833 -19 52.5c0 36 17.5 76.167 52.5 120.5s69.833 66.5 104.5 66.5c36 0 54 -20.333 54 -61zM473.998 594.001c0 5.33301 -3 8 -9 8c-16.667 0 -42.667 -26 -78 -78c58 34 87 57.333 87 70zM250.998 534.001c0 22.667 -8.66699 34.001 -26 34.001
c-8 0 -15.167 -3.5 -21.5 -10.5s-9.5 -15.5 -9.5 -25.5c0 -25.333 16.333 -39 49 -41c5.33301 17.333 8 31.666 8 42.999zM239.998 475.002c-20 4.66699 -35 10 -45 16c-7.33301 6.66699 -15 18.667 -23 36c-36.667 -63.333 -55 -111.333 -55 -144c0 -18 8.33301 -27 25 -27
c11.333 0 27.333 10.667 48 32c24 24.667 40.667 53.667 50 87zM361.998 198.002c0 32.667 -8.66699 49 -26 49c-22 0 -46 -24.667 -72 -74c-24 -46 -36 -83.667 -36 -113c0 -20 7 -30 21 -30c16.667 0 39 17.667 67 53c30.667 38.667 46 77 46 115z" />
    <glyph glyph-name="ampersand" unicode="&#x26;" horiz-adv-x="854" 
d="M867 548c0 -56.667 -40.666 -103.665 -121.999 -140.998l-178 -81c36 -2 65.5 -16 88.5 -42s34.5 -57 34.5 -93c0 -60 -23.667 -109 -71 -147c-44.667 -35.333 -97.667 -53 -159 -53c-48.667 0 -93.667 11 -135 33c-46.667 24 -78.334 57 -95.001 99
c-24 -6 -45 -9 -63 -9c-41.333 0 -77.666 12 -108.999 36c-34 26.667 -51 60 -51 100c0 19.333 4.33301 35.333 13 48s20 19.334 34 20.001l-2 -42c0 -36 10.667 -67 32 -93c23.333 -28 52.666 -42 87.999 -42c10 0 26 1.66699 48 5c-6 28 -9 52.333 -9 73
c0 65.333 20.667 120.166 62 164.499s94.333 66.5 159 66.5c-23.333 31.333 -35 62.333 -35 93c0 50 19 90.333 57 121c36 28.667 79.333 43 130 43c36.667 0 70 -8.66699 100 -26c36 -20.667 54 -48.334 54 -83.001c0 -21.333 -8.33301 -40.5 -25 -57.5
s-36 -25.5 -58 -25.5c-31.333 0 -56.666 17 -75.999 51l16 2c16.667 -24.667 37 -37 61 -37c17.333 0 32.666 6.66699 45.999 20s20 29 20 47c0 20.667 -8.33301 37.5 -25 50.5s-37.667 19.5 -63 19.5c-42 0 -78.167 -15.333 -108.5 -46s-45.5 -66.667 -45.5 -108
c0 -23.333 4 -42 12 -56s22.333 -28 43 -42l3 -11c-16 2.66699 -33 4 -51 4c-46 0 -84.667 -21 -116 -63c-29.333 -38.667 -44 -81.667 -44 -129c0 -10.667 0.333008 -18.667 1 -24c20.667 13.333 46 26 76 38c6 68.667 73 123 201 163c82.667 26 131.667 42.667 147 50
c64.667 29.333 97 64.333 97 105c0 19.333 -8.66699 40.666 -26 63.999l7 7c24.667 -24 37 -48 37 -72zM584.001 182.002c0 17.333 -6.5 32 -19.5 44s-29.167 18 -48.5 18c-14 0 -34.667 -5.33301 -62 -16c-3.33301 -12 -5 -23.667 -5 -35
c0 -20.667 6.83301 -37.5 20.5 -50.5s31.167 -19.5 52.5 -19.5c16.667 0 31.167 5.83301 43.5 17.5s18.5 25.5 18.5 41.5zM669.001 190.002c0 32.667 -11.501 60.168 -34.501 82.501s-50.833 33.5 -83.5 33.5c-19.333 0 -35.166 -4 -47.499 -12s-26.166 -23 -41.499 -45
c27.333 6.66699 46.333 10 57 10c23.333 0 43.833 -8.16699 61.5 -24.5s26.5 -35.166 26.5 -56.499c0 -20 -8.16699 -36.833 -24.5 -50.5s-36.833 -20.5 -61.5 -20.5c-32 0 -58.667 9.66699 -80 29c-23.333 19.333 -35.333 44.666 -36 75.999c-12 -6 -36.333 -20 -73 -42
c5.33301 -40 25.166 -74.667 59.499 -104s71.5 -44 111.5 -44c44.667 0 83.5 16.667 116.5 50s49.5 72.666 49.5 117.999z" />
    <glyph glyph-name="quotesingle" unicode="'" horiz-adv-x="0" 
d="M137 624c0 -36 -17.001 -72.666 -51.001 -109.999c-17.333 -19.333 -32.666 -29 -45.999 -29c-6 1.33301 -9 3.66602 -9 6.99902s2.16699 6 6.5 8s8.83301 4.33301 13.5 7c20.667 14.667 31 28 31 40c0 6.66699 -2.33301 11 -7 13c-26 12.667 -39 29 -39 49
c0 16 5.66699 30.167 17 42.5s24.333 18.5 39 18.5c12 0 22.5 -4.5 31.5 -13.5s13.5 -19.833 13.5 -32.5z" />
    <glyph glyph-name="parenleft" unicode="(" horiz-adv-x="340" 
d="M596 776c0 -10 -16.667 -26.332 -50 -48.999c-53.333 -36 -93.333 -66.333 -120 -91c-56.667 -52 -104.667 -111.333 -144 -178c-67.333 -114 -101 -232.667 -101 -356c0 -52.667 5.66699 -97.334 17 -134.001c13.333 -40 36 -78.667 68 -116c34 -40 51 -61.333 51 -64
c0 -10.667 -3.66699 -16 -11 -16c-15.333 0 -37.666 16 -66.999 48c-84 92 -126 200.667 -126 326c0 136 43.333 256.667 130 362c65.333 79.333 139 149 221 209c61.333 44.667 98.666 67 111.999 67s20 -2.66699 20 -8z" />
    <glyph glyph-name="parenright" unicode=")" horiz-adv-x="340" 
d="M320 409c0 -136 -43.332 -256.667 -129.999 -362c-64 -78 -137.333 -147.333 -220 -208c-60.667 -44.667 -98 -67 -112 -67c-13.333 0 -20 2.66699 -20 8c0 10 16.667 26.333 50 49c52 35.333 91.667 65.666 119 90.999c58 53.333 106 112.333 144 177
c67.333 113.333 101 232 101 356c0 52.667 -6 97.334 -18 134.001c-12.667 40.667 -35 79.667 -67 117c-34 40 -51 61.333 -51 64c0 10.667 3.66699 16 11 16c15.333 0 37.666 -16 66.999 -48c84 -92 126 -201 126 -327z" />
    <glyph glyph-name="asterisk" unicode="*" horiz-adv-x="268" 
d="M389 516c0 -10 -5.16504 -18.667 -15.498 -26s-23.166 -11 -38.499 -11c-4.66699 0 -14.334 1.83301 -29.001 5.5s-24 5.5 -28 5.5c-6 0 -9.33301 -3.33301 -10 -10c0 -4 2.33301 -8.66699 7 -14c19.333 -20.667 29 -33.667 29 -39c0 -10 -4.5 -18.833 -13.5 -26.5
s-19.5 -11.5 -31.5 -11.5c-18.667 0 -28 9 -28 27c0 2.66699 2.33301 9.5 7 20.5s7 17.5 7 19.5c0 9.33301 -0.666992 14 -2 14c-10 0 -23.833 -10.833 -41.5 -32.5s-33.834 -32.5 -48.501 -32.5c-18 0 -27 8.33301 -27 25c0 18 12.333 29.667 37 35
c42 8.66699 63 17.334 63 26.001c0 4 -5.33301 6.66699 -16 8s-21 3.33301 -31 6c-12.667 4.66699 -19 13 -19 25c0 10 4.16699 18.333 12.5 25s18.5 10 30.5 10c10.667 0 18.667 -4 24 -12c2.66699 -4.66699 6.16699 -13.5 10.5 -26.5s9.16602 -19.5 14.499 -19.5
c4.66699 2 8.66699 10 12 24c6 30 9.66699 47.333 11 52c10 14.667 23 22 39 22c19.333 0 29 -8 29 -24c0 -8.66699 -11.667 -23.667 -35 -45c-20.667 -14.667 -31 -24.334 -31 -29.001c1.33301 -1.33301 3 -2 5 -2c8 0 22.333 7.33301 43 22c12 8.66699 24.333 13 37 13
c18 0 27 -8 27 -24z" />
    <glyph glyph-name="plus" unicode="+" horiz-adv-x="336" 
d="M262 276l-15 -15h-92l-69 -123h-70l69 123h-87l14 15h81l69 122h70l-69 -122h99z" />
    <glyph glyph-name="comma" unicode="," horiz-adv-x="244" 
d="M127 54c0 -35.333 -17.001 -71.667 -51.001 -109c-17.333 -19.333 -32.666 -29 -45.999 -29c-6 0.666992 -9 3 -9 7c0 3.33301 2.16699 6 6.5 8s8.83301 4.33301 13.5 7c20.667 14.667 31 28 31 40c0 6.66699 -2.33301 11 -7 13c-26 12 -39 28 -39 48
c0 16 5.66699 30.167 17 42.5s24.333 18.5 39 18.5c12 0 22.5 -4.5 31.5 -13.5s13.5 -19.833 13.5 -32.5z" />
    <glyph glyph-name="hyphen" unicode="-" horiz-adv-x="268" 
d="M234 190c0 -8 -4.66895 -17 -14.002 -27c-13.333 -14.667 -34.666 -22 -63.999 -22c-11.333 0 -28.333 1.83301 -51 5.5s-39.667 5.5 -51 5.5c-2.66699 0 -8 -1.16699 -16 -3.5s-12.667 -3.5 -14 -3.5c-4 0 -6 2 -6 6c0 6.66699 8.33301 15 25 25c24 14 43.667 21 59 21
c8.66699 0 21.334 -1.33301 38.001 -4s29 -4 37 -4c9.33301 0 20.5 1.16699 33.5 3.5l19.5 3.5c2.66699 0 4 -2 4 -6z" />
    <glyph glyph-name="hyphen" unicode="&#x2010;" horiz-adv-x="268" 
d="M234 190c0 -8 -4.66895 -17 -14.002 -27c-13.333 -14.667 -34.666 -22 -63.999 -22c-11.333 0 -28.333 1.83301 -51 5.5s-39.667 5.5 -51 5.5c-2.66699 0 -8 -1.16699 -16 -3.5s-12.667 -3.5 -14 -3.5c-4 0 -6 2 -6 6c0 6.66699 8.33301 15 25 25c24 14 43.667 21 59 21
c8.66699 0 21.334 -1.33301 38.001 -4s29 -4 37 -4c9.33301 0 20.5 1.16699 33.5 3.5l19.5 3.5c2.66699 0 4 -2 4 -6z" />
    <glyph glyph-name="period" unicode="." horiz-adv-x="244" 
d="M118 50c0 -15.333 -6 -28.999 -18 -40.999s-25.333 -18 -40 -18c-28 0 -42 16.333 -42 49c0 15.333 6 29.166 18 41.499s25.333 18.5 40 18.5c28 0 42 -16.667 42 -50z" />
    <glyph glyph-name="slash" unicode="/" horiz-adv-x="360" 
d="M416 656c-56.667 -67.333 -134 -172.668 -232 -316.001c-105.333 -154 -167.333 -255.333 -186 -304c-12 -30.667 -29.667 -46 -53 -46c-5.33301 0 -11 -5.5 -17 -16.5s-10 -16.5 -12 -16.5c-3.33301 0 -5 2 -5 6c0 24 23.333 74 70 150
c96.667 158.667 236 340.334 418 545.001z" />
    <glyph glyph-name="zero" unicode="0" horiz-adv-x="522" 
d="M483 489c0 -68 -19.666 -142.334 -58.999 -223.001c-38 -76.667 -83.667 -139 -137 -187c-64 -57.333 -128 -86 -192 -86c-36.667 0 -67.334 12.5 -92.001 37.5s-37 55.833 -37 92.5c0 64.667 21.333 136.334 64 215.001c38 72 83.667 132 137 180
c64 58 127.333 87 190 87c38 0 68.5 -10 91.5 -30s34.5 -48.667 34.5 -86zM414.001 515.999c0 52 -17.665 78 -52.998 78c-38.667 0 -90.334 -46 -155.001 -138c-44.667 -64 -82.667 -128 -114 -192c-42 -86.667 -63 -151.667 -63 -195c0 -15.333 6.5 -29.666 19.5 -42.999
s27.5 -20 43.5 -20c39.333 0 85.666 33.667 138.999 101c42 52.667 81.333 117.667 118 195c43.333 89.333 65 160.666 65 213.999z" />
    <glyph glyph-name="one" unicode="1" horiz-adv-x="299" 
d="M319 531c-8 -12.667 -37.001 -55.334 -87.001 -128.001c-65.333 -95.333 -111 -170 -137 -224c-17.333 -36 -36.333 -81.667 -57 -137c-15.333 -41.333 -25.333 -63.666 -30 -66.999c0.666992 0 -1.83301 -0.333008 -7.5 -1s-11.167 -1 -16.5 -1
c-16 0 -29.333 0.333008 -40 1c-7.33301 -10 -19 -23 -35 -39c16 54 29.667 95 41 123c24 60.667 74 139.667 150 237c32 40.667 56.333 73.667 73 99c-7.33301 0 -40.333 -27.667 -99 -83l-23 -11c16 20.667 56 61.667 120 123c78.667 75.333 126.334 113 143.001 113
c3.33301 0 5 -1.66699 5 -5z" />
    <glyph glyph-name="two" unicode="2" horiz-adv-x="453" 
d="M416 444c0 -54 -26.334 -102.003 -79.001 -144.003c-34.667 -27.333 -85 -54.333 -151 -81l-137 -55c-21.333 -8.66699 -49.666 -27 -84.999 -55c-30 -23.333 -45 -39.333 -45 -48c10.667 0 27.5 2.16699 50.5 6.5s40.5 6.5 52.5 6.5c15.333 0 38 -3 68 -9
s52.667 -9 68 -9c25.333 0 60.333 18.333 105 55c0.666992 -2 1 -5.33301 1 -10c0 -30 -19 -58.667 -57 -86c-35.333 -25.333 -68.333 -38 -99 -38c-15.333 0 -38.166 3.5 -68.499 10.5s-52.833 10.5 -67.5 10.5c-36 0 -66.667 -2.66699 -92 -8
c-19.333 -4 -29 -7.33301 -29 -10c-3.33301 0.666992 -5.66602 3 -6.99902 7v3c0 18.667 33.667 57.334 101 116.001c25.333 22 71.666 50.333 138.999 85c65.333 33.333 108.666 60 129.999 80c30 28.667 56.333 59.334 79 92.001c29.333 43.333 44 80 44 110
c0 22.667 -9 41.834 -27 57.501s-39.667 23.5 -65 23.5c-29.333 0 -56.833 -11 -82.5 -33s-38.5 -47.667 -38.5 -77c0 -13.333 4 -24.666 12 -33.999s17.333 -14 28 -14c6 0 11.833 2.5 17.5 7.5s8.5 10.5 8.5 16.5c0 3.33301 -1.33301 9.16602 -4 17.499
s-4 13.166 -4 14.499c6.66699 1.33301 11.667 2 15 2c27.333 0 41 -15.667 41 -47c0 -16 -6 -29.5 -18 -40.5s-27 -16.5 -45 -16.5c-21.333 0 -38.666 7 -51.999 21s-20 32.333 -20 55c0 40.667 21 76.334 63 107.001c38 28 78.333 42 121 42
c39.333 0 70.666 -11.833 93.999 -35.5s35 -55.5 35 -95.5z" />
    <glyph glyph-name="three" unicode="3" horiz-adv-x="486" 
d="M519 549l-305.999 -216.997c28.667 -2.66699 54 -14.334 76 -35.001c27.333 -25.333 41 -59.333 41 -102c0 -62.667 -28 -117 -84 -163c-52.667 -44 -111 -66 -175 -66c-36 0 -66.667 11.833 -92 35.5s-38 53.167 -38 88.5c0 26 9.5 50.833 28.5 74.5
s41.167 35.5 66.5 35.5c17.333 0 32.666 -6.66699 45.999 -20s20 -28.666 20 -45.999c0 -16 -5.33301 -29.5 -16 -40.5s-23.667 -16.5 -39 -16.5s-27.333 9.33301 -36 28c22.667 6 34 14 34 24c0 21.333 -10 32 -30 32c-17.333 0 -32 -7 -44 -21s-18 -31.667 -18 -53
c0 -24.667 8.33301 -44.667 25 -60s39.667 -23 69 -23c52.667 0 101 28.333 145 85c40 51.333 60 99.666 60 144.999c0 17.333 -6.66699 31.666 -20 42.999s-30 17 -50 17c-10.667 0 -23.667 -4.16699 -39 -12.5l-23 -12.5c-10 0 -15 2.33301 -15 7l263 182
c-59.333 16.667 -100 24.667 -122 24c-24.667 -0.666992 -64.667 -12.334 -120 -35.001c41.333 68 93 102 155 102c16.667 0 42 -4 76 -12s60 -12 78 -12c21.333 0 49.333 8 84 24z" />
    <glyph glyph-name="four" unicode="4" horiz-adv-x="473" 
d="M445 585c0 -11.333 -0.667969 -18.668 -2.00098 -22.001c-9.33301 -25.333 -36.333 -55.333 -81 -90c-14 -10.667 -97 -69.334 -249 -176.001c-84 -58.667 -126 -99.667 -126 -123c0 -7.33301 9.33301 -13.666 28 -18.999s41.667 -7.33301 69 -6l73 4l57 85
c42.667 62 95.667 127.333 159 196c12 13.333 20.667 20 26 20c0 -4 -56.667 -102.333 -170 -295l129 10c-3.33301 -8.66699 -11 -24.334 -23 -47.001c-14.667 0 -35 0.666992 -61 2l-55 3c-16 -38.667 -28.333 -67.667 -37 -87c-17.333 -38 -29.666 -57 -36.999 -57
c-12 0 -29 3.33301 -51 10c-6 -9.33301 -18.333 -21.666 -37 -36.999c4 25.333 18 59 42 101l43 73l-101 3c-55.333 1.33301 -83 12 -83 32c0 16 33 51.333 99 106c94.667 78.667 154 130.334 178 155.001l126 137l56 -3z" />
    <glyph glyph-name="five" unicode="5" horiz-adv-x="451" 
d="M479 584c0 -5.33301 -5.33008 -14.999 -15.9971 -28.999c-13.333 -16 -28.5 -29.667 -45.5 -41s-28.167 -17 -33.5 -17c-14.667 0 -36.834 1.33301 -66.501 4s-51.834 4 -66.501 4c-22.667 0 -46.667 -9.66699 -72 -29l-62 -107c30.667 13.333 61.667 20 93 20
c33.333 0 62.666 -16 87.999 -48c22.667 -29.333 34 -61.333 34 -96c0 -72 -29.167 -134.667 -87.5 -188s-123.833 -80 -196.5 -80c-36 0 -66.333 10.5 -91 31.5s-37 47.167 -37 78.5c0 26 9.33301 49.5 28 70.5s40.667 31.5 66 31.5c18 0 33.667 -6.66699 47 -20
s20 -28.666 20 -45.999c0 -14.667 -5 -27.334 -15 -38.001s-22.333 -16 -37 -16c-13.333 0 -23.666 9.66699 -30.999 29c19.333 3.33301 29 12.666 29 27.999c0 19.333 -11.333 29 -34 29c-14.667 0 -28.334 -7 -41.001 -21s-19 -30 -19 -48c0 -26.667 9.16699 -48 27.5 -64
s43.5 -24 75.5 -24c50.667 0 100.334 36.333 149.001 109c44.667 66.667 67 124 67 172c0 26.667 -7.83301 48.667 -23.5 66s-35.834 26 -60.501 26c-19.333 0 -40.666 -11.833 -63.999 -35.5s-34.333 -35.5 -33 -35.5c-1.33301 0 -2 1 -2 3c2 10 6.66699 21.333 14 34
l106 185c8.66699 15.333 22.5 28 41.5 38s37.833 15 56.5 15c12 0 28.667 -3.5 50 -10.5s36.666 -10.5 45.999 -10.5c13.333 0 32 5.66699 56 17s36.333 17 37 17c2 0 3 -1.33301 3 -4z" />
    <glyph glyph-name="six" unicode="6" horiz-adv-x="481" 
d="M489 522c0 -16.667 -6.66992 -31.502 -20.0029 -44.502s-28.666 -19.5 -45.999 -19.5c-12.667 0 -23.5 4.5 -32.5 13.5s-13.5 19.833 -13.5 32.5c0 11.333 5 18.333 15 21c11.333 -14 20.666 -21 27.999 -21c8.66699 0 15.834 3.83301 21.501 11.5s8.5 16.834 8.5 27.501
c0 30 -22 45 -66 45c-69.333 0 -144.666 -79.667 -225.999 -239c30.667 19.333 62 29 94 29c30 0 56 -12.667 78 -38s33 -55.666 33 -90.999c0 -63.333 -25 -124 -75 -182c-52 -60 -109 -90 -171 -90c-38 0 -70.333 13.167 -97 39.5s-40 58.5 -40 96.5
c0 101.333 41.333 206.333 124 315c86.667 114 180 171 280 171c28.667 0 53.334 -7.66699 74.001 -23s31 -33.333 31 -54zM293.997 290.998c0 44 -21.001 66 -63.001 66c-65.333 0 -118 -64.333 -158 -193c-14.667 -47.333 -22 -84.333 -22 -111
c0 -38.667 18.667 -58 56 -58c38.667 0 80.334 40 125.001 120c41.333 74 62 132.667 62 176z" />
    <glyph glyph-name="seven" unicode="7" horiz-adv-x="436" 
d="M470 591c0 -9.33301 -35.333 -53.001 -106 -131.001l-233 -257c-23.333 -26 -52.333 -69.333 -87 -130c-24.667 -43.333 -39.334 -67.666 -44.001 -72.999c-1.33301 0 -6.33301 1.5 -15 4.5s-14.667 4.83301 -18 5.5c-22 0 -44.333 -14.667 -67 -44v9
c1.33301 8 2 12.667 2 14c0 21.333 27.667 71 83 149c61.333 86.667 120.333 147.667 177 183c64 40 123.333 84.667 178 134c38.667 35.333 63.334 61 74.001 77c-11.333 0 -28.833 -2.5 -52.5 -7.5s-41.5 -7.5 -53.5 -7.5c-11.333 0 -27.833 1.33301 -49.5 4
s-38.167 4 -49.5 4c-10.667 0 -20.667 -1 -30 -3c-23.333 -5.33301 -53.333 -19.333 -90 -42c20 39.333 38.333 67 55 83c23.333 22 53.333 33 90 33c14 0 38.667 -3.83301 74 -11.5s62.333 -11.5 81 -11.5c10 0 22 3.33301 36 10l34 16c7.33301 0 11 -2.66699 11 -8z" />
    <glyph glyph-name="eight" unicode="8" horiz-adv-x="520" 
d="M501 479c0 -36 -16.5 -67.3359 -49.5 -94.0029s-78.833 -46 -137.5 -58c38 -52.667 57 -100 57 -142c0 -59.333 -23.667 -107.666 -71 -144.999c-43.333 -35.333 -95.333 -53 -156 -53c-45.333 0 -85.333 13.333 -120 40c-36.667 28.667 -55 65.334 -55 110.001
c0 88 75.333 149.333 226 184c-18 35.333 -27 68.333 -27 99c0 50.667 19.333 92.334 58 125.001c36 30.667 79.667 46 131 46c36.667 0 69 -9.33301 97 -28c31.333 -21.333 47 -49.333 47 -84zM438 499.997c0 54 -27 81 -81 81c-24.667 0 -49.667 -11 -75 -33
c-28.667 -24.667 -43 -52.334 -43 -83.001c0 -22 5.66699 -45.333 17 -70c12.667 -26.667 27.667 -44.667 45 -54c42 14.667 75.333 36.334 100 65.001s37 60 37 94zM291 160.997c0 33.333 -28.333 81.3311 -85 143.998c-42.667 -3.33301 -80.167 -22.666 -112.5 -57.999
s-48.5 -74.666 -48.5 -117.999c0 -32 8.33301 -60.667 25 -86c19.333 -28.667 44 -43 74 -43c38 0 72 17.167 102 51.5s45 70.833 45 109.5z" />
    <glyph glyph-name="nine" unicode="9" horiz-adv-x="490" 
d="M429 473c0 -65.333 -21.668 -137.664 -65.001 -216.997c-40 -74 -87 -134.333 -141 -181c-65.333 -56.667 -130.666 -85 -195.999 -85c-26.667 0 -51.334 6.66699 -74.001 20c-27.333 16 -41 36.333 -41 61c0 15.333 7.66699 29.666 23 42.999s30.666 20 45.999 20
c30 0 45 -13 45 -39c-1.33301 -4.66699 -6 -15.334 -14 -32.001c-11.333 16 -21.666 24 -30.999 24c-18.667 0 -28 -11.333 -28 -34c0 -33.333 18.667 -50 56 -50c46.667 0 92.667 28 138 84c22.667 28 52.667 76 90 144c-26.667 -12 -57 -18 -91 -18
c-28 0 -51.333 12.167 -70 36.5s-28 54.166 -28 89.499c0 66.667 26 127.667 78 183s111 83 177 83c36.667 0 66.834 -12.5 90.501 -37.5s35.5 -56.5 35.5 -94.5zM362.999 533.002c0 16.667 -4.33203 31 -12.999 43s-19.667 18 -33 18c-40.667 0 -85.334 -40 -134.001 -120
c-46 -75.333 -69 -135.333 -69 -180c0 -18 6 -33.5 18 -46.5s27 -19.5 45 -19.5c44 0 86.667 37 128 111c38.667 69.333 58 134 58 194z" />
    <glyph glyph-name="colon" unicode=":" horiz-adv-x="244" 
d="M190 253c0 -15.333 -6 -29.166 -18 -41.499s-25.333 -18.5 -40 -18.5c-28 0 -42 16.667 -42 50c0 15.333 6 29.166 18 41.499s25.333 18.5 40 18.5c28 0 42 -16.667 42 -50zM74 45c0 -15.333 -6.00098 -28.999 -18.001 -40.999s-25.333 -18 -40 -18
c-27.333 0 -41 16.333 -41 49c0 15.333 5.83301 29.166 17.5 41.499s24.834 18.5 39.501 18.5c28 0 42 -16.667 42 -50z" />
    <glyph glyph-name="semicolon" unicode=";" horiz-adv-x="244" 
d="M180 253c0 -15.333 -6 -29.166 -18 -41.499s-25.333 -18.5 -40 -18.5c-28 0 -42 16.667 -42 50c0 15.333 6 29.166 18 41.499s25.333 18.5 40 18.5c28 0 42 -16.667 42 -50zM83 54c0 -35.333 -17 -71.667 -51 -109c-17.333 -19.333 -32.333 -29 -45 -29
c-6 0.666992 -9 3 -9 7c0 3.33301 2 6 6 8l14 7c20 14.667 30 28 30 40c0 6.66699 -2.33301 11 -7 13c-25.333 12 -38 28 -38 48c0 16 5.5 30.167 16.5 42.5s23.833 18.5 38.5 18.5c12 0 22.5 -4.5 31.5 -13.5s13.5 -19.833 13.5 -32.5z" />
    <glyph glyph-name="equal" unicode="=" horiz-adv-x="481" 
d="M403 336c0 -3.33301 -4.66602 -9.00098 -13.999 -17.001c-35.333 -25.333 -72 -38 -110 -38c-17.333 0 -43.5 1.83301 -78.5 5.5s-61.167 5.5 -78.5 5.5c-13.333 0 -32.833 -1.16699 -58.5 -3.5s-45.167 -3.5 -58.5 -3.5c-3.33301 0 -5 1.66699 -5 5
c0 14.667 14.333 27.334 43 38.001c35.333 13.333 64.666 20 87.999 20c20 0 49.833 -1.83301 89.5 -5.5s69.5 -5.5 89.5 -5.5c9.33301 0 23 1.33301 41 4s31.667 4 41 4c7.33301 0 11 -3 11 -9zM403.001 199.999c0 -3.33301 -4.66602 -9.00098 -13.999 -17.001
c-35.333 -25.333 -72 -38 -110 -38c-17.333 0 -43.5 1.83301 -78.5 5.5s-61.167 5.5 -78.5 5.5c-13.333 0 -32.833 -1.16699 -58.5 -3.5s-45.167 -3.5 -58.5 -3.5c-3.33301 0 -5 1.66699 -5 5c0 14.667 14.333 27.334 43 38.001c35.333 13.333 64.666 20 87.999 20
c20 0 49.833 -1.83301 89.5 -5.5s69.5 -5.5 89.5 -5.5c9.33301 0 23 1.33301 41 4s31.667 4 41 4c7.33301 0 11 -3 11 -9z" />
    <glyph glyph-name="question" unicode="?" horiz-adv-x="522" 
d="M506 553c0 -36.667 -18 -75 -54 -115c-30 -34.667 -64.333 -61.334 -103 -80.001l-208 -103c-8 -4 -15.333 -10.833 -22 -20.5s-10 -18.167 -10 -25.5c0 -20 12.667 -30 38 -30c8.66699 0 17 1.33301 25 4l11 -7c-20 -5.33301 -35.333 -8 -46 -8
c-12 0 -22 3.83301 -30 11.5s-12 17.5 -12 29.5c0 20.667 9.66699 38.667 29 54c14.667 11.333 64 43 148 95c20.667 12.667 48.334 35.334 83.001 68.001c52 48.667 78 92 78 130c0 26.667 -10 48.5 -30 65.5s-45.667 25.5 -77 25.5c-46 0 -93 -18.667 -141 -56
c-51.333 -40 -77 -82.667 -77 -128c0 -14 4.66699 -25.667 14 -35s20.666 -14 33.999 -14c16 0 34.333 6 55 18l10 -3c-24.667 -17.333 -47 -26 -67 -26c-16 0 -29.5 5.5 -40.5 16.5s-16.5 25.167 -16.5 42.5c0 60 29 112 87 156c53.333 40.667 111 61 173 61
c38 0 71.667 -11.333 101 -34c32 -24 48 -54.667 48 -92zM111 50c0 -15.333 -6 -28.999 -18 -40.999s-25.333 -18 -40 -18c-28 0 -42 16.333 -42 49c0 15.333 6 29.166 18 41.499s25.333 18.5 40 18.5c28 0 42 -16.667 42 -50z" />
    <glyph glyph-name="at" unicode="@" horiz-adv-x="691" 
d="M558 228c-26.667 -41.333 -55.668 -74.333 -87.001 -99c-39.333 -30.667 -74 -46 -104 -46c-52.667 0 -79 18.667 -79 56c0 8 1.66699 20.333 5 37c-29.333 -39.333 -61 -59 -95 -59c-45.333 0 -68 33 -68 99c0 50 21 97.333 63 142c46 49.333 99.667 74 161 74
c23.333 0 40.333 -8 51 -24c8 10 15 15 21 15c2.66699 0 9.66699 -1 21 -3s18.333 -3 21 -3s8.16699 4.33301 16.5 13s13.833 13.334 16.5 14.001l-131 -246c-8 -15.333 -15 -32.666 -21 -51.999c0 -25.333 14.667 -38 44 -38c18.667 0 45.667 16.333 81 49
c24.667 22.667 48.667 52.5 72 89.5s39.333 71.167 48 102.5c6 21.333 9 42.666 9 63.999c0 47.333 -16 84.666 -48 111.999s-75.333 41 -130 41c-91.333 0 -174.666 -32.667 -249.999 -98c-71.333 -62 -119 -138.333 -143 -229c-9.33301 -35.333 -14 -67.333 -14 -96
c0 -60.667 19.167 -107.5 57.5 -140.5s91.5 -49.5 159.5 -49.5c132 0 243 64.333 333 193h20c-24.667 -41.333 -54.334 -77 -89.001 -107c-83.333 -71.333 -174 -107 -272 -107c-69.333 0 -125.666 19.667 -168.999 59s-65 93.333 -65 162c0 30 3.66699 59.333 11 88
c24 94 76.5 174.667 157.5 242s169.5 101 265.5 101c61.333 0 109.5 -15.333 144.5 -46s52.5 -72 52.5 -124c0 -56 -22 -118 -66 -186zM389.999 390c0 16 -7 24 -21 24c-39.333 0 -80.333 -34.333 -123 -103c-38 -61.333 -57 -110 -57 -146c0 -22 6.66699 -33 20 -33
c26.667 0 53 22 79 66c68 116 102 180 102 192z" />
    <glyph glyph-name="A" unicode="A" horiz-adv-x="1061" 
d="M1229 -14c0 -40.667 -20.667 -76.668 -62 -108.001c-38.667 -29.333 -79 -44.333 -121 -45c-67.333 -0.666992 -129.666 14 -186.999 44c-22 11.333 -52.333 31 -91 59c-14.667 -8.66699 -37.334 -21.334 -68.001 -38.001c-112 -60 -214.667 -90 -308 -90
c-112 0 -205.667 33.333 -281 100c-78.667 69.333 -118 159.333 -118 270c0 108 32.167 195 96.5 261s150.166 99 257.499 99c16.667 0 36 -4 58 -12v-12c-22 8.66699 -41.333 13 -58 13c-102.667 0 -185.667 -32.5 -249 -97.5s-95 -148.833 -95 -251.5
c0 -107.333 38.333 -195 115 -263c74 -64.667 165.333 -97 274 -97c102 0 224 42 366 126l-36 32c-18.667 -3.33301 -34.334 -5 -47.001 -5c-36.667 0 -55 10.333 -55 31c0 13.333 8.33301 20 25 20c20 0 46.667 -7.33301 80 -22c6 0 19.833 9.66699 41.5 29
s33.834 32.333 36.501 39l44 105c24.667 60.667 37 106.334 37 137.001c-30 -6 -70.667 -9 -122 -9c-23.333 -37.333 -60 -91.666 -110 -162.999c-86 -110.667 -171.333 -166 -256 -166c-44.667 0 -81 10.333 -109 31c-32 22.667 -48 55.334 -48 98.001
c0 64 28.667 117 86 159c52 37.333 111.667 56 179 56h249c16.667 37.333 42.667 79.333 78 126c84 112 180.667 184 290 216c6.66699 0 10 -5.33301 10 -16c0 -7.33301 -11.333 -21.333 -34 -42c-27.333 -25.333 -49 -53 -65 -83c-26 -49.333 -41.333 -107.333 -46 -174
c129.333 51.333 194 132.666 194 243.999c0 78.667 -36.333 142.334 -109 191.001c-64 42.667 -137.333 64 -220 64c-94.667 0 -176 -28.667 -244 -86c-63.333 -53.333 -95 -111 -95 -173c0 -90 35 -150.667 105 -182l-3 -13c-77.333 32 -116 97 -116 195
c0 78.667 40.333 145.334 121 200.001c72.667 48.667 150 73 232 73c86.667 0 163.334 -22.667 230.001 -68c75.333 -51.333 113 -118.333 113 -201c0 -120 -70 -207.333 -210 -262c-1.33301 -14.667 -5 -38.167 -11 -70.5s-26 -72.833 -60 -121.5
c-46.667 -66.667 -102.334 -117.334 -167.001 -152.001l30 -28c116.667 71.333 187.334 112.666 212.001 123.999c34 16 69.667 24 107 24c34.667 0 65 -10.333 91 -31c28.667 -22 43 -50 43 -84zM1056 616.999c-16 0 -47.334 -20.001 -94.001 -60.001
c-37.333 -31.333 -66 -58.666 -86 -81.999c-51.333 -58 -85.666 -111 -102.999 -159c42.667 0 80 3 112 9c12 73.333 56.333 154.333 133 243c22.667 26 35.667 42 39 48c0 0.666992 -0.333008 1 -1 1zM1215 -15.002c0 28.667 -11.332 52.833 -33.999 72.5
s-51 29.5 -85 29.5c-36.667 0 -73.334 -8.66699 -110.001 -26c-24 -11.333 -90.667 -50.333 -200 -117c77.333 -64.667 164 -97 260 -97c38.667 0 75.667 13 111 39c38.667 28.667 58 61.667 58 99zM696 -9.00293c-20.667 10 -36 15 -46 15c-6 0 -9 -2 -9 -6
c0 -9.33301 7.33301 -14 22 -14c8.66699 0 19.667 1.66699 33 5zM741 298.997l-201 0.000976562c-61.333 0 -117.333 -17.333 -168 -52c-57.333 -38.667 -86 -87.334 -86 -146.001c0 -76.667 36.667 -115 110 -115c67.333 0 137.333 41 210 123
c26.667 30 71.667 93.333 135 190z" />
    <glyph glyph-name="B" unicode="B" horiz-adv-x="1064" 
d="M1304 544c0 -16 -8.33203 -30.8369 -24.999 -44.5039s-36.334 -22.167 -59.001 -25.5l-10 10c22.667 4.66699 41.5 12.834 56.5 24.501s22.5 23.5 22.5 35.5c0 30 -23.667 55 -71 75c-37.333 15.333 -73.666 23 -108.999 23c-37.333 0 -84 -11.667 -140 -35
c28 -30.667 44.333 -49.334 49 -56.001c18 -24 27 -49.667 27 -77c0 -38 -12.333 -70.333 -37 -97c-16.667 -18.667 -45.334 -40 -86.001 -64c32 -38.667 48 -90 48 -154c35.333 12 71.333 34.333 108 67l8 -8c-36.667 -32 -77.334 -57.333 -122.001 -76
c-20.667 -53.333 -54.167 -94.666 -100.5 -123.999s-98.833 -43.666 -157.5 -42.999c-45.333 0.666992 -68 16.334 -68 47.001c0 42.667 30 73.667 90 93c40.667 13.333 85.667 20 135 20c22 20 33 57 33 111c0 20 -2 40.333 -6 61c-9.33301 -1.33301 -18 -2 -26 -2
c-8.66699 0 -17.5 3 -26.5 9s-13.5 12.667 -13.5 20c0 14.667 10.667 22 32 22c15.333 0 31.333 -7.33301 48 -22c53.333 50 80 96.667 80 140c0 65.333 -13.333 105.333 -40 120c-26 -13.333 -63.333 -53.333 -112 -120c-16 -21.333 -32.667 -62 -50 -122
c-18 -62.667 -34.667 -106 -50 -130c-54.667 -85.333 -110.667 -146 -168 -182c-68.667 -43.333 -154.334 -65 -257.001 -65c-86.667 0 -157.334 24.667 -212.001 74c-56.667 51.333 -85 120 -85 206c0 97.333 34.833 182.333 104.5 255s152.834 109 249.501 109
c36 0 77.333 -9.66699 124 -29c56 32.667 88.667 50.667 98 54c45.333 17.333 99.333 26 162 26c48 0 91.333 -6.66699 130 -20l36 -15.5c16 -7 28 -12.5 36 -16.5c14 4.66699 34.333 12.334 61 23.001c28.667 8.66699 61.334 13 98.001 13c38.667 0 78.334 -9 119.001 -27
c50.667 -21.333 76 -49 76 -83zM887.001 323.996c-10.667 12.667 -21 19 -31 19c-8 0 -12 -3 -12 -9c0 -9.33301 6.66699 -14 20 -14c7.33301 0 15 1.33301 23 4zM629.001 351.996c0 96.667 -47 171 -141 223c-30.667 -30 -51.667 -53.333 -63 -70
c-18.667 -28 -28 -59.333 -28 -94c0 -43.333 12.167 -78 36.5 -104s56.5 -39 96.5 -39c32 0 60 11 84 33c10 23.333 15 40.333 15 51zM860.001 119.996c-52.667 0 -97.668 -6.33203 -135.001 -18.999c-50 -16.667 -75 -43 -75 -79c0 -18.667 14 -28.334 42 -29.001
c38.667 -0.666992 77.334 19 116.001 59l26.5 34.5zM931 606.997c-55.333 35.333 -116.335 53.001 -183.002 53.001c-56.667 0 -104.667 -7 -144 -21c-31.333 -10.667 -66.666 -29.667 -105.999 -57c95.333 -59.333 143 -136 143 -230
c-0.666992 -4 -2.33398 -15.667 -5.00098 -35l20.5 35.5c7 12.333 10.5 23.833 10.5 34.5c0.666992 14.667 -6.33301 37 -21 67l11 3c8.66699 -16.667 13.667 -25.334 15 -26.001c5.33301 -14 8 -28.333 8 -43c0 -32 -18 -66 -54 -102c-14 -41.333 -38 -75.333 -72 -102
s-72.333 -40 -115 -40v14c28 0 55 6.66699 81 20c40.667 20.667 67.667 51.334 81 92.001c-30.667 -10 -54.334 -15 -71.001 -15c-43.333 0 -78.166 14.5 -104.499 43.5s-39.5 66.833 -39.5 113.5c0 41.333 12.667 79.333 38 114c6.66699 9.33301 24.334 27.333 53.001 54
c-35.333 19.333 -73 29 -113 29c-91.333 0 -171.333 -36 -240 -108s-103 -154 -103 -246c0 -82 27.333 -147.667 82 -197c52.667 -46.667 120.667 -70 204 -70c40 0 82.5 11.167 127.5 33.5s85.5 52.166 121.5 89.499c34.667 35.333 63.667 79 87 131
c2.66699 5.33301 15 37 37 95c24.667 64.667 61.334 122 110.001 172c44.667 46 91.667 78.667 141 98z" />
    <glyph glyph-name="C" unicode="C" horiz-adv-x="933" 
d="M1153 -253c0 -15.333 -7.33301 -33.333 -22 -54c-2.66699 2.66699 -4.33398 4.66699 -5.00098 6c10 18.667 15 34.667 15 48c0 47.333 -34 85.333 -102 114c-54 22.667 -108.333 34 -163 34c-60 0 -124 -13.333 -192 -40l-180 -74c-66 -26.667 -126 -40 -180 -40
c-97.333 0 -176 33.667 -236 101c-56.667 64.667 -85 146.334 -85 245.001c0 122.667 44.5 227.667 133.5 315s194.833 131 317.5 131c36.667 0 80.667 -3 132 -9c32.667 -4 54.334 -6.33301 65.001 -7c122 68 230.333 102 325 102c67.333 0 101 -19.333 101 -58
c0 -32 -20 -56.333 -60 -73c-30 -12 -63.667 -18 -101 -18s-101.333 6.33301 -192 19c-39.333 -32.667 -82.333 -74.667 -129 -126c-34.667 -38 -65.667 -85.333 -93 -142c-23.333 -48.667 -35.333 -90.667 -36 -126c-0.666992 -24.667 6.66602 -44.667 21.999 -60
c-0.666992 3.33301 -1 9 -1 17c0 62 23.333 125.333 70 190c55.333 76.667 120.666 115 195.999 115c24.667 0 44 -8.16699 58 -24.5s21 -38.833 21 -67.5c0 -66 -29.5 -131 -88.5 -195s-121.167 -96 -186.5 -96c-4.66699 0 -11 0.666992 -19 2
c16.667 -20.667 37.667 -31 63 -31c63.333 0 131.333 46.333 204 139l8 -9c-70.667 -96 -141.334 -144 -212.001 -144c-37.333 0 -69.666 18.667 -96.999 56c-63.333 31.333 -95 90 -95 176c0 78.667 34.667 157 104 235c42.667 48 84.334 83.667 125.001 107
c0 5.33301 -26.667 9.66602 -80 12.999c-42 2.66699 -76.667 4 -104 4c-122 0 -226.667 -45.333 -314 -136c-84 -86.667 -126 -186.334 -126 -299.001c0 -93.333 27.667 -171.666 83 -234.999c58 -66.667 133.667 -100 227 -100c48 0 106 13.333 174 40l185 74
c70 26.667 134.333 40 193 40c62.667 0 120.334 -11.333 173.001 -34c69.333 -29.333 104 -71 104 -125zM1066 561c0 31.333 -30 47 -90 47c-56.667 0 -133.667 -36.333 -231 -109c81.333 -12 138.333 -18 171 -18c100 0 150 26.667 150 80zM798 272c0 44.667 -22 67 -66 67
c-55.333 0 -108 -33.667 -158 -101c-46.667 -62.667 -70 -122.667 -70 -180c0 -14.667 3.66699 -32 11 -52c13.333 -8.66699 27 -13 41 -13c55.333 0 110.333 35.333 165 106c51.333 66 77 123.667 77 173z" />
    <glyph glyph-name="D" unicode="D" horiz-adv-x="852" 
d="M981 613l-4 -8.00391c-27.333 18.667 -51.166 31.334 -71.499 38.001s-46.5 10 -78.5 10c-16.667 0 -50.667 -4 -102 -12c46.667 -70.667 70 -152.667 70 -246c0 -99.333 -34 -194.666 -102 -285.999s-144 -136.666 -228 -135.999c-51.333 0.666992 -100.333 17 -147 49
c-46 -32 -95 -48 -147 -48c-38.667 0 -69.834 8 -93.501 24s-35.5 38 -35.5 66c0 20.667 8.83301 38 26.5 52s40.5 21 68.5 21c31.333 0 64 -9.33301 98 -28c13.333 -7.33301 33.333 -20 60 -38c14 9.33301 31.333 41 52 95c30.667 82 53.667 138 69 168
c72 144.667 150.333 241 235 289l42 24c-0.666992 6 -12 18.333 -34 37c-69.333 59.333 -153.333 89 -252 89c-111.333 0 -197 -34.667 -257 -104c-45.333 -52 -68 -110.333 -68 -175c0 -2 0.333008 -5.33301 1 -10v-10c55.333 50 107.666 75 156.999 75
c52.667 0 96.167 -14.5 130.5 -43.5s51.5 -64.167 51.5 -105.5c0 -36.667 -15 -68.167 -45 -94.5s-63.667 -39.5 -101 -39.5c-68.667 0 -122.667 29.667 -162 89c-17.333 26 -30.333 55.667 -39 89c-37.333 -47.333 -56 -99.666 -56 -156.999c0 -24 9.66699 -61.333 29 -112
l-9 -6c-21.333 44.667 -32 84 -32 118c0 42.667 10 82.334 30 119.001c4.66699 9.33301 16.334 27.666 35.001 54.999c-0.666992 6 -1 15 -1 27c0 80 26.667 147.333 80 202c62 63.333 147.333 95 256 95c130 0 233 -45.333 309 -136c32.667 10.667 69.667 16 111 16
c70 0 121.333 -17.333 154 -52zM743 475.996c0 20 -3.33105 47.001 -9.99805 81.001c-8.66699 41.333 -18.334 65 -29.001 71c-76.667 -37.333 -135.667 -120.666 -177 -249.999c-8.66699 -28.667 -22.334 -71.334 -41.001 -128.001
c-21.333 -60.667 -48 -110.334 -80 -149.001c-8 -10 -31.667 -31.333 -71 -64c40.667 -23.333 67.667 -35 81 -35c92.667 0 172.667 57.667 240 173c58 100.667 87 201 87 301zM410.002 399.997c0 42.667 -18.333 77 -55 103c-32 22.667 -70.333 34 -115 34
c-52 0 -103.667 -26.667 -155 -80c12 -52.667 33 -94.667 63 -126c34 -35.333 76.667 -53 128 -53c34 0 64.833 12 92.5 36s41.5 52.667 41.5 86zM279.002 57.9971c-10.667 10.667 -24.666 21.332 -41.999 31.999c-36.667 22 -75 33.333 -115 34
c-18.667 0 -33.834 -5.66699 -45.501 -17s-17.5 -25.666 -17.5 -42.999c0 -20.667 8.5 -38 25.5 -52s37.833 -21 62.5 -21c37.333 0 81.333 22.333 132 67z" />
    <glyph glyph-name="E" unicode="E" horiz-adv-x="973" 
d="M900 543c0 -31.333 -14.9961 -57.6689 -44.9961 -79.002c-26.667 -18.667 -56.334 -28 -89.001 -28c-26.667 0 -61 7.66699 -103 23l3 -32c3.33301 -22 8.66602 -38.333 15.999 -49c1.33301 -2 8.66602 -6.66699 21.999 -14c11.333 -6 17 -12.333 17 -19
s-4 -10.667 -12 -12c-14.667 0 -28 7.66699 -40 23c-13.333 7.33301 -28.333 11 -45 11c-44.667 0 -82.834 -19.167 -114.501 -57.5s-47.5 -80.5 -47.5 -126.5c0 -50.667 14 -95 42 -133c30.667 -42 70.334 -63 119.001 -63c60.667 0 113.667 21.5 159 64.5
s68 94.833 68 155.5c0 31.333 -8 56.833 -24 76.5s-37.333 29.5 -64 29.5c-38.667 0 -75.5 -16.667 -110.5 -50s-52.5 -69.333 -52.5 -108c0 -22.667 6.83301 -41.667 20.5 -57s30.167 -23 49.5 -23c38 0 66 19 84 57c14 29.333 21 65.333 21 108h12
c0 -46 -5.66699 -82 -17 -108c-20.667 -47.333 -54 -71 -100 -71c-24 0 -44 9.16699 -60 27.5s-24 40.5 -24 66.5c0 43.333 18.667 82.833 56 118.5s77.666 53.5 120.999 53.5c30 0 54.5 -11.167 73.5 -33.5s28.5 -51.166 28.5 -86.499c0 -64.667 -24 -120.5 -72 -167.5
s-104.333 -70.5 -169 -70.5c-81.333 0 -145 21 -191 63c-43.333 39.333 -65 92 -65 158c0 64.667 20.5 117 61.5 157s94.167 60 159.5 60c12 0 21 -0.333008 27 -1c-12.667 19.333 -22 38.333 -28 57l-4 13c-3.33301 10 -5.33301 15.333 -6 16
c-68.667 12 -130.667 18 -186 18c-86 0 -164.667 -14.667 -236 -44c-94.667 -39.333 -142 -96.333 -142 -171c0 -16.667 5 -35 15 -55l-12 -8c-10.667 20.667 -16 41.334 -16 62.001c-0 80 48.333 140.667 145 182c72.667 31.333 154.667 47 246 47
c39.333 0 101.333 -5 186 -15c21.333 103.333 84.333 155 189 155c34.667 0 65.667 -11.5 93 -34.5s41 -51.5 41 -85.5zM888.004 542.997c0 23.333 -8.83203 43.334 -26.499 60.001s-38.834 25 -63.501 25c-38 0 -70.5 -14.833 -97.5 -44.5s-40.5 -58.167 -40.5 -85.5
c0 -8.66699 1.33301 -15.334 4 -20.001c32 -20 66 -30 102 -30c36.667 0 66.167 8.83301 88.5 26.5s33.5 40.5 33.5 68.5z" />
    <glyph glyph-name="F" unicode="F" horiz-adv-x="1026" 
d="M1424 579c0 -23.333 -15.0029 -44.334 -45.0029 -63.001c-26.667 -16.667 -52.334 -25 -77.001 -25c-44 0 -91.667 13.333 -143 40c-68 35.333 -112.667 56.333 -134 63c-88.667 27.333 -165.667 41 -231 41c-104.667 0 -178.667 -20 -222 -60
c18 -10 39.333 -34.667 64 -74c33.333 -53.333 50 -109.666 50 -168.999c0 -70.667 -23.667 -137.334 -71 -200.001c-51.333 -66.667 -111.666 -100 -180.999 -100c-39.333 0 -76 14.333 -110 43s-51 62.334 -51 101.001c0 20.667 5.66699 49.667 17 87
c4.66699 -5.33301 7 -10 7 -14c-8.66699 -24 -13 -48.333 -13 -73c0 -36 16.333 -67.667 49 -95c30.667 -25.333 64.334 -38 101.001 -38c66.667 0 124.334 32.333 173.001 97c45.333 59.333 68 123.333 68 192c0 54.667 -15 106.667 -45 156
c-20.667 34.667 -44 61.667 -70 81c-20.667 -10 -44.667 -37.667 -72 -83c-28.667 -48 -43 -92.333 -43 -133c0 -41.333 10.5 -74.5 31.5 -99.5s48.833 -37.5 83.5 -37.5c5.33301 0 13.333 0.666992 24 2v-11c-12 -1.33301 -21 -2 -27 -2
c-37.333 0 -67.166 13.333 -89.499 40s-33.5 62.667 -33.5 108c0 51.333 17 102.333 51 153l59 72c-46 28 -97.333 42 -154 42c-99.333 0 -183.333 -38.667 -252 -116c-65.333 -74 -98 -161.333 -98 -262c0 -105.333 31.667 -194 95 -266c66 -74.667 151 -112 255 -112
c82 0 155 31.667 219 95c27.333 27.333 48.333 55.666 63 84.999c20.667 42 63.334 150.333 128.001 325l-38 8l5 15l40 -8c10.667 15.333 31.334 40.333 62.001 75c31.333 26 62 43.333 92 52c26.667 7.33301 69 12 127 14v-4
c-2.66699 -3.33301 -19.667 -7.66602 -51 -12.999c-35.333 -5.33301 -59 -11 -71 -17c-30.667 -14.667 -59.667 -54.667 -87 -120l59 -11c14 45.333 36 68 66 68c21.333 0 32 -11.333 32 -34c0 -12.667 -6.16699 -24.5 -18.5 -35.5s-25.833 -17.5 -40.5 -19.5
c0.666992 -7.33301 1 -17.333 1 -30c0 -88.667 -28.667 -133 -86 -133c-12 0 -23.333 5.33301 -34 16l7 7c11.333 -4.66699 20.666 -7 27.999 -7c15.333 0 25.666 16 30.999 48c1.33301 9.33301 4.33301 43 9 101l-60 9c-14 -51.333 -28 -98 -42 -140
c-33.333 -100.667 -64.333 -168.667 -93 -204c-36.667 -45.333 -89.334 -82.333 -158.001 -111c-64.667 -27.333 -128 -41 -190 -41c-112.667 0 -204.5 36.5 -275.5 109.5s-106.5 165.833 -106.5 278.5c0 108.667 36.5 200.5 109.5 275.5s163.833 112.5 272.5 112.5
c52 0 106 -14 162 -42c77.333 65.333 158 98 242 98c71.333 0 138.333 -16 201 -48l155 -89c56 -32 106.667 -48 152 -48c48.667 0 89.334 26 122.001 78zM1019 398.999c0 7.33301 -5 11.001 -15 11.001c-6 0 -12.333 -5.83301 -19 -17.5s-10 -20.834 -10 -27.501
c0 -2 0.666992 -3 2 -3c10 0 19.5 3.66699 28.5 11s13.5 16 13.5 26z" />
    <glyph glyph-name="G" unicode="G" horiz-adv-x="913" 
d="M1367 -59c-24.667 -104.667 -86.6699 -156.998 -186.003 -156.998c-43.333 0 -88 11.333 -134 34c-22 10.667 -68.833 38.667 -140.5 84s-139.5 82.666 -203.5 111.999l-73 -91c-24 -56.667 -51.667 -105.667 -83 -147c-74.667 -98 -160 -147 -256 -147
c-48 0 -87.667 15.833 -119 47.5s-47 71.5 -47 119.5c0 8.66699 0.333008 15 1 19c-84 70.667 -126 166.667 -126 288c0 114 37.667 209 113 285s170 114 284 114c41.333 0 98.333 -7 171 -21c139.333 102 267 153 383 153c28.667 0 52.667 -5.83301 72 -17.5
s29 -25.834 29 -42.501c0 -31.333 -38 -59.333 -114 -84c-50.667 -16.667 -101 -28 -151 -34c-28.667 -3.33301 -51.667 -5 -69 -5c-14 0 -31 1.33301 -51 4c-22 -16.667 -42.333 -34.667 -61 -54c-48.667 -50 -88.667 -104 -120 -162c-17.333 -32.667 -29 -60 -35 -82
s-9.33301 -52 -10 -90c30.667 2.66699 59 3.66699 85 3c22.667 -0.666992 57.334 -5.66699 104.001 -15c66 176 114 264 144 264c9.33301 0 24.333 -4.66699 45 -14l30 42l10 -4c-88 -143.333 -147.667 -244.333 -179 -303l23 -13c26.667 26.667 54.667 46 84 58
s59.333 18 90 18l2 -10c-35.333 0 -71.333 -9.33301 -108 -28c-23.333 -12 -43 -26 -59 -42c46.667 -22 143.334 -77.333 290.001 -166c69.333 -42 129 -63 179 -63c47.333 0 86.333 13 117 39s50.334 62 59.001 108h10zM1038 574.002
c0 10.667 -6.00098 19.833 -18.001 27.5s-27 11.5 -45 11.5c-75.333 0 -175.333 -48.667 -300 -146c52.667 0 90.334 1 113.001 3c54.667 4.66699 110 18.167 166 40.5s84 43.5 84 63.5zM693.996 18.001l-19 10l-34 -77zM614.996 43.001
c-18 4.66699 -47.668 9.66699 -89.001 15c-25.333 0 -52.666 -1.66699 -81.999 -5c9.33301 -39.333 29.666 -59 60.999 -59c28.667 0 65.334 16.333 110.001 49zM554.995 470.001c-70.667 15.333 -123.334 23.002 -158.001 23.002c-110.667 0 -203 -37.333 -277 -112
s-111 -167.334 -111 -278.001c0 -67.333 16 -129.333 48 -186c21.333 -38 45 -68 71 -90c4.66699 17.333 13 36 25 56c49.333 82 128.333 139.333 237 172c-11.333 41.333 -17 69.666 -17 84.999c0 62.667 19 123 57 181c20.667 32 62.334 81.667 125.001 149z
M629.995 37.0029c-56.667 -36 -98.001 -54 -124.001 -54c-39.333 0 -76.666 21 -111.999 63c-56 -14 -104.333 -37.333 -145 -70c-58.667 -47.333 -95.667 -99.666 -111 -156.999c62.667 -33.333 121.667 -50 177 -50c61.333 0 125 21 191 63
c46 29.333 76.333 53.666 91 72.999c10 24 21 68 33 132zM597.994 -109.997c-101.333 -87.333 -195.666 -130.999 -282.999 -130.999c-38 0 -77.667 6.66699 -119 20c-32.667 10.667 -52.667 19.667 -60 27c0 -42.667 10.333 -78.334 31 -107.001
c29.333 -40.667 70.666 -61 123.999 -61c108 0 199 60 273 180c22.667 36.667 34 60.667 34 72z" />
    <glyph glyph-name="H" unicode="H" horiz-adv-x="940" 
d="M1200 565c0 -44 -38.6699 -87.333 -116.003 -130c-58.667 -32 -125 -57.667 -199 -77c-57.333 -131.333 -103 -214 -137 -248c-59.333 -59.333 -105.666 -94.333 -138.999 -105c28.667 -17.333 50.667 -26 66 -26c34.667 0 77.667 24.333 129 73v-12
c-44.667 -46.667 -87.667 -70 -129 -70c-20.667 0 -47.667 10 -81 30c-20.667 -12 -39.667 -18 -57 -18c-21.333 0 -32 9 -32 27c0 18.667 11 28 33 28c12.667 0 30.667 -6.66699 54 -20c31.333 25.333 49.333 40.666 54 45.999c12 12.667 23 28.834 33 48.501
s42 96.834 96 231.501l-172 -34c-7.33301 -20 -18.666 -49.167 -33.999 -87.5s-39.666 -75.5 -72.999 -111.5c-80 -85.333 -176 -128 -288 -128c-26.667 0 -49.667 6 -69 18c-16.667 -39.333 -25 -82 -25 -128c0 -90 28.667 -162.667 86 -218
c49.333 -47.333 105.666 -71 168.999 -71c93.333 0 154.333 42 183 126l10 3c-28.667 -92 -93 -138 -193 -138c-78 0 -142.667 30.667 -194 92c-48 58 -72 126.667 -72 206c0 33.333 8.66699 77.666 26 132.999c-32 19.333 -55 36.666 -69 51.999
c-38.667 40.667 -58 93 -58 157c0 90.667 36.333 160.667 109 210c37.333 25.333 77.333 42.333 120 51c0 48.667 6 84 18 106c23.333 42.667 57.666 78.167 102.999 106.5s92 42.5 140 42.5c42.667 0 80.334 -9.33301 113.001 -28c22.667 -12.667 48.667 -34 78 -64
c34 -34.667 62.333 -60 85 -76c19.333 4 37 6 53 6c37.333 0 56 -8.66699 56 -26c0 -18 -12 -27 -36 -27c-16.667 0 -40.667 10 -72 30c-18 -7.33301 -43 -21.666 -75 -42.999c-21.333 -21.333 -45.333 -61 -72 -119c-3.33301 -10.667 -8.66602 -31 -15.999 -61
c50.667 8.66699 108 19.667 172 33c16.667 32.667 46.334 74 89.001 124c29.333 34.667 70.666 64.167 123.999 88.5s103 36.5 149 36.5c40 0 60 -13 60 -39zM1191 565c0 20 -17 30.001 -51 30.001c-47.333 0 -99.666 -28.667 -156.999 -86
c-50 -50 -81.667 -95.667 -95 -137c75.333 17.333 142.666 43.666 201.999 78.999c67.333 40 101 78 101 114zM866.997 542.001c0 11.333 -9.33301 17 -28 17c-14 0 -31.667 -3 -53 -9c28 -16 49.333 -24 64 -24c11.333 0 17 5.33301 17 16zM749.997 557.001
c-91.333 83.333 -186.998 125.001 -286.998 125.001c-38 0 -76.667 -9.66699 -116 -29c-42 -20.667 -72.333 -46.667 -91 -78c-10 -16.667 -15 -50 -15 -100c41.333 0 74.333 -5 99 -15c29.333 -12 58.666 -37.667 87.999 -77c39.333 18.667 72.666 39.667 99.999 63l4 -7
c-33.333 -26.667 -66 -48.334 -98 -65.001c13.333 -22.667 20 -51 20 -85l42 9c32.667 72 73.334 130.333 122.001 175c25.333 23.333 41.666 37 48.999 41c30 16.667 57.667 31 83 43zM417.999 377.002c-24.667 38.667 -51.333 63.167 -80 73.5s-61 15.5 -97 15.5
c11.333 -67.333 47 -101 107 -101c10 0 33.333 4 70 12zM579 8.00195c-19.333 11.333 -35 17 -47 17c-10.667 0 -16 -5.66699 -16 -17c0 -10.667 6 -16 18 -16c8 0 17.5 2.16699 28.5 6.5s16.5 7.5 16.5 9.5zM442 272.002c-16 -6 -47.002 -19 -93.002 -39
c-34 -15.333 -69 -40.333 -105 -75c-23.333 -22.667 -38.666 -40.667 -45.999 -54c15.333 -8.66699 29 -13 41 -13c100.667 0 168.334 60.333 203.001 181zM441.998 283.002c0 32 -6.00098 60.3359 -18.001 85.0029c-32 -8 -57 -12 -75 -12
c-67.333 0 -106.666 36.667 -117.999 110c-66 -18.667 -118 -47.667 -156 -87c-42.667 -44.667 -64 -99.667 -64 -165c0 -75.333 28.333 -134 85 -176c8 -4.66699 20 -12.334 36 -23.001c4.66699 12 12 27.667 22 47c12.667 24 21.667 37.667 27 41
c-25.333 17.333 -38 43.333 -38 78c0 75.333 39.667 126.666 119 153.999l2 -6c-74 -28.667 -111 -78 -111 -148c0 -10.667 3.33301 -24.334 10 -41.001c8 -20 16.667 -30 26 -30c42 58 94 102 156 132c20.667 10 53 23.667 97 41zM492.997 286.005
c-4.66699 0 -17.668 -3 -39.001 -9c-37.333 -130 -109.666 -195 -216.999 -195c-16 0 -31.667 5 -47 15c-11.333 -12.667 -21.333 -28.334 -30 -47.001l-18 -39c20.667 -13.333 42.667 -20 66 -20c60 0 113.333 22.333 160 67c36 34.667 65.667 79.334 89 134.001z" />
    <glyph glyph-name="I" unicode="I" horiz-adv-x="789" 
d="M1032 609c-46 -1.33301 -86.002 -7.33398 -120.002 -18.001c-98 -32 -172.667 -118.667 -224 -260c-14.667 -40 -22 -67.667 -22 -83c10 0 28.667 8 56 24c25.333 14.667 42.333 26.667 51 36c20 20.667 39 59 57 115l9 -4c0 -6.66699 -5.33301 -22.667 -16 -48
c-14 -32.667 -28.333 -57 -43 -73c-31.333 -34 -70.666 -55.667 -117.999 -65c-30 -89.333 -73.833 -155 -131.5 -197s-133.5 -63 -227.5 -63c-72.667 0 -136 20.667 -190 62c-67.333 52 -101 126.667 -101 224c-6 31.333 -9 67 -9 107c0 82.667 29.5 155.334 88.5 218.001
s129.5 94 211.5 94c37.333 0 71 -7.33301 101 -22l-2 -9c-33.333 14.667 -66.666 22 -99.999 22c-72 0 -137.333 -28 -196 -84c-62.667 -60 -94 -133 -94 -219c0 -14.667 2.66699 -38.667 8 -72c12 42.667 29.667 79.667 53 111c56 74 135 111 237 111c58 0 111 -18 159 -54
c12.667 38.667 36 73.667 70 105c68.667 63.333 165.667 95 291 95c37.333 0 76.666 -4 117.999 -12c23.333 -4.66699 38.333 -8 45 -10c22 -6 34.333 -13 37 -21c0.666992 -2.66699 1.33398 -6 2.00098 -10zM1014 614.999c-6.66699 11.333 -35.6689 21.332 -87.002 29.999
c-39.333 6 -71.666 9 -96.999 9c-79.333 0 -149.666 -15 -210.999 -45c-72.667 -36 -119.334 -88 -140.001 -156c2.66699 -3.33301 6.5 -8.83301 11.5 -16.5s8.5 -13.5 10.5 -17.5c16 -32 25.667 -81.333 29 -148c10 -7.33301 26.333 -16.333 49 -27
c24.667 67.333 43.334 113.333 56.001 138c64 122.667 144.667 195.334 242 218.001c30 6.66699 75.667 11.667 137 15zM518.996 287.998c-0.666992 12.667 -3 35.333 -7 68c-5.33301 29.333 -17.333 57.333 -36 84c1.33301 -17.333 4.33301 -44 9 -80
c4 -18 15.333 -42 34 -72zM518.996 265.997c-23.333 30 -38.332 60.333 -44.999 91c-5.33301 22 -8.33301 53.333 -9 94c-43.333 37.333 -95 56 -155 56c-152.667 0 -248 -80.333 -286 -241c48.667 -135.333 128.667 -203 240 -203c84 0 149.667 30 197 90
c17.333 22 36.666 59.667 57.999 113zM574.997 231.997c-8.66699 2.66699 -24.332 11.333 -46.999 26c-45.333 -135.333 -133.333 -203.333 -264 -204c-73.333 -0.666992 -133 26.333 -179 81c-15.333 18 -36 53 -62 105c6 -79.333 34.333 -141.833 85 -187.5
s115.667 -68.5 195 -68.5c50 0 104.333 30 163 90c51.333 51.333 87.666 104 108.999 158z" />
    <glyph glyph-name="J" unicode="J" horiz-adv-x="940" 
d="M1180 588c0 -12 -4.00293 -18 -12.0029 -18c-1.33301 0 -8 1.33301 -20 4s-21.333 4 -28 4c-79.333 0 -143.333 -22.667 -192 -68c-28 -26 -53 -60 -75 -102c-13.333 -25.333 -65 -138.666 -155 -339.999c20 -4 32 -6 36 -6c68 0 118 57.333 150 172
c2 -10 3.66699 -17 5 -21c-2 -30.667 -17.667 -64.334 -47 -101.001c-33.333 -41.333 -69.666 -62 -108.999 -62c-8.66699 0 -22.334 1.33301 -41.001 4c-36 -78 -86.667 -139.667 -152 -185c-68.667 -48 -144.667 -72 -228 -72c-89.333 0 -162.166 29 -218.499 87
s-84.5 131.667 -84.5 221c0 57.333 9.33301 104.333 28 141l39 68c14 68 36.667 125.333 68 172c58.667 88 141.334 132 248.001 132c77.333 0 142.333 -24.333 195 -73c18.667 14.667 32.334 25.667 41.001 33c80.667 56 175 84 283 84c66 0 123 -9 171 -27l72 -27
c17.333 -2 26 -8.66699 26 -20zM1130 594l0.000976562 8c-2.66699 5.33301 -26.334 14.333 -71.001 27c-52.667 14.667 -102 22 -148 22c-79.333 0 -154.666 -18.667 -225.999 -56c-16.667 -8.66699 -46.334 -28.334 -89.001 -59.001c18 -20 34.667 -46.667 50 -80l-8 -8
c-12 30 -28.333 56.333 -49 79c-29.333 -24 -57 -70 -83 -138c26.667 -27.333 43.667 -47 51 -59c25.333 -40 38 -85 38 -135c0 -18.667 -4 -46.667 -12 -84c11.333 -10 19.666 -15 24.999 -15l101 223c28.667 62 57.334 109.667 86.001 143c34 40 78.333 72.667 133 98
c26.667 12 55 20.667 85 26c26 4.66699 65 7.33398 117 8.00098zM579.998 536c-11.333 13.333 -32.335 27.333 -63.002 42c-42 20 -83.667 30 -125 30c-100 0 -178.667 -43 -236 -129c-21.333 -31.333 -42.666 -82 -63.999 -152c24.667 38 52 66.333 82 85
c42 26.667 97 40 165 40c46.667 0 98.334 -18.667 155.001 -56c7.33301 17.333 17.333 37.333 30 60c24 43.333 42.667 70 56 80zM580.996 195c0 70.667 -26.333 130.333 -79 179c-5.33301 -36 -8 -66 -8 -90c0 -55.333 25 -109 75 -161c8 25.333 12 49.333 12 72z
M561.996 107.999c-54 55.333 -81 114 -81 176c0 22 3 55 9 99c-58 38 -108.333 57 -151 57c-77.333 0 -139.333 -19 -186 -57c-19.333 -15.333 -39 -40.333 -59 -75c0 -102 24.833 -182.167 74.5 -240.5s109.834 -87.5 180.501 -87.5c77.333 0 140.666 30.333 189.999 91
c15.333 18.667 23 31 23 37zM600.996 80.999c-6 6 -14.6689 12 -26.002 18c-55.333 -87.333 -130.666 -131 -225.999 -131c-82.667 0 -150 35 -202 105c-44.667 60 -67 126 -67 198c0 7.33301 0.666992 17 2 29c-40.667 -63.333 -61 -128.333 -61 -195
c0 -82.667 27.833 -152.5 83.5 -209.5s124.834 -85.5 207.501 -85.5c64 0 125.333 32.333 184 97c47.333 52.667 82.333 110.667 105 174z" />
    <glyph glyph-name="K" unicode="K" horiz-adv-x="1052" 
d="M1149 686c-32 12.667 -55.665 19 -70.998 19c-68 0 -121.333 -36 -160 -108c-6.66699 -12.667 -21.667 -47 -45 -103c-17.333 -42 -31.333 -70 -42 -84c-26.667 -35.333 -72.667 -53 -138 -53c-28 0 -59 3 -93 9l-5 -18c40 0 74.667 -7.66699 104 -23
c36 -18.667 54 -46.334 54 -83.001c0 -12 -0.666992 -34.333 -2 -67c-1.33301 -27.333 -1.66602 -49.333 -0.999023 -66c0.666992 -19.333 2.66699 -32.666 6 -39.999c22.667 -50.667 50.667 -76 84 -76s63.333 16 90 48s40 65 40 99c0 28 -8.66699 50 -26 66s-41 24 -71 24
v1c0 6 4.33301 9 13 9c29.333 0 53 -9.33301 71 -28s27 -42.667 27 -72c0 -44.667 -17.833 -83.334 -53.5 -116.001s-75.834 -49 -120.501 -49c-36.667 0 -68.334 10 -95.001 30c-28.667 21.333 -44 49.666 -46 84.999l-11 178c-0.666992 14.667 -7.83398 30 -21.501 46
s-27.834 24 -42.501 24c-6 -23.333 -14.333 -50 -25 -80c-21.333 -60 -46.666 -109 -75.999 -147c-67.333 -88.667 -152.333 -133 -255 -133c-66 0 -122.333 21.333 -169 64s-70 96.667 -70 162c0 69.333 16.333 125.666 49 168.999c25.333 34 56.666 58.667 93.999 74
c6.66699 2.66699 25.667 9 57 19c-1.33301 12 -2 21 -2 27c0 71.333 28.333 132.333 85 183c54 48.667 117.333 73 190 73c40 0 76 -9.66699 108 -29c10.667 -6.66699 61.334 -43.667 152.001 -111c32.667 12 59.667 17.667 81 17c23.333 -0.666992 35 -9.66699 35 -27
c0 -21.333 -11.667 -31.666 -35 -30.999c-18.667 0.666992 -48.334 9.33398 -89.001 26.001c-58 -30.667 -98.333 -101.667 -121 -213c45.333 1.33301 82 8.83301 110 22.5s54.333 36.834 79 69.501l108 145c24 32 49 55.333 75 70c30 17.333 64.333 26 103 26
c22.667 0 46.334 -7 71.001 -21v-7zM837.002 599c0 10 -8.66699 14.667 -26 14c-16.667 -0.666992 -38.667 -5 -66 -13c13.333 -4.66699 35.333 -10.667 66 -18c17.333 0 26 5.66699 26 17zM407.002 391c-40 46.667 -91.335 69.999 -154.002 69.999
c-12 0 -25.333 -1.66699 -40 -5c6.66699 -21.333 20.834 -40.166 42.501 -56.499s43.834 -24.5 66.501 -24.5c32.667 0 61 5.33301 85 16zM717 602.999c-29.333 24 -71.498 46.001 -126.498 66.001s-101.5 30 -139.5 30c-60 0 -114.333 -18.667 -163 -56
c-52.667 -40 -79 -89.333 -79 -148c0 -5.33301 0.666992 -14 2 -26c13.333 2.66699 27.666 4 42.999 4c64.667 0 119.334 -25.333 164.001 -76c32.667 20 62 45.333 88 76l7 -8c-20.667 -22 -33.667 -35.333 -39 -40c-17.333 -16 -33.666 -28.333 -48.999 -37
c15.333 -27.333 23 -62 23 -104c0 -67.333 -25 -120 -75 -158c-40 -30.667 -83 -46 -129 -46c-28.667 0 -52 10 -70 30s-27 46 -27 78c0 30.667 9.33301 59.5 28 86.5s43.667 47.167 75 60.5l2 -9c-62 -30 -93 -76 -93 -138c0 -30 7.66699 -53.5 23 -70.5s36 -25.5 62 -25.5
c54 0 99.5 18.5 136.5 55.5s55.5 82.5 55.5 136.5c0 45.333 -7.33301 77.666 -22 96.999c0 -4.66699 -12.667 -9 -38 -13c-20.667 -3.33301 -38.334 -5 -53.001 -5c-25.333 0 -50.166 9 -74.499 27s-39.833 39 -46.5 63c-12 -3.33301 -29.667 -8.66602 -53 -15.999
c-92.667 -39.333 -139 -117 -139 -233c0 -60.667 22.667 -111.5 68 -152.5s98.666 -61.5 159.999 -61.5c62 0 113 28.667 153 86c38 54.667 76 152 114 292c11.333 41.333 39.666 86.666 84.999 135.999c43.333 46.667 85.666 79.667 126.999 99z" />
    <glyph glyph-name="L" unicode="L" horiz-adv-x="978" 
d="M910 217c0 -78 -37.667 -143.668 -113 -197.001c-67.333 -47.333 -141.666 -71 -222.999 -71c-48 0 -95 8 -141 24c-32 10.667 -76 30.334 -132 59.001c-34.667 -20 -59.667 -33 -75 -39c-27.333 -11.333 -54.333 -17 -81 -17c-34.667 0 -65 6 -91 18
c-33.333 16 -50 39.333 -50 70c0 22 11.833 40.667 35.5 56s51.5 23 83.5 23c40.667 0 95.667 -18.333 165 -55c10 17.333 27.333 49.666 52 96.999c13.333 27.333 29.333 75 48 143c-42 -16 -75 -24 -99 -24c-60 0 -109.333 22.333 -148 67
c-37.333 42.667 -56 94.334 -56 155.001c0 78 28.667 141.667 86 191c54.667 47.333 121.667 71 201 71c37.333 0 66.333 -6 87 -18c-51.333 5.33301 -80.333 8 -87 8c-76 0 -140.333 -22.667 -193 -68c-56 -48 -84 -109.333 -84 -184c0 -56.667 18 -105.667 54 -147
c37.333 -43.333 84 -65 140 -65c34.667 0 69 10 103 30c20.667 86.667 41 150.667 61 192c9.33301 18.667 29.333 48.667 60 90c18.667 24.667 40.667 46.667 66 66c31.333 24 59.333 36 84 36c52.667 0 79 -23.333 79 -70c0 -64.667 -27 -125 -81 -181
c-44.667 -47.333 -101 -85 -169 -113c-10.667 -65.333 -26 -118.666 -46 -159.999c-16.667 -34.667 -47.334 -81.334 -92.001 -140.001c90.667 -31.333 173.667 -47 249 -47c92 0 163.5 17.833 214.5 53.5s76.5 84.5 76.5 146.5c0 46 -25.667 88 -77 126l6 11
c58 -34 87 -79.667 87 -137zM729 657.999c0 40 -21.999 60.001 -65.999 60.001c-52 0 -95.333 -45.333 -130 -136c-28 -72 -42 -139 -42 -201c51.333 19.333 102.666 56.666 153.999 111.999c56 60.667 84 115.667 84 165zM271.001 55c-74 48 -130.333 71.999 -169 71.999
c-18 0 -36.333 -5.66699 -55 -17c-20 -13.333 -30 -28.666 -30 -45.999c0 -20 10.5 -37.167 31.5 -51.5s46.167 -21.5 75.5 -21.5c22.667 0 48.167 6.16699 76.5 18.5s51.833 27.5 70.5 45.5z" />
    <glyph glyph-name="M" unicode="M" horiz-adv-x="1121" 
d="M1460 658l-1.00098 -11c-55.333 -4 -105 -13.667 -149 -29c-32.667 -11.333 -74.667 -32 -126 -62c-28 -16.667 -59.333 -52.667 -94 -108c-37.333 -60 -73.333 -126.333 -108 -199c-45.333 -96 -68 -164.333 -68 -205c0 -31.333 10.667 -47 32 -47c18 0 38 15.333 60 46
c14 19.333 23.333 35.666 28 48.999c0.666992 0 4.33398 0.666992 11.001 2c-34.667 -74.667 -72.334 -112 -113.001 -112c-24.667 0 -44.334 9.33301 -59.001 28s-22 43 -22 73c0 81.333 70.667 211.333 212 390c-64 -49.333 -120.667 -104.333 -170 -165
c-31.333 -38.667 -78.333 -103.334 -141 -194.001c-49.333 -71.333 -83.666 -118 -102.999 -140c-3.33301 5.33301 -5 9.66602 -5 12.999c10 25.333 18.667 48.333 26 69c4.66699 13.333 7 35.333 7 66c0 108 4 184 12 228c7.33301 39.333 25.333 89.333 54 150
c-37.333 -39.333 -77.666 -105.666 -120.999 -198.999l-93 -200c-18 -37.333 -54.333 -68.333 -109 -93c-48 -21.333 -95.333 -32 -142 -32c-71.333 0 -134.666 21.667 -189.999 65c-60.667 46.667 -91 104.667 -91 174c0 72 23.333 133.333 70 184s102 76 166 76
c52 0 97.5 -16.333 136.5 -49s58.5 -74.334 58.5 -125.001c0 -47.333 -17.833 -90.666 -53.5 -129.999s-76.834 -59 -123.501 -59c-37.333 0 -66.666 12.5 -87.999 37.5s-32 57.833 -32 98.5c0 20 6.66699 49 20 87l12 -3c-14 -34 -21 -62 -21 -84
c0 -37.333 10 -67.5 30 -90.5s46.333 -34.5 79 -34.5c43.333 0 81.833 18.667 115.5 56s50.5 78 50.5 122c0 47.333 -18.5 86.333 -55.5 117s-79.833 46 -128.5 46c-64 0 -118.333 -25.667 -163 -77c-42 -49.333 -63 -106.666 -63 -171.999c0 -54 22.333 -103.333 67 -148
c53.333 -53.333 121.333 -80 204 -80c95.333 0 181.333 69.667 258 209c74.667 134.667 125.667 223 153 265c45.333 68.667 88.333 115.334 129 140.001c-102 34.667 -164.333 52 -187 52c-60 0 -108.667 -11.667 -146 -35c-44.667 -28 -67 -69.667 -67 -125
c0 -32 9.33301 -59.333 28 -82s41.667 -34 69 -34c20 0 37 7 51 21h6c-20.667 -30.667 -44 -46 -70 -46c-33.333 0 -61 12 -83 36s-33 54 -33 90c0 64.667 25.667 112.667 77 144c42.667 26 98.667 39 168 39c20.667 0 86 -18 196 -54c14 8 27 12 39 12c14 0 21 -5 21 -15
c0 -11.333 -7.66699 -17 -23 -17c-6.66699 0 -13.334 1.66699 -20.001 5c-26.667 -36 -44.334 -90 -53.001 -162c-2 -18.667 -3 -44 -3 -76c0.666992 -38 0.666992 -63.333 0 -76c-2.66699 -20.667 -15.667 -65.667 -39 -135c137.333 199.333 279.333 340.333 426 423
c60 34 101.333 55 124 63c42.667 15.333 96.334 25 161.001 29z" />
    <glyph glyph-name="N" unicode="N" horiz-adv-x="1041" 
d="M1355 684c0 -18.667 -10.1641 -34.3311 -30.4971 -46.998s-46.166 -19 -77.499 -19c-30 0 -61 5.66699 -93 17c-10 -16 -23.667 -40 -41 -72l-91 -179c-32.667 -63.333 -77.667 -141.333 -135 -234l-72 -115c-20.667 -30.667 -34.334 -46 -41.001 -46
c-8.66699 0 -13 3.66699 -13 11c2 4.66699 8.33301 20.667 19 48c13.333 35.333 20 63.333 20 84c0 21.333 -2.66699 58 -8 110c-5.33301 50 -7.66602 89.333 -6.99902 118c0.666992 36.667 5.66699 86.667 15 150l-159 -315c-49.333 -94.667 -103 -165.5 -161 -212.5
s-123.333 -70.5 -196 -70.5c-82 0 -149 21.667 -201 65c-55.333 46.667 -83 110 -83 190c0 89.333 32 166.166 96 230.499s140.667 96.5 230 96.5c19.333 0 41.666 -1.66699 66.999 -5c3.33301 46.667 20.666 93.167 51.999 139.5s67.666 78.666 108.999 96.999
s107.666 27.5 198.999 27.5c49.333 0 126 -16 230 -48c80 -24.667 135 -44 165 -58c49.333 54 96.333 81 141 81c44 0 66 -14.667 66 -44zM1346 684.003c0 9.33301 -6 17.5 -18 24.5s-25 10.5 -39 10.5c-46.667 0 -89.667 -25 -129 -75c40 -10 69 -15 87 -15
c28 0 51.5 5.16699 70.5 15.5s28.5 23.5 28.5 39.5zM1143 638.003c-191.333 70.667 -321.333 106 -390 106c-56.667 0 -118.667 -16 -186 -48c-86 -41.333 -138 -112.333 -156 -213c39.333 -17.333 68.333 -38.333 87 -63c17.333 -21.333 32 -54.333 44 -99
c92 11.333 138 58.333 138 141c0 18 -5.66699 42 -17 72l9 2c12 -32.667 18 -57.334 18 -74.001c0 -89.333 -48.667 -140.666 -146 -153.999c0 -72.667 -17.667 -134.667 -53 -186c-24 -35.333 -56.5 -64.5 -97.5 -87.5s-82.167 -34.5 -123.5 -34.5
c-46 0 -83.167 15.333 -111.5 46s-42.5 69 -42.5 115c0 56.667 19 108 57 154c40.667 48 88.667 72 144 72c37.333 0 69.333 -12.833 96 -38.5s40 -56.834 40 -93.501c0 -22 -7.33301 -47.333 -22 -76c-6.66699 -1.33301 -10.334 -2 -11.001 -2c15.333 34 23 60 23 78
c0 33.333 -12.667 62.166 -38 86.499s-54.666 36.5 -87.999 36.5c-52.667 0 -97.667 -22.833 -135 -68.5s-56 -95.167 -56 -148.5c0 -43.333 13.333 -79.666 40 -108.999s61.334 -44 104.001 -44c38 0 77.333 11.667 118 35s72.334 51 95.001 83
c34.667 49.333 52 110.333 52 183c-41.333 6 -75.333 25 -102 57s-40 69.667 -40 113c-28 4.66699 -50.333 7 -67 7c-88.667 0 -163.834 -31 -225.501 -93s-92.5 -137.333 -92.5 -226c0 -77.333 27 -138.666 81 -183.999c50.667 -42 115.667 -63 195 -63
c136.667 0 252 91.667 346 275l158 315c23.333 44.667 73.333 100.667 150 168c-56 18 -100 27 -132 27c-48.667 0 -102.334 -12 -161.001 -36c-72 -28.667 -108 -64 -108 -106c0 -16 10.667 -30.667 32 -44l-2 -9c-26.667 12 -40 29.667 -40 53c0 46 36.667 84.333 110 115
c58.667 24 115 36 169 36c40.667 0 92 -10.333 154 -31c-40 -32.667 -67 -58.334 -81 -77.001c-22.667 -30.667 -34 -65 -34 -103c0 -4 6.66699 -47 20 -129l20 -125c0 -28 -11.333 -74 -34 -138c62.667 99.333 110 179.333 142 240l111 219
c11.333 22.667 24.333 45.334 39 68.001zM533.003 321.003c-13.333 44 -26 74.334 -38 91.001c-18 25.333 -46 45.666 -84 60.999c0 -43.333 14.333 -79 43 -107c24.667 -24 51 -39 79 -45z" />
    <glyph glyph-name="O" unicode="O" horiz-adv-x="600" 
d="M570 476c0 -31.333 -9.00195 -74.002 -27.002 -128.002c-16.667 -50 -34 -90.667 -52 -122c-43.333 -75.333 -95.666 -135.666 -156.999 -180.999s-120 -68 -176 -68c-48.667 0 -87.667 18.333 -117 55c-27.333 34 -41 76 -41 126c0 64.667 22 135 66 211
c38 65.333 84.667 123.333 140 174c61.333 56 118.666 87.667 171.999 95h42c-44.667 -22 -79 -42.833 -103 -62.5s-50 -49.167 -78 -88.5c-110 -153.333 -165 -288.333 -165 -405c0 -29.333 8 -53.166 24 -71.499s36 -27.5 60 -27.5c38 0 78.833 20.333 122.5 61
s85.834 97.667 126.501 171c72 130.667 108 235.667 108 315c0 54 -18.667 81 -56 81c-52 0 -102 -33.667 -150 -101c-44.667 -62.667 -67 -121.334 -67 -176.001c0 -23.333 5.83301 -41.666 17.5 -54.999s26.834 -20 45.501 -20c42.667 0 80.667 24.667 114 74
c28.667 42 43 79.667 43 113c0 16 -3.83301 29.833 -11.5 41.5s-16.167 17.5 -25.5 17.5c-17.333 0 -36.666 -12 -57.999 -36l-7 7c26 26 47.667 39 65 39c13.333 0 24.666 -7 33.999 -21s14 -30 14 -48c0 -45.333 -16.333 -89 -49 -131c-35.333 -44.667 -75 -67 -119 -67
c-22 0 -39.833 7.83301 -53.5 23.5s-20.5 36.5 -20.5 62.5c0 57.333 23.333 118.333 70 183c50 68.667 102.667 103 158 103c32 0 59 -16.333 81 -49c20 -30 30 -61.667 30 -95z" />
    <glyph glyph-name="P" unicode="P" horiz-adv-x="1046" 
d="M1259 630l-2 -6c-50 20.667 -102.333 31 -157 31c-45.333 0 -92 -11.333 -140 -34c20 -20.667 43.667 -47.667 71 -81c16.667 -29.333 25 -57.333 25 -84c0 -59.333 -26.667 -107.666 -80 -144.999c-47.333 -33.333 -102 -50 -164 -50c-28 0 -51.667 1 -71 3
c-31.333 -102 -93 -179.333 -185 -232c-75.333 -43.333 -156.666 -65 -243.999 -65c-91.333 0 -165.333 24 -222 72c-60 51.333 -90 121.666 -90 210.999c0 97.333 35.167 182.5 105.5 255.5s154.166 109.5 251.499 109.5c37.333 0 75 -8.33301 113 -25
c60 62.667 143 94 249 94c86.667 0 160.667 -17.667 222 -53c60 21.333 113 32 159 32c57.333 0 110.333 -11 159 -33zM984 487c0 57.333 -15.333 97.333 -46 120c-59.333 -34.667 -100 -81 -122 -139l-69 -182c9.33301 -0.666992 22 -1 38 -1c54 0 100.667 20.167 140 60.5
s59 87.5 59 141.5zM612 318c0 25.333 -1.33203 48.332 -3.99902 68.999c-5.33301 38.667 -13 67 -23 85c-28 48.667 -65.333 83.334 -112 104.001c-32.667 -51.333 -49 -93.333 -49 -126c0 -40 12.833 -74.333 38.5 -103s58.167 -43 97.5 -43
c17.333 0 34.666 4.66699 51.999 14zM917.001 620.999c-46.667 36.667 -112.665 54.998 -197.998 54.998c-99.333 0 -179.333 -30.333 -240 -91c29.333 -14.667 50.666 -27.667 63.999 -39c54 -46 81 -119.667 81 -221c7.33301 7.33301 19 23.333 35 48l3 -15
c-7.33301 -11.333 -20 -27 -38 -47c-50.667 -156.667 -144 -235 -280 -235c-70 0 -128 21.333 -174 64c-48 43.333 -72 99.666 -72 168.999c0 24 6 48 18 72l10 3c-12 -36 -18 -61 -18 -75c0 -64.667 23 -118.167 69 -160.5s101.667 -63.5 167 -63.5
c88 0 158.333 35.667 211 107c26.667 36 45 73.667 55 113c-16 -6.66699 -32.667 -10 -50 -10c-43.333 0 -78.666 14.833 -105.999 44.5s-41 66.5 -41 110.5c0 38.667 17 82.334 51 131.001c-40 17.333 -75.667 26 -107 26c-93.333 0 -174.833 -36.167 -244.5 -108.5
s-104.5 -155.166 -104.5 -248.499c0 -80 25 -144.333 75 -193s116 -73 198 -73c95.333 0 181.333 38.667 258 116c15.333 15.333 44.666 68.333 87.999 159l69 144c26 40.667 49.333 72.667 70 96c43.333 48.667 93.666 89.334 150.999 122.001z" />
    <glyph glyph-name="Q" unicode="Q" horiz-adv-x="664" 
d="M640 497c0 -75.333 -39.3359 -156.661 -118.003 -243.994c-57.333 -64 -132 -127.667 -224 -191c72 -25.333 125.667 -38 161 -38c20 0 37.167 6.66699 51.5 20s21.5 29.666 21.5 48.999c0 18.667 -4.66699 32.667 -14 42c-2 2 -10.333 7.33301 -25 16l2 13
c32 -14.667 48 -38.334 48 -71.001c0 -33.333 -12.333 -59.833 -37 -79.5s-58 -29.834 -100 -30.501s-80.667 5.66602 -116 18.999c-13.333 6.66699 -34 16 -62 28c-52.667 -30.667 -103.334 -46 -152.001 -46c-17.333 0 -33.666 4.83301 -48.999 14.5
s-23 22.834 -23 39.501c0 21.333 11.5 39.333 34.5 54s51.167 22 84.5 22c24.667 0 50.834 -4.16699 78.501 -12.5s44.834 -13.166 51.501 -14.499c24 21.333 50 46 78 74c60 60 108.667 116 146 168c14 14 32 47.333 54 100c24 57.333 36 104.333 36 141
c0 29.333 -10.333 53.166 -31 71.499s-47 27.5 -79 27.5c-40 0 -75.167 -10.833 -105.5 -32.5s-61.166 -57.834 -92.499 -108.501c-23.333 -38 -35 -72 -35 -102c0 -18.667 5.33301 -36.334 16 -53.001c12.667 -18.667 28 -28 46 -28c34.667 0 66 22 94 66
c25.333 39.333 38 77.333 38 114c0 32 -13.333 48 -40 48c-26 0 -49.833 -14.333 -71.5 -43s-35.834 -65.334 -42.501 -110.001c-4 4 -6.66699 9.66699 -8 17c23.333 98 64 147 122 147c15.333 0 27.333 -5.66699 36 -17s13 -25.333 13 -42
c0 -40.667 -13.333 -81.334 -40 -122.001c-29.333 -45.333 -63 -68 -101 -68c-27.333 0 -49.166 9.83301 -65.499 29.5s-24.5 45.167 -24.5 76.5c0 58 29.333 112.333 88 163c56.667 48.667 114.334 73 173.001 73c47.333 0 89.666 -18.167 126.999 -54.5
s56 -78.166 56 -125.499zM206.997 45.0049c-64 23.333 -110.667 34.999 -140 34.999c-12.667 0 -24.167 -4.16699 -34.5 -12.5s-15.5 -18.166 -15.5 -29.499c0 -12.667 6.16699 -23.667 18.5 -33s25.833 -14 40.5 -14c43.333 0 87 18 131 54z" />
    <glyph glyph-name="R" unicode="R" horiz-adv-x="1139" 
d="M1234 668l-2.00098 -6.00391c-40.667 18 -85.667 27 -135 27c-58 0 -109.333 -12.333 -154 -37c22 -18 48.333 -42.333 79 -73c18 -26 27 -53.667 27 -83c0 -52.667 -21.167 -96.167 -63.5 -130.5s-101.833 -56.833 -178.5 -67.5c26 -26 42.667 -45 50 -57
c11.333 -19.333 17 -43.666 17 -72.999v-92c0 -25.333 8 -46 24 -62s36 -24 60 -24c26 0 48.167 8.83301 66.5 26.5s27.5 38.5 27.5 62.5c0 25.333 -12 58.333 -36 99l8 6c26.667 -37.333 40 -72.333 40 -105c0 -30 -11.667 -54.667 -35 -74s-54 -29 -92 -29
c-38.667 0 -73 10.667 -103 32c-32.667 24 -49 54.667 -49 92c0 14.667 1.33301 36.834 4 66.501s4 51.834 4 66.501c0 26 -14.667 48.667 -44 68l-61 -137c-25.333 -59.333 -80.666 -106.666 -165.999 -141.999c-72.667 -30.667 -146 -46 -220 -46
c-88 0 -160.333 25.833 -217 77.5s-85 121.167 -85 208.5c-0 95.333 34.833 179.833 104.5 253.5s152.167 110.5 247.5 110.5c33.333 0 69.333 -6 108 -18c57.333 67.333 146.666 101 267.999 101c77.333 0 142.333 -16 195 -48c2 1.33301 10 4.83301 24 10.5
s33 11.167 57 16.5c30 6.66699 61 10 93 10c44.667 0 90.334 -10 137.001 -30zM975.999 510.996c0 62.667 -17.666 106.668 -52.999 132.001c-47.333 -27.333 -88.333 -82.333 -123 -165c-16.667 -40.667 -32.334 -94.334 -47.001 -161.001c10.667 -1.33301 18.667 -2 24 -2
c53.333 0 99.833 19.333 139.5 58s59.5 84.667 59.5 138zM605 333.997c3.33301 13.333 5.00098 27.333 5.00098 42c0 36 -9 71 -27 105c-24.667 46.667 -65.334 84 -122.001 112c-29.333 -45.333 -44 -87.333 -44 -126c0 -99.333 37 -149 111 -149
c26 0 51.667 5.33301 77 16zM907.001 651.997c-43.333 32.667 -103.001 49 -179.001 49c-116 0 -202.333 -32.333 -259 -97c29.333 -17.333 51 -32 65 -44c58.667 -50 88 -112.667 88 -188c0 -12 -1 -22.667 -3 -32c22 16.667 34.667 35.334 38 56.001l5 -14
c-5.33301 -23.333 -20.333 -42 -45 -56c-14.667 -74.667 -47 -136.334 -97 -185.001c-53.333 -52.667 -116.666 -79 -189.999 -79c-117.333 0 -199.666 60.667 -246.999 182c0 -5.33301 4.66699 -8 14 -8c48 -110 125.667 -165 233 -165c71.333 0 132 24.667 182 74
c45.333 45.333 76.333 104.333 93 177c-22 -10.667 -47.667 -16 -77 -16c-81.333 0 -122 53.667 -122 161c0 52.667 15.333 96.667 46 132c-38 13.333 -71.333 20 -100 20c-91.333 0 -171.5 -36.5 -240.5 -109.5s-103.5 -155.5 -103.5 -247.5c0 -86 27.667 -153.333 83 -202
c53.333 -46.667 123.666 -70 210.999 -70c131.333 0 225 61 281 183l109 252c42 94 113.667 169.667 215 227z" />
    <glyph glyph-name="S" unicode="S" horiz-adv-x="710" 
d="M696 616c0 -28.667 -20.002 -67.0029 -60.002 -115.003c-36 -43.333 -56.667 -65 -62 -65c16 -100.667 24 -169 24 -205c0 -67.333 -25 -124.333 -75 -171s-109 -70 -177 -70c-62 0 -114.667 21.167 -158 63.5s-65 94.5 -65 156.5c0 60 23 118.333 69 175
c-12 15.333 -21.667 36 -29 62c-34 -17.333 -63.333 -42.666 -88 -75.999c-41.333 -55.333 -62 -121.666 -62 -198.999c0 -87.333 31 -162.5 93 -225.5s136.667 -94.5 224 -94.5c76 0 149 29 219 87v-8c-62 -60 -135 -90 -219 -90c-89.333 0 -166.333 32.667 -231 98
s-97 143 -97 233c0 82 22.667 151.667 68 209c20 25.333 50.333 51.333 91 78c0 70.667 34 131.334 102 182.001c62.667 46.667 132.334 70 209.001 70c66.667 0 113.667 -17.667 141 -53c8.66699 8 24.334 12 47.001 12c24 -4 36 -22 36 -54zM609.998 641.997
c-26 -32.667 -39 -66.334 -39 -101.001c10.667 1.33301 21 9.5 31 24.5s15 30.833 15 47.5c0 10.667 -2.33301 20.334 -7 29.001zM668.998 623.997c0 22.667 -8.66699 34.001 -26 34.001c-3.33301 0 -7.83301 -1.66699 -13.5 -5s-9.16699 -5 -10.5 -5
c6.66699 -10.667 10 -23 10 -37c0 -18.667 -6 -36.334 -18 -53.001s-25.333 -26.667 -40 -30l2 -75c64 59.333 96 116.333 96 171zM603.998 653.998c-28.667 32.667 -72.667 48.999 -132 48.999c-63.333 0 -126 -20.333 -188 -61c-72.667 -48 -110 -108 -112 -180
c14 10 29 18.667 45 26c38 18 83 30.333 135 37c68.667 8.66699 134.667 13 198 13c0 20.667 4.66699 42.334 14 65.001c10.667 26 24 43 40 51zM548.998 527.997c-63.333 -1.33301 -127.33 -5.33301 -191.997 -12c-50.667 -5.33301 -95.334 -17.333 -134.001 -36l-50 -28
c7.33301 -26 16.666 -45.667 27.999 -59c40 32 84 48 132 48c28 0 51 -4.66699 69 -14c15.333 -8 33.666 -23.333 54.999 -46c23.333 10 52.333 27 87 51zM445.001 374.997c-28.667 38 -65.999 57 -111.999 57c-51.333 0 -93 -16 -125 -48c23.333 -27.333 64 -41 122 -41
c37.333 0 75.666 10.667 114.999 32zM543.002 368.997l0.000976562 48.001c-17.333 -12 -44 -27.667 -80 -47c13.333 -25.333 20 -53.666 20 -84.999c0 -30.667 -15 -58.334 -45 -83.001s-60.667 -37 -92 -37c-21.333 0 -39.333 6.83301 -54 20.5s-22 30.167 -22 49.5
s6.16699 35.666 18.5 48.999s27.166 20 44.499 20c15.333 0 30.333 -12.333 45 -37c-37.333 -3.33301 -56 -15.333 -56 -36c0 -28 15 -42 45 -42c28 0 52 11.5 72 34.5s30 48.833 30 77.5c0 20.667 -5.33301 41.667 -16 63c-44 -20.667 -85 -31 -123 -31
c-63.333 0 -107.333 14.333 -132 43c-44 -54.667 -65.667 -110 -65 -166c0.666992 -37.333 13.334 -75.333 38.001 -114c33.333 -52 78.666 -78 135.999 -78c71.333 0 130.333 42.667 177 128c39.333 72 59 146.333 59 223z" />
    <glyph glyph-name="T" unicode="T" horiz-adv-x="990" 
d="M1416 603c-2 -2 -4.33301 -4.49902 -7 -7.49902s-4.66699 -5.16699 -6 -6.5c-31.333 -6.66699 -59.333 -10 -84 -10c-40 0 -113.5 20.5 -220.5 61.5s-186.833 61.5 -239.5 61.5c-63.333 0 -119 -6 -167 -18c19.333 -23.333 39.666 -56.666 60.999 -99.999
c31.333 -64 47 -120.667 47 -170c0 -39.333 -10.667 -75.333 -32 -108c-3.33301 -5.33301 -17 -21 -41 -47c-22 -90.667 -69.667 -167.667 -143 -231l-8 6c37.333 40 61.666 68.333 72.999 85c26.667 38 46.334 80.333 59.001 127c-12 -4 -27 -6 -45 -6
c-51.333 0 -92.666 20.667 -123.999 62c-28 37.333 -42 82.666 -42 135.999c0 45.333 17 93.333 51 144c-52.667 16 -86.334 24 -101.001 24c-96.667 0 -177.5 -33.5 -242.5 -100.5s-97.5 -149.167 -97.5 -246.5c0 -92.667 33.5 -172.5 100.5 -239.5
s146.833 -100.5 239.5 -100.5c68.667 0 132.334 21.333 191.001 64s100 98.667 124 168l93 283c19.333 57.333 56 100.666 110 129.999c38 21.333 96 35.333 174 42l-2 -11c-118 -15.333 -185 -60.666 -201 -135.999c-8 -39.333 -25 -111.333 -51 -216
c-30.667 -108.667 -88.334 -193 -173.001 -253c-75.333 -53.333 -163.666 -80 -264.999 -80c-98 0 -180.667 33.667 -248 101s-101 150 -101 248c0 101.333 32.833 186.5 98.5 255.5s149.167 103.5 250.5 103.5c22.667 0 58.334 -8 107.001 -24
c45.333 59.333 80.666 94.666 105.999 105.999c-64 72 -147.333 108 -250 108c-78.667 0 -149.334 -22.333 -212.001 -67c-58 -40.667 -105.333 -98 -142 -172c-27.333 -54 -42.333 -100.667 -45 -140l-9 1c4.66699 86 40.334 168 107.001 246
c80.667 94.667 181 142 301 142c109.333 0 198 -37.333 266 -112c68 31.333 129 47 183 47c57.333 0 116 -14 176 -42l151 -77c56 -28 105.667 -42 149 -42c18.667 0 45.667 3.66699 81 11zM786 414.001c0 50.667 -17.333 108.668 -52 174.001
c-25.333 48 -44.333 78.333 -57 91c-40 -23.333 -75.667 -54 -107 -92c54.667 -28.667 94.667 -62.334 120 -101.001c27.333 -42.667 41 -96.667 41 -162c0 -8.66699 -0.666992 -23.667 -2 -45c38 35.333 57 80.333 57 135zM712 263.002c2.66699 18.667 4 38.668 4 60.001
c0 115.333 -50.667 199.666 -152 252.999c-10 -11.333 -21 -30.333 -33 -57c-14 -32 -21 -58 -21 -78c0 -49.333 13 -92 39 -128c28.667 -40.667 66.667 -61 114 -61c14.667 0 31 3.66699 49 11z" />
    <glyph glyph-name="U" unicode="U" horiz-adv-x="865" 
d="M1543 423c0 -38 -22.668 -69.3311 -68.001 -93.998c-25.333 -14 -53 -21 -83 -21c-134.667 0 -267 69 -397 207c-108 -87.333 -189.667 -177.333 -245 -270c-74 -124.667 -111 -201.334 -111 -230.001c0 -10.667 5 -16 15 -16c37.333 0 74.333 23 111 69v-18
c-34.667 -46 -76.667 -69 -126 -69c-39.333 0 -59 32.667 -59 98c-54 -65.333 -101.333 -98 -142 -98c-24 0 -44 12 -60 36c-14.667 21.333 -22 44.666 -22 69.999c0 42 17 88.333 51 139l96 133c34 48 51 84 51 108c0 50 -16.333 89.167 -49 117.5s-77 42.5 -133 42.5
c-106 0 -194.333 -32.333 -265 -97c-62 -56.667 -93 -118.334 -93 -185.001c0 -42.667 15.167 -79 45.5 -109s67.166 -45 110.499 -45c62.667 0 117 13 163 39l3 -6c-42.667 -28 -98 -42 -166 -42c-46 0 -85 15.667 -117 47s-48 70 -48 116
c0 68.667 31.333 132.334 94 191.001c71.333 66.667 162.333 100 273 100c71.333 0 127.666 -20.167 168.999 -60.5s62 -95.833 62 -166.5c0 -27.333 -5.66699 -51.666 -17 -72.999c-4.66699 -8.66699 -20.667 -31.334 -48 -68.001l-89 -120c-32 -45.333 -48 -82 -48 -110
c0 -30.667 12.333 -46 37 -46c44.667 0 91.334 36.667 140.001 110l71 116c35.333 56 74 106.667 116 152c56.667 60.667 125.334 117 206.001 169c-90.667 64.667 -162.667 97 -216 97h-54v6h46c54.667 0 99.667 -6.66699 135 -20c32 -12 71 -35.667 117 -71
c72 27.333 121 44.333 147 51c33.333 8.66699 77.333 13 132 13c66.667 0 125.334 -15 176.001 -45c59.333 -35.333 89 -84.333 89 -147zM1533 423.002c0 59.333 -29 105.999 -87 139.999c-48 28 -104 42 -168 42c-77.333 0 -164.333 -23.667 -261 -71
c148 -144 273 -216 375 -216c32 0 62.667 9.33301 92 28c32.667 20.667 49 46.334 49 77.001z" />
    <glyph glyph-name="V" unicode="V" horiz-adv-x="597" 
d="M1186 443c0 -68.667 -22.9971 -130.666 -68.9971 -185.999c-48 -58 -105.667 -87 -173 -87c-51.333 0 -94.333 17.167 -129 51.5s-52 76.833 -52 127.5c0 74 32.667 128 98 162c16.667 8.66699 28 13 34 13v-7c-81.333 -28 -122 -84 -122 -168c0 -48 16.5 -88 49.5 -120
s73.5 -48 121.5 -48c62.667 0 117.667 28.333 165 85c45.333 54 68 113 68 177c0 61.333 -22.667 109.333 -68 144c-40.667 31.333 -92.667 47 -156 47c-68.667 0 -135.334 -23.667 -200.001 -71c-46.667 -34 -82.334 -71.333 -107.001 -112
c-38.667 -64 -75 -120.333 -109 -169c-71.333 -102 -156 -204 -254 -306c-6.66699 0 -12.667 1 -18 3l42 96c7.33301 17.333 11.333 42 12 74c0.666992 43.333 2.66699 117 6 221c8 52.667 17.333 95.334 28 128.001c17.333 53.333 42 90 74 110c-88 36.667 -157 55 -207 55
c-52.667 0 -96.667 -15.333 -132 -46c-36 -32.667 -54 -75 -54 -127c0 -27.333 9.66699 -53.666 29 -78.999c9.33301 -10 21 -23.333 35 -40c-28 7.33301 -51 22.666 -69 45.999s-27 50 -27 80c0 56 23.333 100 70 132c40.667 28 90 42 148 42c38 0 84.667 -9.33301 140 -28
l76 -26c20.667 17.333 38.667 26 54 26c10.667 0 16 -4.66699 16 -14c0 -17.333 -15.667 -26 -47 -26c-4.66699 0 -11 0.666992 -19 2c-28 -20.667 -42 -54.334 -42 -101.001c0 -25.333 4 -62.833 12 -112.5s12 -86.834 12 -111.501c0 -54.667 -36 -138.667 -108 -252
c93.333 94.667 199.666 237.667 318.999 429c34.667 56 66 96.667 94 122c60 54.667 135 82 225 82c65.333 0 120.333 -19.667 165 -59c46 -41.333 69 -94.333 69 -159zM493.003 626.001c0 4 -3.33203 6 -9.99902 6c-10.667 0 -22.334 -6.33301 -35.001 -19
c6.66699 -1.33301 11.667 -2 15 -2c20 0 30 5 30 15z" />
    <glyph glyph-name="W" unicode="W" horiz-adv-x="897" 
d="M1500 435c0 -66.667 -21.998 -127 -65.998 -181c-47.333 -58 -103.333 -87 -168 -87c-55.333 0 -102.333 17.333 -141 52s-58 79.334 -58 134.001c0 80.667 46.333 139 139 175l3 -9c-86.667 -36.667 -130 -92 -130 -166c0 -48 15.667 -88 47 -120
c34.667 -36 81.334 -54 140.001 -54c59.333 0 111.666 28.333 156.999 85c42.667 53.333 64 110.333 64 171c0 60 -19.5 108.333 -58.5 145s-88.5 55 -148.5 55c-86.667 0 -160 -24.333 -220 -73c-43.333 -35.333 -96 -100 -158 -194
c-35.333 -54 -91.666 -129.667 -168.999 -227c-86 -108.667 -137.333 -163 -154 -163c-6 0 -9 2 -9 6c0 4.66699 10.667 30 32 76c14.667 30.667 23.334 76 26.001 136c0.666992 13.333 1 83.666 1 210.999c-38 -64 -86 -135 -144 -213
c-26.667 -36 -69.334 -84.333 -128.001 -145c-46.667 -48 -75 -72 -85 -72c-7.33301 0 -11 3.66699 -11 11c30 53.333 47.333 94.333 52 123c9.33301 56.667 14 147.334 14 272.001c0 45.333 14 91.333 42 138c5.33301 9.33301 28 39.333 68 90
c-78.667 40 -146.334 60 -203.001 60c-58 0 -105.333 -15.333 -142 -46c-39.333 -32 -59 -76.333 -59 -133c0 -22 4.33301 -40.333 13 -55s25.334 -31.334 50.001 -50.001v-6c-62 24 -93 64 -93 120c0 59.333 24.667 104.666 74 135.999c42 26.667 94.333 40 157 40
c38.667 0 84.667 -10 138 -30c47.333 -18 71 -27.667 71 -29c17.333 16 31.666 24 42.999 24c16 0 24 -4.33301 24 -13c0 -7.33301 -6.33301 -13.5 -19 -18.5s-27.334 -7.5 -44.001 -7.5c-32 -32.667 -48 -58 -48 -76c0 -28 4 -69.167 12 -123.5s12 -95.166 12 -122.499
c0 -46.667 -39 -132.667 -117 -258c21.333 20 48 46.333 80 79c39.333 40 71.666 76.667 96.999 110c58.667 77.333 123.667 184.333 195 321c10.667 20.667 32.667 45.667 66 75c-26 -44.667 -39 -84.667 -39 -120c0 -23.333 3.66699 -57.833 11 -103.5
s11 -80.167 11 -103.5c0 -32.667 -7 -65.5 -21 -98.5s-40.667 -81.833 -80 -146.5l139 164c64 80 126 172.333 186 277c28 48.667 72.5 91.167 133.5 127.5s119.167 54.5 174.5 54.5c68 0 124.667 -20 170 -60c47.333 -42 71 -96.667 71 -164zM497.002 627
c0 5.33301 -3.66699 7.66699 -11 7c-11.333 -0.666992 -21.333 -7 -30 -19c27.333 0 41 4 41 12z" />
    <glyph glyph-name="X" unicode="X" horiz-adv-x="734" 
d="M950 648c-8 -2 -22.3311 -6.00391 -42.998 -12.0039c-46 -17.333 -86.667 -46.666 -122 -87.999l-184 -222c0 -23.333 -7 -64.666 -21 -123.999s-21 -103.666 -21 -132.999c0 -57.333 17.333 -86 52 -86c16.667 0 35.334 5 56.001 15c1.33301 -2 2.33301 -5 3 -9
c-20.667 -10 -40.334 -15 -59.001 -15c-70.667 0 -111.334 39.667 -122.001 119c-4.66699 38 -8.33398 69.667 -11.001 95c-70 -69.333 -120.667 -116 -152 -140c-69.333 -52.667 -131.333 -79 -186 -79c-38.667 0 -71.167 12 -97.5 36s-39.5 55.333 -39.5 94
c0 56.667 21 109 63 157c38 44.667 85.333 76.334 142 95.001c36 117.333 122.333 205.333 259 264c-15.333 14.667 -32.333 22 -51 22c-34 0 -65 -9 -93 -27c-20.667 -13.333 -50.667 -40.666 -90 -81.999l-5 6c36.667 40.667 66 68 88 82
c30.667 19.333 64.334 29 101.001 29c22 0 42.333 -8.33301 61 -25c21.333 0 35 -0.333008 41 -1c52 -14.667 85.333 -77.334 100 -188.001c107.333 110.667 192.333 178.667 255 204c31.333 12.667 53.666 19 66.999 19zM483.002 554.996c0 18 -3.33301 35 -10 51
c-58.667 -22.667 -110.667 -55.667 -156 -99c-48.667 -46 -81.667 -97.333 -99 -154c12 1.33301 21 2 27 2c44.667 0 76.667 -16.667 96 -50c48 36 85 80.333 111 133c20.667 42 31 81 31 117zM332.002 298.996c-16.667 30.667 -46.332 46 -88.999 46
c-6 0 -15 -0.666992 -27 -2c-1.33301 -6.66699 -2 -12 -2 -16c0 -36 16 -54 48 -54c19.333 0 42.666 8.66699 69.999 26zM524.004 511.996c0 36 -13.334 67.667 -40.001 95c5.33301 -18 8 -35 8 -51c0 -49.333 -13.833 -98.166 -41.5 -146.499
s-62.5 -86.166 -104.5 -113.499c3.33301 -8.66699 5 -17.667 5 -27c0 -42.667 -23 -88.334 -69 -137.001s-90.333 -73 -133 -73c-16 0 -30.333 6.33301 -43 19s-19 27 -19 43c0 34 18.667 68.667 56 104l6 -4c-35.333 -40.667 -53 -74 -53 -100
c0 -15.333 5.16699 -28 15.5 -38s22.833 -15 37.5 -15c38.667 0 80 24 124 72s66 91.667 66 131c0 4.66699 -0.666992 11 -2 19c-26 -18 -51 -27 -75 -27c-16 0 -29.5 5.66699 -40.5 17s-16.5 25.666 -16.5 42.999c0 4.66699 0.666992 10.334 2 17.001
c-53.333 -18.667 -98.333 -49 -135 -91c-40 -46 -60 -96 -60 -150c0 -34.667 13 -63 39 -85c24 -20.667 53.667 -31 89 -31c48.667 0 105.334 32.333 170.001 97c21.333 21.333 86.333 97.666 195 228.999z" />
    <glyph glyph-name="Y" unicode="Y" horiz-adv-x="1049" 
d="M1611 -95c0 -90.667 -32.332 -166.161 -96.999 -226.494s-142.667 -90.5 -234 -90.5c-163.333 0 -332.333 82.667 -507 248c-85.333 -168.667 -210.666 -253 -375.999 -253c-78 0 -147.333 18.333 -208 55c-70.667 43.333 -106 102 -106 176c0 74.667 35 134 105 178
c60 38 129.667 57 209 57c56 0 112.333 -13 169 -39c43.333 -20 84 -46.333 122 -79l77 -70c8.66699 11.333 15.667 24 21 38c11.333 27.333 27.333 94.333 48 201c-30.667 -36.667 -51.334 -60 -62.001 -70c-29.333 -28 -56 -42 -80 -42c-26.667 0 -48.167 11.333 -64.5 34
s-24.5 53 -24.5 91c0 49.333 13.333 94.666 40 135.999l75 117c26.667 41.333 40 80 40 116c0 44 -14 79.833 -42 107.5s-64 41.5 -108 41.5c-50.667 0 -105.334 -13.667 -164.001 -41c0.666992 -4.66699 1 -11.667 1 -21c0 -48.667 -13.667 -95.667 -41 -141l-8 2
c8 15.333 18.667 40.666 32 75.999c4.66699 19.333 7 46 7 80c-76 -44.667 -137 -75 -183 -91c-25.333 -8.66699 -53 -13 -83 -13c-40.667 0 -77.667 11 -111 33c-37.333 25.333 -56 57.333 -56 96c0 89.333 78 134 234 134c56.667 0 101.334 -11 134.001 -33
s57 -59 73 -111l71 26c27.333 7.33301 58.666 11 93.999 11c56.667 0 105 -20 145 -60s60 -88.333 60 -145c0 -35.333 -9 -72 -27 -110c-10.667 -22.667 -30 -55.334 -58 -98.001s-47.333 -76 -58 -100c-6.66699 -22.667 -10 -45 -10 -67c0 -39.333 14 -59 42 -59
s56 20 84 60c21.333 30.667 45.666 76 72.999 136c30.667 66.667 54 113 70 139c134.667 218 280.667 327 438 327c126 0 189 -44.667 189 -134c-6.66699 4 -10.334 6 -11.001 6c-10.667 80 -64 120 -160 120c-98.667 0 -198.334 -64.333 -299.001 -193
c-74.667 -94.667 -136 -202.667 -184 -324l-103 -246c-6 -14.667 -13 -29.334 -21 -44.001c40.667 -44.667 91.334 -87.334 152.001 -128.001c118.667 -79.333 235.334 -119 350.001 -119c88 0 163.167 29.167 225.5 87.5s93.5 131.166 93.5 218.499
c0 63.333 -22.833 120 -68.5 170s-100.167 75 -163.5 75c-45.333 0 -83.333 -11.667 -114 -35c-34 -26 -51 -61 -51 -105c0 -75.333 45.667 -119 137 -131c0 -7.33301 -3.33301 -11 -10 -11c-41.333 0 -75.166 13.333 -101.499 40s-39.5 60.667 -39.5 102
c0 48 18.333 86.333 55 115c34 27.333 75.333 41 124 41c68.667 0 127 -26.333 175 -79c46 -51.333 69 -112 69 -182zM433.001 597.006c-24.667 94.667 -90.332 142 -196.999 142c-151.333 0 -227 -42.667 -227 -128c0 -37.333 18 -67.333 54 -90
c31.333 -20 66.666 -30 105.999 -30c53.333 0 141.333 35.333 264 106zM759.003 -148.994c-56.667 55.333 -102.333 94.667 -137 118c-70.667 46.667 -145.667 70 -225 70c-76.667 0 -142.667 -17.667 -198 -53c-64.667 -42 -97 -99.333 -97 -172
c0 -58 36.333 -105 109 -141c59.333 -28.667 121.333 -43 186 -43c104 0 193.667 33.667 269 101c37.333 33.333 68.333 73.333 93 120z" />
    <glyph glyph-name="Z" unicode="Z" horiz-adv-x="676" 
d="M707 499c0 -79.333 -44.668 -163.997 -134.001 -253.997c-50 -50.667 -127.333 -113 -232 -187c26.667 -10 45.667 -28 57 -54c9.33301 -20.667 14.333 -43 15 -67l69 -16l-1 -9l-67 13c-11.333 -74 -51.666 -140.667 -120.999 -200s-141.333 -89 -216 -89
c-38 0 -70 6.66699 -96 20c-33.333 16.667 -50 42.334 -50 77.001c0 54 36 103.333 108 148c69.333 43.333 141.666 65 216.999 65c10.667 0 26.667 0.333008 48 1s37.333 1 48 1c6.66699 18 10 31.667 10 41c0 14 -4 27.333 -12 40s-16 19 -24 19
c-79.333 -40.667 -130.333 -61 -153 -61c-26 0 -39 9 -39 27c0 16 12.667 28.667 38 38c30 11.333 73.333 17.333 130 18c87.333 87.333 148.333 153.333 183 198c81.333 104.667 122 193.667 122 267c0 34.667 -10 62.667 -30 84s-46 32 -78 32
c-16.667 0 -38.5 -4.5 -65.5 -13.5s-47.833 -18.5 -62.5 -28.5c48 -26.667 72 -65.334 72 -116.001c0 -70.667 -21.333 -141.334 -64 -212.001c-48 -81.333 -105 -122 -171 -122c-33.333 0 -61 12.167 -83 36.5s-33 53.5 -33 87.5c0 88 62.333 179.667 187 275
c26.667 20.667 48.334 36 65.001 46c-8 1.33301 -14.667 2 -20 2c-25.333 0 -59 -7 -101 -21c-46 -15.333 -87.833 -43.833 -125.5 -85.5s-66.5 -92.167 -86.5 -151.5c-2 1.33301 -4.33301 2.66602 -7 3.99902c26 72.667 65 132.667 117 180c33.333 30 65.333 50 96 60
c50.667 16 87.667 24 111 24c7.33301 0 16.333 -1 27 -3c60 32.667 115 48.667 165 48c49.333 -0.666992 92 -15.334 128 -44.001c39.333 -30.667 59 -70 59 -118zM433.999 493.003c0 52.667 -25.333 89.333 -76 110c-171.333 -114 -257 -220.667 -257 -320
c0 -30 10.5 -56.667 31.5 -80s46.167 -35 75.5 -35c62 0 116.667 40 164 120c41.333 70 62 138.333 62 205zM277.999 52.002c-2.66699 1.33301 -12 1.66797 -28 1.00098c-18 -0.666992 -33.667 -2.33398 -47 -5.00098c-34 -7.33301 -51 -19 -51 -35
c0 -9.33301 6.33301 -14 19 -14c18 0 53.667 17.667 107 53zM347.999 -63.9961c-30.667 1.33301 -56.334 1.99902 -77.001 1.99902c-90.667 0 -170.667 -24 -240 -72c-62 -43.333 -93 -87.666 -93 -132.999c0 -32 17.667 -48 53 -48c70.667 0 143 24.667 217 74
c78.667 52 125.334 111 140.001 177z" />
    <glyph glyph-name="bracketleft" unicode="[" horiz-adv-x="300" 
d="M702 930l-12 -22h-110l-563 -1006h110l-12 -22h-197l586 1050h198z" />
    <glyph glyph-name="backslash" unicode="\" horiz-adv-x="237" 
d="M260 218c-52.667 -92.667 -134.668 -170.666 -246.001 -233.999l-6 11c58 36 103.667 69.333 137 100c38.667 35.333 74.334 78.666 107.001 129.999z" />
    <glyph glyph-name="bracketright" unicode="]" horiz-adv-x="300" 
d="M601 930l-587 -1050h-197l12 22h110l562 1006h-110l12 22h198z" />
    <glyph glyph-name="asciicircum" unicode="^" horiz-adv-x="265" 
d="M299 493l-114 38l-114 -38v40l114 37l114 -37v-40z" />
    <glyph glyph-name="underscore" unicode="_" horiz-adv-x="500" 
d="M503 -124h-512v50h512v-50z" />
    <glyph glyph-name="grave" unicode="`" horiz-adv-x="300" 
d="M222 365h-26l-100 75c-14 13.333 -21 26.666 -21 39.999c0 10.667 4 20.334 12 29.001s18.333 13 31 13c14.667 0 28 -7.66699 40 -23z" />
    <glyph glyph-name="a" unicode="a" horiz-adv-x="426" 
d="M449 218c-126.667 -154.667 -214.332 -232.002 -262.999 -232.002c-32.667 0 -58 19.333 -76 58c-28.667 -38.667 -60.334 -58 -95.001 -58c-44.667 0 -67 32.667 -67 98c0 50 20.667 97.333 62 142c45.333 49.333 99 74 161 74c23.333 0 40.333 -8 51 -24
c8 10 15 15 21 15c2.66699 0 9.66699 -1 21 -3s18.333 -3 21 -3s8.16699 4.33301 16.5 13s13.833 13.334 16.5 14.001l-131 -246c-11.333 -21.333 -17 -36.666 -17 -45.999c0 -13.333 7.33301 -20 22 -20c22 -0 65.667 32.333 131 97c46 45.333 85.333 88 118 128z
M207.002 257.998c0 16 -7 24 -21 24c-39.333 0 -80.333 -34.333 -123 -103c-38 -61.333 -57 -110 -57 -146c0 -22 6.66699 -33 20 -33c26.667 0 53 22 79 66c68 116 102 180 102 192z" />
    <glyph glyph-name="b" unicode="b" horiz-adv-x="399" 
d="M422 218c-46.667 -62.667 -108.667 -94.6631 -186 -95.9961c-18 -31.333 -47.667 -61.333 -89 -90c-43.333 -30.667 -81.666 -46 -114.999 -46c-20 0 -36 7 -48 21s-18 32.333 -18 55c0 51.333 16.667 113.666 50 186.999c26 56.667 56.667 109.334 92 158.001
c111.333 152.667 196 229 254 229c8.66699 0 16 -4.33301 22 -13s9 -18.334 9 -29.001c0 -60.667 -38 -127.334 -114 -200.001c-58.667 -56 -106.667 -91.333 -144 -106l-70 -133c-33.333 -64 -50 -105.667 -50 -125c0 -20 10.667 -30.333 32 -31
c17.333 -0.666992 40.666 16.666 69.999 51.999c24 28.667 42 55.667 54 81c-24 13.333 -36 38.666 -36 75.999c0 25.333 5.33301 47 16 65s24 27 40 27c50 0 75 -25 75 -75c0 -36.667 -8 -67 -24 -91c70 2 127.333 32.333 172 91zM351 584.004
c0.666992 20.667 -3 30.998 -11 30.998c-12 0 -35.667 -25.333 -71 -76c-24 -35.333 -44 -67 -60 -95c-22 -39.333 -44.667 -85.666 -68 -138.999c55.333 28.667 106 79.334 152 152.001c38 60.667 57.333 103 58 127zM204 248.002c0 24 -6.33301 36.002 -19 36.002
c-10 0 -18.5 -7.5 -25.5 -22.5s-10.5 -32.833 -10.5 -53.5c0 -28.667 9.33301 -50 28 -64c4 9.33301 9.66699 23.666 17 42.999c6.66699 17.333 10 37.666 10 60.999z" />
    <glyph glyph-name="c" unicode="c" horiz-adv-x="389" 
d="M411 218c-46.667 -65.333 -98.6709 -118.334 -156.004 -159.001c-69.333 -48.667 -138.333 -73 -207 -73c-66.667 0 -100 29.667 -100 89c0 70 25.333 126.333 76 169c44.667 37.333 94.334 56 149.001 56c16.667 0 30.834 -5.16699 42.501 -15.5s17.5 -22.5 17.5 -36.5
c0 -15.333 -6.16699 -29 -18.5 -41s-26.166 -18 -41.499 -18c-24 0 -36 8.66699 -36 26c0 14 3.33301 25.333 10 34c10.667 -8.66699 20.334 -13 29.001 -13c5.33301 0 11.833 3.83301 19.5 11.5s11.5 14.834 11.5 21.501c0 14 -11.333 21 -34 21
c-30 0 -66.333 -34 -109 -102c-40.667 -64.667 -61 -115.667 -61 -153c0 -24.667 15 -37 45 -37c65.333 0 132.333 24.333 201 73c58 40.667 109.333 92 154 154z" />
    <glyph glyph-name="d" unicode="d" horiz-adv-x="432" 
d="M587 594c0 -48.667 -37.6699 -112.667 -113.003 -192c-68.667 -72.667 -130 -121.667 -184 -147c-75.333 -139.333 -113 -216.333 -113 -231c0 -16.667 7 -25 21 -25c20 0 51.333 20.333 94 61c30 28.667 81.667 83.667 155 165l8 -7c-80 -90 -134 -148.333 -162 -175
c-42 -40 -75 -60 -99 -60c-21.333 0 -37.666 4.83301 -48.999 14.5s-21.666 27.5 -30.999 53.5c-23.333 -28.667 -38.666 -45.667 -45.999 -51c-12 -9.33301 -27 -14 -45 -14c-20 0 -37.167 9.16699 -51.5 27.5s-21.5 39.5 -21.5 63.5c0 62.667 23.667 116 71 160
c46 42 100.667 63 164 63c16 0 33 -9 51 -27c46.667 80 93 149.333 139 208c76.667 98.667 137.667 148 183 148c19.333 0 29 -11.667 29 -35zM544.997 587c0 14.667 -6 22.001 -18 22.001c-24.667 0 -98 -107.667 -220 -323c68 41.333 125.667 94.666 173 159.999
c43.333 60 65 107 65 141zM214.997 260.001c0 6.66699 -3.33301 12.833 -10 18.5s-13.334 8.5 -20.001 8.5c-30 0 -68 -34.667 -114 -104c-44 -66.667 -66 -116.667 -66 -150c0 -22.667 7.33301 -34 22 -34c18.667 0 36 10.667 52 32
c0.666992 0.666992 18.334 25.667 53.001 75c55.333 78.667 83 130 83 154z" />
    <glyph glyph-name="e" unicode="e" horiz-adv-x="308" 
d="M330 218c-23.333 -39.333 -62.333 -84.333 -117 -135c-70.667 -64.667 -130 -97 -178 -97c-25.333 0 -46.166 8.5 -62.499 25.5s-24.5 38.167 -24.5 63.5c0 64 28.333 119 85 165c49.333 40 97 60 143 60c15.333 0 28.666 -5.33301 39.999 -16s17 -23.667 17 -39
c0 -42 -30.333 -77 -91 -105c-46 -21.333 -84.667 -32 -116 -32c-12 -26 -18 -49.333 -18 -70c0 -24.667 9 -37 27 -37c44 0 100 30 168 90c54 48 93.667 92.667 119 134zM183 264c0 15.333 -7.00098 22.999 -21.001 22.999c-32 0 -74 -51.667 -126 -155
c26.667 0 58.334 17.333 95.001 52c34.667 32.667 52 59.334 52 80.001z" />
    <glyph glyph-name="f" unicode="f" horiz-adv-x="237" 
d="M371 566c0 -40.667 -22.666 -90.668 -67.999 -150.001c-49.333 -64 -109.666 -114.667 -180.999 -152h55l-10 -18h-71l-136 -268c-64 -119.333 -116.333 -201 -157 -245c-48.667 -53.333 -99.334 -80 -152.001 -80c-28.667 0 -52.334 8.66699 -71.001 26
s-28 38.666 -28 63.999c0 26.667 9.33301 50.834 28 72.501s41 32.5 67 32.5c12.667 0 24 -5.16699 34 -15.5s15 -22.166 15 -35.499c0 -12.667 -5.33301 -23.667 -16 -33s-23.667 -14 -39 -14c-12 0 -23 8.66699 -33 26c20.667 2.66699 31 8 31 16c0 17.333 -7 26 -21 26
c-12.667 0 -25 -11 -37 -33c-10 -19.333 -15 -36.333 -15 -51c0 -19.333 8.5 -35.833 25.5 -49.5s36.833 -20.5 59.5 -20.5c38.667 0 76.334 26.667 113.001 80c22.667 32 59 101.667 109 209c64 136 112.333 233.667 145 293h-59l10 18h60
c44 75.333 88.667 142.333 134 201c72 92 128.333 138 169 138c9.33301 0 18.166 -3.83301 26.499 -11.5s12.5 -16.167 12.5 -25.5zM332.001 557.999c0 19.333 -5.66699 29.001 -17 29.001c-16 0 -51.333 -45 -106 -135c-45.333 -74.667 -79.333 -137.334 -102 -188.001
c76.667 56.667 135.667 115.667 177 177c32 47.333 48 86.333 48 117z" />
    <glyph glyph-name="g" unicode="g" horiz-adv-x="347" 
d="M369 218c-52.667 -94.667 -138.998 -180.002 -258.998 -256.002c-9.33301 -25.333 -23.833 -62.5 -43.5 -111.5s-41.5 -87.833 -65.5 -116.5c-29.333 -35.333 -62.333 -53 -99 -53c-24.667 0 -45.667 7.16699 -63 21.5s-26 32.166 -26 53.499
c0 40.667 30 81.334 90 122.001c42 28.667 89.333 52.334 142 71.001l30 78c-23.333 -27.333 -43.333 -41 -60 -41c-47.333 0 -71 32.333 -71 97c0 51.333 22.5 100.333 67.5 147s93.167 70 144.5 70c15.333 0 28.333 -6 39 -18c9.33301 6 16.333 9 21 9
c8.66699 0 17.167 -1.5 25.5 -4.5l12.5 -4.5c1.33301 0 6.66602 4.33301 15.999 13s16 14.334 20 17.001c-26 -38.667 -58 -92 -96 -160c-18.667 -34 -45.334 -91.333 -80.001 -172c108.667 70 191 151.667 247 245zM179.002 265.998c0 12.667 -6 19 -18 19
c-30 0 -64.667 -35.667 -104 -107c-36.667 -66 -55 -116.333 -55 -151c0 -16.667 6 -25 18 -25c22.667 0 55.667 39.667 99 119c40 74 60 122.333 60 145zM40.002 -67.002c-44 -12.667 -89.332 -36.335 -135.999 -71.002c-50.667 -37.333 -76 -71.666 -76 -102.999
c0 -11.333 4 -20.666 12 -27.999s18 -11 30 -11c34 0 69.333 27.667 106 83c27.333 40.667 48.666 84 63.999 130z" />
    <glyph glyph-name="h" unicode="h" horiz-adv-x="342" 
d="M390 608c0 -62 -42.001 -133.67 -126.001 -215.003c-60 -58 -114.333 -99.333 -163 -124l-20 -44c53.333 50 96.333 75 129 75c27.333 0 41 -14 41 -42c0 -21.333 -21.833 -65.166 -65.5 -131.499s-65.5 -99.833 -65.5 -100.5c0 -12 4.66699 -18 14 -18
c20 0 55.333 27 106 81c11.333 12 50.333 57.333 117 136l8 -7c-68.667 -85.333 -111.334 -136.666 -128.001 -153.999c-50 -52 -90 -78 -120 -78c-16 0 -29.167 4.33301 -39.5 13s-15.5 20 -15.5 34c0 16.667 21.5 57.334 64.5 122.001s64.5 100.667 64.5 108
c0 6.66699 -2.66699 10 -8 10c-17.333 0 -37.333 -9.66699 -60 -29c-20.667 -16 -36 -32.833 -46 -50.5l-82 -150.5c-17.333 -32.667 -30.666 -49 -39.999 -49c-4 0 -10.667 1.16699 -20 3.5s-14.666 3.5 -15.999 3.5c-4 0 -9.33301 -2.66699 -16 -8
c-8 -8 -15.333 -14 -22 -18l106 200c54.667 100 108 187.333 160 262c92.667 134 161.667 201 207 201c24 0 36 -10 36 -30zM344.999 592.997c0 16.667 -3.33301 25 -10 25c-17.333 0 -47.333 -33.333 -90 -100c-20.667 -32 -64.667 -106 -132 -222
c68.667 44.667 126 98.667 172 162c40 54.667 60 99.667 60 135z" />
    <glyph glyph-name="i" unicode="i" 
d="M198 416c0 -14.667 -4.99902 -27.834 -14.999 -39.501s-21.333 -17.5 -34 -17.5c-10.667 0 -19.667 3.83301 -27 11.5s-11 16.834 -11 27.501c0 14 5.16699 26.167 15.5 36.5s22.166 15.5 35.499 15.5c10 0 18.5 -3.33301 25.5 -10s10.5 -14.667 10.5 -24zM258.001 218
c-130.667 -154.667 -218.332 -232.001 -262.999 -232.001c-41.333 0 -62 19.667 -62 59c0 30 12.333 68 37 114l62 111c8 14 17 21 27 21c9.33301 0 17.166 -1.5 23.499 -4.5s9.83301 -4.5 10.5 -4.5c2.66699 0 8.83398 4.83301 18.501 14.5s16.167 14.834 19.5 15.501
l-127 -242c-6 -11.333 -9 -24 -9 -38c0 -17.333 7.66699 -26 23 -26s55.666 33 120.999 99c48.667 49.333 85.667 89.333 111 120z" />
    <glyph glyph-name="j" unicode="j" horiz-adv-x="198" 
d="M188 413c0 -14.667 -5.33301 -27.667 -16 -39s-23 -17 -37 -17c-10.667 0 -19.5 3.66699 -26.5 11s-10.5 16.333 -10.5 27c0 14 5.66699 26.667 17 38s24 17 38 17c23.333 0 35 -12.333 35 -37zM221 218c-128 -142 -219.332 -230.998 -273.999 -266.998
c-14.667 -37.333 -37.667 -93 -69 -167c-34.667 -75.333 -81.667 -113 -141 -113c-25.333 0 -46.666 7 -63.999 21s-26 31.333 -26 52c0 42 28.667 83.333 86 124c47.333 33.333 95.333 55.666 144 66.999c39.333 113.333 88.333 220.666 147 321.999
c13.333 23.333 25.666 35 36.999 35c2.66699 0 7.83398 -1.5 15.501 -4.5s13.167 -4.5 16.5 -4.5s9.66602 4.66699 18.999 14s15.666 14.333 18.999 15l-181 -346c46 34.667 133.667 121 263 259zM-129.999 -84.998c-38.667 -3.33301 -82 -22.667 -130 -58
c-53.333 -38 -80 -74.667 -80 -110c0 -10.667 4 -19.5 12 -26.5s18 -10.5 30 -10.5c35.333 0 73.333 32.333 114 97c25.333 40.667 43.333 76.667 54 108z" />
    <glyph glyph-name="k" unicode="k" horiz-adv-x="339" 
d="M411 605c0 -48 -37.666 -111.002 -112.999 -189.002c-66.667 -69.333 -124.334 -115 -173.001 -137l-32 -49c55.333 46.667 99 70 131 70c26.667 0 40 -13 40 -39c0 -36.667 -35 -73.667 -105 -111c12 -18 18 -31 18 -39c0 -8.66699 -7 -25.667 -21 -51
s-21 -39.666 -21 -42.999c0 -5.33301 3.66699 -8 11 -8c24 0 93.333 72 208 216l8 -7c-58.667 -74.667 -96.334 -121 -113.001 -139c-57.333 -62 -100.666 -93 -129.999 -93s-44 12.667 -44 38c0 9.33301 6.5 28 19.5 56s19.5 45.333 19.5 52c0 4.66699 -10 7.66699 -30 9
h-37c-8.66699 -12.667 -28.667 -50 -60 -112c-12 -23.333 -24.667 -35 -38 -35c-2.66699 0 -8.33398 1.16699 -17.001 3.5s-13.667 3.5 -15 3.5c-2.66699 0 -9 -4.16699 -19 -12.5s-16.333 -13.166 -19 -14.499l123 233c28.667 54.667 80.334 131.667 155.001 231
c100 132 171 198 213 198c10 0 19.333 -3.16699 28 -9.5s13 -13.5 13 -21.5zM363.001 596.998c0 14 -3.66602 21 -10.999 21c-18 0 -56.667 -46.333 -116 -139c-54.667 -85.333 -87.334 -144 -98.001 -176c52 29.333 103 78.333 153 147
c47.333 64.667 71.333 113.667 72 147zM198.002 244.998c0 12.667 -7 19 -21 19c-16.667 0 -39.667 -14 -69 -42c-26 -25.333 -44 -47.333 -54 -66c32.667 0 54.667 2 66 6c19.333 6.66699 36.333 17 51 31c18 16.667 27 34 27 52z" />
    <glyph glyph-name="l" unicode="l" horiz-adv-x="234" 
d="M393 624c-0.666992 -39.333 -24.001 -93.3301 -70.001 -161.997c-57.333 -86 -130.666 -155 -219.999 -207l-48 -105c-20.667 -45.333 -31 -85.333 -31 -120c0 -16 7 -24 21 -24c32 0 71.333 29.333 118 88c33.333 41.333 62 85 86 131l8 -7
c-37.333 -66.667 -69 -115.334 -95 -146.001c-47.333 -55.333 -95.333 -84 -144 -86c-18 -0.666992 -32.333 6.66602 -43 21.999s-16 35.666 -16 60.999c0 53.333 28 129.333 84 228c36 63.333 83.333 132.666 142 207.999c80.667 103.333 139.667 155 177 155
c8 0 15.167 -3.66699 21.5 -11s9.5 -15.666 9.5 -24.999zM349.999 618.003c0 14 -4.66895 21 -14.002 21c-15.333 0 -49.166 -44 -101.499 -132s-89.166 -161 -110.499 -219c56 32.667 109.333 90.667 160 174c44 72 66 124 66 156z" />
    <glyph glyph-name="m" unicode="m" horiz-adv-x="533" 
d="M555 218l-121.999 -135.997c-34 -37.333 -56 -60.333 -66 -69c-22 -18 -43.333 -27 -64 -27c-16.667 0 -30.834 5.83301 -42.501 17.5s-17.5 26.5 -17.5 44.5c0 11.333 20 47 60 107s60 94.333 60 103c0 11.333 -6 17 -18 17c-16.667 0 -55.667 -37 -117 -111l-84 -155
c-5.33301 -9.33301 -14.333 -14 -27 -14c-2.66699 0 -8.5 1.33301 -17.5 4s-14.167 4 -15.5 4c-4.66699 0 -16.667 -9.66699 -36 -29c99.333 183.333 149 279 149 287c0 9.33301 -3.66699 14 -11 14c-16.667 0 -54.667 -30.667 -114 -92
c-18 -18.667 -42 -57.334 -72 -116.001c-24.667 -48 -41 -72 -49 -72c-6 0 -14.333 1.33301 -25 4s-16.334 4 -17.001 4c-4.66699 0 -16.667 -9.66699 -36 -29l139 262c13.333 25.333 21.333 39.333 24 42c4.66699 8.66699 11.334 13 20.001 13c5.33301 0 13 -1 23 -3
s15.333 -3 16 -3c2.66699 0 8.33398 4.16699 17.001 12.5s15 13.166 19 14.499l-51 -96c55.333 56 102.666 84 141.999 84c30 0 45 -23 45 -69c30.667 28.667 51.667 46.667 63 54c15.333 10 34 15 56 15c12 0 22.667 -5 32 -15s14 -21.333 14 -34
c0 -4.66699 -5.66699 -16.334 -17 -35.001l-97 -157c-10 -16 -15 -27 -15 -33c0 -16 6.66699 -24 20 -24c16 0 50.333 29.333 103 88l121 135z" />
    <glyph glyph-name="n" unicode="n" horiz-adv-x="386" 
d="M408 218c-10 -12 -61.335 -69.667 -154.002 -173c-36 -40 -69.667 -60 -101 -60c-36.667 0 -56 20 -58 60c-0.666992 18 6.33301 38.333 21 61l83 127c9.33301 14 14 24 14 30s-5 9 -15 9c-25.333 0 -58.666 -23.333 -99.999 -70c-29.333 -34 -54 -68.333 -74 -103
l-38 -70c-12 -22.667 -23 -34 -33 -34c-3.33301 0 -9.83301 1.33301 -19.5 4s-15.5 4 -17.5 4c-5.33301 0 -17.666 -9.66699 -36.999 -29l153 293c8.66699 16 18.667 24 30 24c4.66699 0 11.167 -1.33301 19.5 -4s13.5 -4 15.5 -4c1.33301 0 6.83301 4.33301 16.5 13
s16.5 14 20.5 16l-51 -96c64 56 114 84 150 84c30.667 0 46 -15.333 46 -46c0 -16 -6.33301 -34 -19 -54l-93 -145c-12 -18.667 -18 -30 -18 -34c0 -12 7 -18 21 -18c19.333 0 47 20 83 60l147 162z" />
    <glyph glyph-name="o" unicode="o" horiz-adv-x="369" 
d="M392 218c-22.667 -28 -63.6641 -58.6689 -122.997 -92.002c-10 -4 -25 -9 -45 -15c-20.667 -34 -49 -63 -85 -87c-38.667 -25.333 -76.334 -38 -113.001 -38c-22.667 0 -41.334 10 -56.001 30c-13.333 18 -20 38.667 -20 62c0 56.667 23.5 107.834 70.5 153.501
s98.833 68.5 155.5 68.5c23.333 0 42.666 -9 57.999 -27s23 -40.333 23 -67c0 -16 -3 -31.333 -9 -46c-2.66699 -6.66699 -7.66699 -18 -15 -34c5.33301 0.666992 15.333 4.33398 30 11.001c36 16.667 76.333 46 121 88zM197.003 262.998
c0 16.667 -8.00098 24.999 -24.001 24.999c-31.333 0 -67.333 -35 -108 -105c-38.667 -65.333 -58 -115.666 -58 -150.999c0 -22 6.33301 -33 19 -33c34.667 0 76 40 124 120c-36.667 12 -55 28.333 -55 49c0 21.333 10.333 32 31 32c14 0 21 -7 21 -21
c0 -11.333 -9 -18 -27 -20c4.66699 -16.667 17.334 -26.667 38.001 -30c26 55.333 39 100 39 134z" />
    <glyph glyph-name="p" unicode="p" horiz-adv-x="372" 
d="M395 218c-35.333 -60 -74.3359 -112.001 -117.003 -156.001c-59.333 -62 -113.333 -93 -162 -93c-16.667 0 -31.667 7.66699 -45 23c-25.333 -17.333 -49 -26 -71 -26c-22.667 0 -37 15 -43 45c-32.667 -59.333 -70 -140.333 -112 -243
c-29.333 -70.667 -50.333 -106 -63 -106c-13.333 0 -30 4.33301 -50 13l-42 -37c50 86.667 109.333 196.334 178 329.001l162 302c0.666992 0.666992 3.33398 5 8.00098 13c5.33301 6 12.333 9 21 9c3.33301 0 9.33301 -1.33301 18 -4s14 -4 16 -4
c3.33301 0 9.5 4.66699 18.5 14s15.5 14.333 19.5 15l-17 -31c12.667 12.667 29.334 19 50.001 19c18.667 0 34.334 -8 47.001 -24s19 -35.333 19 -58c0 -73.333 -49 -146 -147 -218c10.667 -12.667 21.667 -19 33 -19c44.667 0 96.667 31 156 93
c42 44 80.333 94.333 115 151zM169.997 257.999c0 14 -6.66699 21.001 -20 21.001c-28 0 -63.667 -35.333 -107 -106c-26.667 -44 -47 -83.333 -61 -118c4.66699 2 13 3 25 3c9.33301 0 25.666 -8.66699 48.999 -26c22.667 28 46.334 64 71.001 108
c28.667 53.333 43 92.666 43 117.999zM44.9971 21c-16.667 16 -32.333 24 -47 24c-17.333 0 -26 -4 -26 -12c0 -8.66699 2.5 -17.5 7.5 -26.5s11.5 -13.5 19.5 -13.5c9.33301 0 17.333 2.33301 24 7c2 2 4.33301 4 7 6z" />
    <glyph glyph-name="q" unicode="q" horiz-adv-x="371" 
d="M393 218c-44 -69.333 -85.8291 -120.499 -125.496 -153.499s-85.834 -56.167 -138.501 -69.5c7.33301 -12.667 15 -30 23 -52c8 -24.667 12 -43 12 -55c0 -46 -14.333 -94.333 -43 -145c-32 -57.333 -69.333 -86 -112 -86c-43.333 0 -65 29 -65 87
c0 33.333 19.333 82.333 58 147c15.333 24.667 45.333 68.667 90 132c-31.333 -24.667 -58 -37 -80 -37c-40.667 0 -61 34.667 -61 104c0 52 23.5 100 70.5 144s96.833 66 149.5 66c13.333 0 27.333 -6 42 -18c6 6 14 9 24 9c3.33301 0 9.16602 -1.16699 17.499 -3.5
s13.833 -3.5 16.5 -3.5s8.66699 4.33301 18 13s15.666 13.667 18.999 15l-176 -304c46 15.333 84 34.666 114 57.999c43.333 33.333 89.666 86.333 138.999 159zM197.004 264.001c0 10 -6.00098 15 -18.001 15c-28 0 -63.333 -33 -106 -99
c-40.667 -62.667 -61 -111 -61 -145c0 -18 8.66699 -27 26 -27c14.667 0 29.334 10 44.001 30c32 42.667 67 104 105 184c6.66699 14 10 28 10 42zM149.003 -111.999c0 22.667 -10.666 55.334 -31.999 98.001c-40.667 -68 -63.334 -107 -68.001 -117
c-19.333 -40.667 -29 -83.334 -29 -128.001c0 -28 11.333 -42 34 -42c24 0 46.667 26 68 78c18 44.667 27 81.667 27 111z" />
    <glyph glyph-name="r" unicode="r" horiz-adv-x="294" 
d="M317 218c-46 -70 -83 -119.333 -111 -148c-53.333 -56 -106 -84 -158 -84c-34.667 0 -52.334 24.333 -53.001 73c0 16 13.833 47.333 41.5 94s41.5 73.334 41.5 80.001c0 4.66699 -1.33301 7 -4 7c-4.66699 0 -13.167 -5.16699 -25.5 -15.5s-24.833 -15.5 -37.5 -15.5
c-16 0 -24 12.667 -24 38c0 15.333 5.83301 31.833 17.5 49.5s24.834 26.5 39.501 26.5c16 0 24 -7.66699 24 -23c0 -18.667 -11.667 -41.667 -35 -69l62 50c16 12.667 30.333 19 43 19c10 0 18.333 -3.83301 25 -11.5s10 -16.834 10 -27.501c0 -8.66699 -7 -25 -21 -49
l-79 -135c-12.667 -21.333 -19 -35 -19 -41c0 -18 8.66699 -27 26 -27c52.667 0 129 72 229 216zM53 299c0 6 -3 9 -9 9c-10 0 -19.333 -7.5 -28 -22.5s-13 -27.833 -13 -38.5c0 -11.333 3.66699 -17 11 -17c26 33.333 39 56.333 39 69z" />
    <glyph glyph-name="s" unicode="s" horiz-adv-x="248" 
d="M270 218c-42 -71.333 -81.999 -119.669 -119.999 -145.002c-25.333 -17.333 -57.666 -29 -96.999 -35c-30.667 -36 -67.667 -54 -111 -54c-52.667 0 -79 23.333 -79 70c0 16 4.5 29.333 13.5 40s20.5 16 34.5 16c10.667 0 23 -6 37 -18
c17.333 -15.333 28.666 -24 33.999 -26c10.667 8 19.5 21 26.5 39s10.5 34.333 10.5 49c0 8.66699 -3.16699 23.834 -9.5 45.501s-9.5 38.834 -9.5 51.501c0 21.333 3.66699 41.333 11 60c10 24 24 36 42 36c16.667 0 25 -6 25 -18c0 -14.667 -10.333 -40.334 -31 -77.001
c20 -46 30 -82.333 30 -109c0 -41.333 -6 -71.666 -18 -90.999c40 8.66699 71.333 21.667 94 39c33.333 25.333 69.666 70 108.999 134zM66.001 326.997c0 7.33301 -4 11 -12 11c-4 0 -8.16699 -4.5 -12.5 -13.5s-6.5 -18.5 -6.5 -28.5c0 -14 2 -24.667 6 -32
c16.667 23.333 25 44.333 25 63zM-27.999 55.9971c-4.66699 2 -13.999 9 -27.999 21c-12.667 10 -21.334 15 -26.001 15c-12 0 -18 -6.66699 -18 -20c0 -14.667 10.667 -24 32 -28c22 0 35.333 4 40 12z" />
    <glyph glyph-name="t" unicode="t" 
d="M258 218c-10 -15.333 -41.334 -57.334 -94.001 -126.001c-54.667 -70.667 -113 -106 -175 -106c-14.667 0 -27.167 6.33301 -37.5 19s-15.5 28 -15.5 46c0 17.333 7 40.333 21 69l78 159h-73l16 15h80c32.667 20.667 62.334 47 89.001 79c16.667 20 39.667 52.667 69 98
h11l-101 -177h75l-6 -15h-75l-104 -182c-14.667 -25.333 -22 -43 -22 -53c0 -8 2.83301 -16.333 8.5 -25s11.5 -13 17.5 -13c19.333 0 44 11.667 74 35c24 18.667 44 38.334 60 59.001l96 125z" />
    <glyph glyph-name="u" unicode="u" horiz-adv-x="416" 
d="M438 218c-36.667 -54 -74.335 -100.333 -113.002 -139c-62.667 -62 -117.334 -93 -164.001 -93c-34 0 -53.667 27.667 -59 83c-29.333 -34 -49.666 -55.333 -60.999 -64c-16.667 -12.667 -37 -19 -61 -19c-34 0 -51 16.333 -51 49c0 30 11 65.333 33 106l74 136
c5.33301 9.33301 14.333 14 27 14c0.666992 0 5.5 -1.16699 14.5 -3.5s15.167 -3.5 18.5 -3.5s9.5 4.5 18.5 13.5s14.833 13.833 17.5 14.5l-119 -224c-11.333 -21.333 -17 -40 -17 -56c0 -17.333 8.33301 -26 25 -26c12 0 33.333 19.333 64 58
c24 30.667 41.667 55.667 53 75l78 139c4.66699 8.66699 12.334 13 23.001 13c4 0 10.333 -1.16699 19 -3.5s14.334 -3.5 17.001 -3.5s8.33398 4.5 17.001 13.5s15 13.833 19 14.5l-127 -239c-10.667 -20 -16 -34.667 -16 -44c0 -13.333 8.66699 -20 26 -20
c29.333 0 72.666 29.667 129.999 89c40.667 42 76 84.333 106 127z" />
    <glyph glyph-name="v" unicode="v" horiz-adv-x="377" 
d="M399 218c-58.667 -56.667 -118.668 -86.665 -180.001 -89.998c-12 -30 -39 -60 -81 -90c-48.667 -34.667 -98 -52 -148 -52c-14.667 0 -27.5 5.83301 -38.5 17.5s-16.5 24.5 -16.5 38.5c0 33.333 9.66699 68 29 104l71 131c5.33301 9.33301 12.666 14 21.999 14
c4.66699 0 11.5 -1.33301 20.5 -4s14.5 -4 16.5 -4c1.33301 0 6.33301 4.33301 15 13s15.334 13.667 20.001 15l-119 -228c-9.33301 -18 -14 -33 -14 -45c0 -25.333 10.333 -38 31 -38c42 0 85.333 47 130 141c-21.333 25.333 -32 49.666 -32 72.999
c0 21.333 6.66699 41.666 20 60.999c15.333 22 33 33 53 33c14.667 0 27.834 -8 39.501 -24s17.5 -33.667 17.5 -53c0 -34.667 -9.33301 -64.667 -28 -90c45.333 0 100 28 164 84zM206.999 240.002c0 30 -8 44.999 -24 44.999c-12 0 -22.667 -7.66699 -32 -23
s-14 -31.666 -14 -48.999s9.33301 -37.333 28 -60c28 48 42 77 42 87z" />
    <glyph glyph-name="w" unicode="w" horiz-adv-x="552" 
d="M575 218c-27.333 -49.333 -84.998 -82.335 -172.998 -99.002c-22 -34 -54.333 -64.333 -97 -91c-45.333 -28 -87.333 -42 -126 -42c-26.667 0 -46.334 11.667 -59.001 35c-2.66699 4.66699 -4 11 -4 19c0 12 2 24.333 6 37c-26 -29.333 -46.333 -49.666 -61 -60.999
c-25.333 -20 -51.333 -30 -78 -30c-14.667 0 -27.167 6 -37.5 18s-15.5 27.667 -15.5 47c0 20 7.66699 44.333 23 73l79 147c7.33301 13.333 15.666 20 24.999 20c4 0 10.833 -1.16699 20.5 -3.5s15.834 -3.5 18.501 -3.5s8.33398 4.5 17.001 13.5s15 13.833 19 14.5
l-126 -238c-8.66699 -16.667 -13 -30.667 -13 -42c0 -17.333 5 -26 15 -26c22 0 48 16.667 78 50c22 25.333 40.667 52 56 80l76 141c5.33301 9.33301 12.666 14 21.999 14c3.33301 0 9.66602 -1.16699 18.999 -3.5s15.333 -3.5 18 -3.5c4 0 10.167 4.5 18.5 13.5
s14.5 13.833 18.5 14.5l-119 -225c-12.667 -24 -19 -42.333 -19 -55c0 -21.333 9.33301 -32 28 -32c43.333 0 88.333 45 135 135c-22 21.333 -33 47.333 -33 78c0 26.667 7.33301 49.167 22 67.5s33 27.5 55 27.5c14.667 0 28 -8.16699 40 -24.5s18 -34.166 18 -53.499
c0 -33.333 -10.333 -65.333 -31 -96c24.667 3.33301 54 14 88 32c38 20 61 39.667 69 59zM381.002 265.998c0 14 -6.33301 20.998 -19 20.998c-12 0 -22 -7.16699 -30 -21.5s-12 -31.833 -12 -52.5c0 -29.333 8 -50.666 24 -63.999c9.33301 12 17.833 30.333 25.5 55
s11.5 45.334 11.5 62.001z" />
    <glyph glyph-name="x" unicode="x" horiz-adv-x="389" 
d="M411 218c-120.667 -154.667 -222 -232 -304 -232c-36.667 0 -66.667 32.667 -90 98c-56 -65.333 -98 -98 -126 -98c-24 0 -36 11.333 -36 34c0 11.333 8 23.333 24 36c17.333 -19.333 32 -29 44 -29c14 0 32 12 54 36c14.667 15.333 26.334 30.333 35.001 45
c0 13.333 -1.33301 38.333 -4 75s-4 60.334 -4 71.001c0 28.667 7.66699 43 23 43h35c3.33301 0 6.66602 5.16699 9.99902 15.5s6.33301 15.833 9 16.5l2 -131c38.667 34 67.334 57.333 86.001 70c31.333 21.333 57 32 77 32c26 0 39 -9 39 -27
c0 -8.66699 -5.33301 -21.667 -16 -39c-20.667 16 -38.334 24 -53.001 24c-22 0 -50 -12 -84 -36c-30 -20.667 -46.333 -35 -49 -43c0 -112 18.333 -168 55 -168c34 0 81.333 27 142 81c48.667 43.333 89.667 87.666 123 132.999z" />
    <glyph glyph-name="y" unicode="y" horiz-adv-x="383" 
d="M405 218l-131.998 -126l-73 -69c-20.667 -18.667 -50.667 -39 -90 -61l-56 -109c-24 -45.333 -47.667 -80 -71 -104c-30.667 -31.333 -64.334 -47 -101.001 -47c-22.667 0 -41.834 7.33301 -57.501 22s-23.5 33 -23.5 55c0 39.333 25.667 74.666 77 105.999
c34 20.667 87.667 42.667 161 66l42 84c-43.333 -32.667 -76 -49 -98 -49c-35.333 0 -53 22.333 -53 67c0 20 5.66699 40.667 17 62l81 152c8.66699 16 18 24 28 24c5.33301 0 12.666 -1.33301 21.999 -4s15 -4 17 -4c2.66699 0 8.5 4.66699 17.5 14s15.167 14.333 18.5 15
l-122 -228c-10.667 -20 -16 -36.333 -16 -49c0 -18.667 4.66699 -28 14 -28s24.333 6 45 18c26.667 15.333 45.667 33.333 57 54l105 188c8.66699 16 18 24 28 24c5.33301 0 12 -1.33301 20 -4s13.333 -4 16 -4s8.66699 4.66699 18 14s15.666 14.333 18.999 15l-66 -127
c-39.333 -73.333 -82.666 -142.666 -129.999 -207.999c24.667 14 50.334 33.333 77.001 58l69 66l132 124zM36.002 -59c-74.667 -26.667 -126 -48 -154 -64c-48.667 -28.667 -73 -61 -73 -97c0 -28 14 -42 42 -42c31.333 0 67.333 27.667 108 83c14 18 39.667 58 77 120z
" />
    <glyph glyph-name="z" unicode="z" horiz-adv-x="312" 
d="M335 218c-81.333 -125.333 -173.001 -212.335 -275.001 -261.002c3.33301 -14.667 5 -36.334 5 -65.001c0 -63.333 -25 -118.5 -75 -165.5s-107 -70.5 -171 -70.5c-24.667 0 -44.334 6.66699 -59.001 20s-22 31.666 -22 54.999c0 50.667 34.333 98 103 142
c50.667 32.667 107.334 57.667 170.001 75c0 26.667 -2 45 -6 55c-23.333 -8.66699 -41.666 -13 -54.999 -13c-24 0 -36 8 -36 24c0 6.66699 3.83301 12.834 11.5 18.501s17.167 8.5 28.5 8.5c21.333 0 42.666 -6 63.999 -18c20.667 16.667 40.667 45.334 60 86.001
s29 74.334 29 101.001c0 23.333 -12 35 -36 35c-19.333 0 -43 -19.667 -71 -59v17c32.667 64.667 71.334 97 116.001 97c19.333 0 35.333 -7.16699 48 -21.5s19 -31.5 19 -51.5c0 -49.333 -21 -97.666 -63 -144.999c-34 -38 -65 -61.333 -93 -70
c15.333 -17.333 24.333 -32.333 27 -45c91.333 44 182.333 130 273 258zM-1.00098 12.998c-16 12 -31 18.333 -45 19c-18 0.666992 -27 -5.33301 -27 -18c0 -9.33301 7.66699 -14.333 23 -15c10 -0.666992 26.333 4 49 14zM10.999 -64.002c-48 -12 -99.002 -40 -153.002 -84
c-62.667 -50.667 -94 -98.667 -94 -144c0 -12 4.83301 -22 14.5 -30s20.834 -12 33.501 -12c42.667 0 87.334 34.667 134.001 104c43.333 64.667 65 120 65 166z" />
    <glyph glyph-name="nonbreakingspace" unicode="&#xa0;" horiz-adv-x="50" 
 />
    <glyph glyph-name="cent" unicode="&#xa2;" horiz-adv-x="355" 
d="M315 409c0 -20.667 -7 -38.167 -21 -52.5s-31 -21.5 -51 -21.5c-32 0 -48 13.333 -48 40c0 34 14.667 51 44 51c5.33301 0 12.333 -3.66699 21 -11c-11.333 -7.33301 -17 -14 -17 -20c0 -12.667 4.66699 -19 14 -19c8 0 16.167 4.5 24.5 13.5s12.5 18.5 12.5 28.5
c0 22 -14 33 -42 33c-37.333 0 -80 -34 -128 -102c-35.333 -50 -53 -97.333 -53 -142c0 -14 4.16699 -26 12.5 -36s18.5 -15 30.5 -15c22 0 50.667 14.667 86 44l9 -13c-31.333 -28 -57.666 -44.333 -78.999 -49c-13.333 -3.33301 -31 -5 -53 -5l-49 -92l-16 7l48 90
c-37.333 12 -56 39.667 -56 83c0 35.333 9.33301 73 28 113c47.333 100.667 118.666 151 213.999 151l36 67l16 -5l-36 -67c35.333 -11.333 53 -35 53 -71z" />
    <glyph glyph-name="dieresis" unicode="&#xa8;" horiz-adv-x="300" 
d="M264 418c0 -13.333 -5.5 -25.5 -16.5 -36.5s-23.167 -16.5 -36.5 -16.5c-24.667 0 -37 15 -37 45c0 13.333 5.33301 25.5 16 36.5s22.667 16.5 36 16.5c25.333 0 38 -15 38 -45zM130 418c0 -13.333 -5.33301 -25.5 -16 -36.5s-22.667 -16.5 -36 -16.5
c-25.333 0 -38 15 -38 45c0 13.333 5.5 25.5 16.5 36.5s23.167 16.5 36.5 16.5c24.667 0 37 -15 37 -45z" />
    <glyph glyph-name="degree" unicode="&#xb0;" horiz-adv-x="459" 
d="M274 537c0 -39.333 -17.001 -79.001 -51.001 -119.001c-36 -42.667 -75 -64 -117 -64c-42.667 0 -64 23.333 -64 70c0 36.667 19.333 74.334 58 113.001s76.334 58 113.001 58c40.667 0 61 -19.333 61 -58zM248.999 526.999c0 27.333 -8.66699 40.999 -26 40.999
c-26 0 -53 -21.667 -81 -65c-26 -40 -39 -73.333 -39 -100c0 -16 6.66699 -24 20 -24c18 0 42.667 15.667 74 47c34.667 34.667 52 68.334 52 101.001z" />
    <glyph glyph-name="acute" unicode="&#xb4;" horiz-adv-x="300" 
d="M255 484c0 -13.333 -6.99902 -26.667 -20.999 -40l-151 -79h-30l118 134c13.333 15.333 26.666 23 39.999 23s24 -3.66699 32 -11s12 -16.333 12 -27z" />
    <glyph glyph-name="agrave" unicode="&#xe0;" horiz-adv-x="426" 
d="M449 218c-126.667 -154.667 -214.332 -232.002 -262.999 -232.002c-32.667 0 -58 19.333 -76 58c-28.667 -38.667 -60.334 -58 -95.001 -58c-44.667 0 -67 32.667 -67 98c0 50 20.667 97.333 62 142c45.333 49.333 99 74 161 74c23.333 0 40.333 -8 51 -24
c8 10 15 15 21 15c2.66699 0 9.66699 -1 21 -3s18.333 -3 21 -3s8.16699 4.33301 16.5 13s13.833 13.334 16.5 14.001l-131 -246c-11.333 -21.333 -17 -36.666 -17 -45.999c0 -13.333 7.33301 -20 22 -20c22 -0 65.667 32.333 131 97c46 45.333 85.333 88 118 128z
M207.002 257.998c0 16 -7 24 -21 24c-39.333 0 -80.333 -34.333 -123 -103c-38 -61.333 -57 -110 -57 -146c0 -22 6.66699 -33 20 -33c26.667 0 53 22 79 66c68 116 102 180 102 192zM222.002 364.998h-26l-100 75c-14 13.333 -21 26.666 -21 39.999
c0 10.667 4 20.334 12 29.001s18.333 13 31 13c14.667 0 28 -7.66699 40 -23z" />
    <glyph glyph-name="aacute" unicode="&#xe1;" horiz-adv-x="426" 
d="M449 218c-126.667 -154.667 -214.332 -232.002 -262.999 -232.002c-32.667 0 -58 19.333 -76 58c-28.667 -38.667 -60.334 -58 -95.001 -58c-44.667 0 -67 32.667 -67 98c0 50 20.667 97.333 62 142c45.333 49.333 99 74 161 74c23.333 0 40.333 -8 51 -24
c8 10 15 15 21 15c2.66699 0 9.66699 -1 21 -3s18.333 -3 21 -3s8.16699 4.33301 16.5 13s13.833 13.334 16.5 14.001l-131 -246c-11.333 -21.333 -17 -36.666 -17 -45.999c0 -13.333 7.33301 -20 22 -20c22 -0 65.667 32.333 131 97c46 45.333 85.333 88 118 128z
M207.002 257.998c0 16 -7 24 -21 24c-39.333 0 -80.333 -34.333 -123 -103c-38 -61.333 -57 -110 -57 -146c0 -22 6.66699 -33 20 -33c26.667 0 53 22 79 66c68 116 102 180 102 192zM255.002 483.998c0 -13.333 -6.99902 -26.667 -20.999 -40l-151 -79h-30l118 134
c13.333 15.333 26.666 23 39.999 23s24 -3.66699 32 -11s12 -16.333 12 -27z" />
    <glyph glyph-name="acircumflex" unicode="&#xe2;" horiz-adv-x="426" 
d="M449 218c-126.667 -154.667 -214.332 -232.002 -262.999 -232.002c-32.667 0 -58 19.333 -76 58c-28.667 -38.667 -60.334 -58 -95.001 -58c-44.667 0 -67 32.667 -67 98c0 50 20.667 97.333 62 142c45.333 49.333 99 74 161 74c23.333 0 40.333 -8 51 -24
c8 10 15 15 21 15c2.66699 0 9.66699 -1 21 -3s18.333 -3 21 -3s8.16699 4.33301 16.5 13s13.833 13.334 16.5 14.001l-131 -246c-11.333 -21.333 -17 -36.666 -17 -45.999c0 -13.333 7.33301 -20 22 -20c22 -0 65.667 32.333 131 97c46 45.333 85.333 88 118 128z
M207.002 257.998c0 16 -7 24 -21 24c-39.333 0 -80.333 -34.333 -123 -103c-38 -61.333 -57 -110 -57 -146c0 -22 6.66699 -33 20 -33c26.667 0 53 22 79 66c68 116 102 180 102 192zM231.002 415.998l-142 -55h-38l215 151l8 -151h-19z" />
    <glyph glyph-name="adieresis" unicode="&#xe4;" horiz-adv-x="426" 
d="M449 218c-126.667 -154.667 -214.332 -232.002 -262.999 -232.002c-32.667 0 -58 19.333 -76 58c-28.667 -38.667 -60.334 -58 -95.001 -58c-44.667 0 -67 32.667 -67 98c0 50 20.667 97.333 62 142c45.333 49.333 99 74 161 74c23.333 0 40.333 -8 51 -24
c8 10 15 15 21 15c2.66699 0 9.66699 -1 21 -3s18.333 -3 21 -3s8.16699 4.33301 16.5 13s13.833 13.334 16.5 14.001l-131 -246c-11.333 -21.333 -17 -36.666 -17 -45.999c0 -13.333 7.33301 -20 22 -20c22 -0 65.667 32.333 131 97c46 45.333 85.333 88 118 128z
M207.002 257.998c0 16 -7 24 -21 24c-39.333 0 -80.333 -34.333 -123 -103c-38 -61.333 -57 -110 -57 -146c0 -22 6.66699 -33 20 -33c26.667 0 53 22 79 66c68 116 102 180 102 192zM264.002 417.998c0 -13.333 -5.5 -25.5 -16.5 -36.5s-23.167 -16.5 -36.5 -16.5
c-24.667 0 -37 15 -37 45c0 13.333 5.33301 25.5 16 36.5s22.667 16.5 36 16.5c25.333 0 38 -15 38 -45zM130.002 417.998c0 -13.333 -5.33301 -25.5 -16 -36.5s-22.667 -16.5 -36 -16.5c-25.333 0 -38 15 -38 45c0 13.333 5.5 25.5 16.5 36.5s23.167 16.5 36.5 16.5
c24.667 0 37 -15 37 -45z" />
    <glyph glyph-name="ae" unicode="&#xe6;" horiz-adv-x="369" 
 />
    <glyph glyph-name="ccedilla" unicode="&#xe7;" horiz-adv-x="352" 
d="M-61 -202l-2.99902 10.999c27.333 8.66699 50.666 20.167 69.999 34.5s29 27.5 29 39.5c0 0.666992 -1.66699 4.83398 -5 12.501s-5 14.167 -5 19.5c0 10.667 5.66699 20.5 17 29.5s23 13.5 35 13.5c19.333 0 29 -9.33301 29 -28c0 -25.333 -16.167 -50.833 -48.5 -76.5
s-71.833 -44.167 -118.5 -55.5zM411.001 217.999c-46.667 -65.333 -98.6709 -118.334 -156.004 -159.001c-69.333 -48.667 -138.333 -73 -207 -73c-66.667 0 -100 29.667 -100 89c0 70 25.333 126.333 76 169c44.667 37.333 94.334 56 149.001 56
c16.667 0 30.834 -5.16699 42.501 -15.5s17.5 -22.5 17.5 -36.5c0 -15.333 -6.16699 -29 -18.5 -41s-26.166 -18 -41.499 -18c-24 0 -36 8.66699 -36 26c0 14 3.33301 25.333 10 34c10.667 -8.66699 20.334 -13 29.001 -13c5.33301 0 11.833 3.83301 19.5 11.5
s11.5 14.834 11.5 21.501c0 14 -11.333 21 -34 21c-30 0 -66.333 -34 -109 -102c-40.667 -64.667 -61 -115.667 -61 -153c0 -24.667 15 -37 45 -37c65.333 0 132.333 24.333 201 73c58 40.667 109.333 92 154 154z" />
    <glyph glyph-name="egrave" unicode="&#xe8;" horiz-adv-x="308" 
d="M330 218c-23.333 -39.333 -62.333 -84.333 -117 -135c-70.667 -64.667 -130 -97 -178 -97c-25.333 0 -46.166 8.5 -62.499 25.5s-24.5 38.167 -24.5 63.5c0 64 28.333 119 85 165c49.333 40 97 60 143 60c15.333 0 28.666 -5.33301 39.999 -16s17 -23.667 17 -39
c0 -42 -30.333 -77 -91 -105c-46 -21.333 -84.667 -32 -116 -32c-12 -26 -18 -49.333 -18 -70c0 -24.667 9 -37 27 -37c44 0 100 30 168 90c54 48 93.667 92.667 119 134zM183 264c0 15.333 -7.00098 22.999 -21.001 22.999c-32 0 -74 -51.667 -126 -155
c26.667 0 58.334 17.333 95.001 52c34.667 32.667 52 59.334 52 80.001zM221.999 364.999h-26l-100 75c-14 13.333 -21 26.666 -21 39.999c0 10.667 4 20.334 12 29.001s18.333 13 31 13c14.667 0 28 -7.66699 40 -23z" />
    <glyph glyph-name="eacute" unicode="&#xe9;" horiz-adv-x="308" 
d="M330 218c-23.333 -39.333 -62.333 -84.333 -117 -135c-70.667 -64.667 -130 -97 -178 -97c-25.333 0 -46.166 8.5 -62.499 25.5s-24.5 38.167 -24.5 63.5c0 64 28.333 119 85 165c49.333 40 97 60 143 60c15.333 0 28.666 -5.33301 39.999 -16s17 -23.667 17 -39
c0 -42 -30.333 -77 -91 -105c-46 -21.333 -84.667 -32 -116 -32c-12 -26 -18 -49.333 -18 -70c0 -24.667 9 -37 27 -37c44 0 100 30 168 90c54 48 93.667 92.667 119 134zM183 264c0 15.333 -7.00098 22.999 -21.001 22.999c-32 0 -74 -51.667 -126 -155
c26.667 0 58.334 17.333 95.001 52c34.667 32.667 52 59.334 52 80.001zM254.999 483.999c0 -13.333 -6.99902 -26.667 -20.999 -40l-151 -79h-30l118 134c13.333 15.333 26.666 23 39.999 23s24 -3.66699 32 -11s12 -16.333 12 -27z" />
    <glyph glyph-name="ecircumflex" unicode="&#xea;" horiz-adv-x="308" 
d="M330 218c-23.333 -39.333 -62.333 -84.333 -117 -135c-70.667 -64.667 -130 -97 -178 -97c-25.333 0 -46.166 8.5 -62.499 25.5s-24.5 38.167 -24.5 63.5c0 64 28.333 119 85 165c49.333 40 97 60 143 60c15.333 0 28.666 -5.33301 39.999 -16s17 -23.667 17 -39
c0 -42 -30.333 -77 -91 -105c-46 -21.333 -84.667 -32 -116 -32c-12 -26 -18 -49.333 -18 -70c0 -24.667 9 -37 27 -37c44 0 100 30 168 90c54 48 93.667 92.667 119 134zM183 264c0 15.333 -7.00098 22.999 -21.001 22.999c-32 0 -74 -51.667 -126 -155
c26.667 0 58.334 17.333 95.001 52c34.667 32.667 52 59.334 52 80.001zM230.999 415.999l-142 -55h-38l215 151l8 -151h-19z" />
    <glyph glyph-name="edieresis" unicode="&#xeb;" horiz-adv-x="308" 
d="M330 218c-23.333 -39.333 -62.333 -84.333 -117 -135c-70.667 -64.667 -130 -97 -178 -97c-25.333 0 -46.166 8.5 -62.499 25.5s-24.5 38.167 -24.5 63.5c0 64 28.333 119 85 165c49.333 40 97 60 143 60c15.333 0 28.666 -5.33301 39.999 -16s17 -23.667 17 -39
c0 -42 -30.333 -77 -91 -105c-46 -21.333 -84.667 -32 -116 -32c-12 -26 -18 -49.333 -18 -70c0 -24.667 9 -37 27 -37c44 0 100 30 168 90c54 48 93.667 92.667 119 134zM183 264c0 15.333 -7.00098 22.999 -21.001 22.999c-32 0 -74 -51.667 -126 -155
c26.667 0 58.334 17.333 95.001 52c34.667 32.667 52 59.334 52 80.001zM263.999 417.999c0 -13.333 -5.5 -25.5 -16.5 -36.5s-23.167 -16.5 -36.5 -16.5c-24.667 0 -37 15 -37 45c0 13.333 5.33301 25.5 16 36.5s22.667 16.5 36 16.5c25.333 0 38 -15 38 -45z
M129.999 417.999c0 -13.333 -5.33301 -25.5 -16 -36.5s-22.667 -16.5 -36 -16.5c-25.333 0 -38 15 -38 45c0 13.333 5.5 25.5 16.5 36.5s23.167 16.5 36.5 16.5c24.667 0 37 -15 37 -45z" />
    <glyph glyph-name="igrave" unicode="&#xec;" 
d="M258 218c-130.667 -154.667 -218.332 -232.001 -262.999 -232.001c-41.333 0 -62 19.667 -62 59c0 30 12.333 68 37 114l62 111c8 14 17 21 27 21c9.33301 0 17.166 -1.5 23.499 -4.5s9.83301 -4.5 10.5 -4.5c2.66699 0 8.83398 4.83301 18.501 14.5
s16.167 14.834 19.5 15.501l-127 -242c-6 -11.333 -9 -24 -9 -38c0 -17.333 7.66699 -26 23 -26s55.666 33 120.999 99c48.667 49.333 85.667 89.333 111 120zM222.002 364.999h-26l-100 75c-14 13.333 -21 26.666 -21 39.999c0 10.667 4 20.334 12 29.001s18.333 13 31 13
c14.667 0 28 -7.66699 40 -23z" />
    <glyph glyph-name="iacute" unicode="&#xed;" 
d="M258 218c-130.667 -154.667 -218.332 -232.001 -262.999 -232.001c-41.333 0 -62 19.667 -62 59c0 30 12.333 68 37 114l62 111c8 14 17 21 27 21c9.33301 0 17.166 -1.5 23.499 -4.5s9.83301 -4.5 10.5 -4.5c2.66699 0 8.83398 4.83301 18.501 14.5
s16.167 14.834 19.5 15.501l-127 -242c-6 -11.333 -9 -24 -9 -38c0 -17.333 7.66699 -26 23 -26s55.666 33 120.999 99c48.667 49.333 85.667 89.333 111 120zM255.002 483.999c0 -13.333 -6.99902 -26.667 -20.999 -40l-151 -79h-30l118 134
c13.333 15.333 26.666 23 39.999 23s24 -3.66699 32 -11s12 -16.333 12 -27z" />
    <glyph glyph-name="icircumflex" unicode="&#xee;" 
d="M258 218c-130.667 -154.667 -218.332 -232.001 -262.999 -232.001c-41.333 0 -62 19.667 -62 59c0 30 12.333 68 37 114l62 111c8 14 17 21 27 21c9.33301 0 17.166 -1.5 23.499 -4.5s9.83301 -4.5 10.5 -4.5c2.66699 0 8.83398 4.83301 18.501 14.5
s16.167 14.834 19.5 15.501l-127 -242c-6 -11.333 -9 -24 -9 -38c0 -17.333 7.66699 -26 23 -26s55.666 33 120.999 99c48.667 49.333 85.667 89.333 111 120zM231.002 415.999l-142 -55h-38l215 151l8 -151h-19z" />
    <glyph glyph-name="idieresis" unicode="&#xef;" 
d="M258 218c-130.667 -154.667 -218.332 -232.001 -262.999 -232.001c-41.333 0 -62 19.667 -62 59c0 30 12.333 68 37 114l62 111c8 14 17 21 27 21c9.33301 0 17.166 -1.5 23.499 -4.5s9.83301 -4.5 10.5 -4.5c2.66699 0 8.83398 4.83301 18.501 14.5
s16.167 14.834 19.5 15.501l-127 -242c-6 -11.333 -9 -24 -9 -38c0 -17.333 7.66699 -26 23 -26s55.666 33 120.999 99c48.667 49.333 85.667 89.333 111 120zM264.002 417.999c0 -13.333 -5.5 -25.5 -16.5 -36.5s-23.167 -16.5 -36.5 -16.5c-24.667 0 -37 15 -37 45
c0 13.333 5.33301 25.5 16 36.5s22.667 16.5 36 16.5c25.333 0 38 -15 38 -45zM130.002 417.999c0 -13.333 -5.33301 -25.5 -16 -36.5s-22.667 -16.5 -36 -16.5c-25.333 0 -38 15 -38 45c0 13.333 5.5 25.5 16.5 36.5s23.167 16.5 36.5 16.5c24.667 0 37 -15 37 -45z" />
    <glyph glyph-name="ograve" unicode="&#xf2;" horiz-adv-x="369" 
d="M392 218c-22.667 -28 -63.6641 -58.6689 -122.997 -92.002c-10 -4 -25 -9 -45 -15c-20.667 -34 -49 -63 -85 -87c-38.667 -25.333 -76.334 -38 -113.001 -38c-22.667 0 -41.334 10 -56.001 30c-13.333 18 -20 38.667 -20 62c0 56.667 23.5 107.834 70.5 153.501
s98.833 68.5 155.5 68.5c23.333 0 42.666 -9 57.999 -27s23 -40.333 23 -67c0 -16 -3 -31.333 -9 -46c-2.66699 -6.66699 -7.66699 -18 -15 -34c5.33301 0.666992 15.333 4.33398 30 11.001c36 16.667 76.333 46 121 88zM197.003 262.998
c0 16.667 -8.00098 24.999 -24.001 24.999c-31.333 0 -67.333 -35 -108 -105c-38.667 -65.333 -58 -115.666 -58 -150.999c0 -22 6.33301 -33 19 -33c34.667 0 76 40 124 120c-36.667 12 -55 28.333 -55 49c0 21.333 10.333 32 31 32c14 0 21 -7 21 -21
c0 -11.333 -9 -18 -27 -20c4.66699 -16.667 17.334 -26.667 38.001 -30c26 55.333 39 100 39 134zM222.002 364.997h-26l-100 75c-14 13.333 -21 26.666 -21 39.999c0 10.667 4 20.334 12 29.001s18.333 13 31 13c14.667 0 28 -7.66699 40 -23z" />
    <glyph glyph-name="oacute" unicode="&#xf3;" horiz-adv-x="369" 
d="M392 218c-22.667 -28 -63.6641 -58.6689 -122.997 -92.002c-10 -4 -25 -9 -45 -15c-20.667 -34 -49 -63 -85 -87c-38.667 -25.333 -76.334 -38 -113.001 -38c-22.667 0 -41.334 10 -56.001 30c-13.333 18 -20 38.667 -20 62c0 56.667 23.5 107.834 70.5 153.501
s98.833 68.5 155.5 68.5c23.333 0 42.666 -9 57.999 -27s23 -40.333 23 -67c0 -16 -3 -31.333 -9 -46c-2.66699 -6.66699 -7.66699 -18 -15 -34c5.33301 0.666992 15.333 4.33398 30 11.001c36 16.667 76.333 46 121 88zM197.003 262.998
c0 16.667 -8.00098 24.999 -24.001 24.999c-31.333 0 -67.333 -35 -108 -105c-38.667 -65.333 -58 -115.666 -58 -150.999c0 -22 6.33301 -33 19 -33c34.667 0 76 40 124 120c-36.667 12 -55 28.333 -55 49c0 21.333 10.333 32 31 32c14 0 21 -7 21 -21
c0 -11.333 -9 -18 -27 -20c4.66699 -16.667 17.334 -26.667 38.001 -30c26 55.333 39 100 39 134zM255.002 483.997c0 -13.333 -6.99902 -26.667 -20.999 -40l-151 -79h-30l118 134c13.333 15.333 26.666 23 39.999 23s24 -3.66699 32 -11s12 -16.333 12 -27z" />
    <glyph glyph-name="ocircumflex" unicode="&#xf4;" horiz-adv-x="369" 
d="M392 218c-22.667 -28 -63.6641 -58.6689 -122.997 -92.002c-10 -4 -25 -9 -45 -15c-20.667 -34 -49 -63 -85 -87c-38.667 -25.333 -76.334 -38 -113.001 -38c-22.667 0 -41.334 10 -56.001 30c-13.333 18 -20 38.667 -20 62c0 56.667 23.5 107.834 70.5 153.501
s98.833 68.5 155.5 68.5c23.333 0 42.666 -9 57.999 -27s23 -40.333 23 -67c0 -16 -3 -31.333 -9 -46c-2.66699 -6.66699 -7.66699 -18 -15 -34c5.33301 0.666992 15.333 4.33398 30 11.001c36 16.667 76.333 46 121 88zM197.003 262.998
c0 16.667 -8.00098 24.999 -24.001 24.999c-31.333 0 -67.333 -35 -108 -105c-38.667 -65.333 -58 -115.666 -58 -150.999c0 -22 6.33301 -33 19 -33c34.667 0 76 40 124 120c-36.667 12 -55 28.333 -55 49c0 21.333 10.333 32 31 32c14 0 21 -7 21 -21
c0 -11.333 -9 -18 -27 -20c4.66699 -16.667 17.334 -26.667 38.001 -30c26 55.333 39 100 39 134zM231.002 415.997l-142 -55h-38l215 151l8 -151h-19z" />
    <glyph glyph-name="odieresis" unicode="&#xf6;" horiz-adv-x="369" 
d="M392 218c-22.667 -28 -63.6641 -58.6689 -122.997 -92.002c-10 -4 -25 -9 -45 -15c-20.667 -34 -49 -63 -85 -87c-38.667 -25.333 -76.334 -38 -113.001 -38c-22.667 0 -41.334 10 -56.001 30c-13.333 18 -20 38.667 -20 62c0 56.667 23.5 107.834 70.5 153.501
s98.833 68.5 155.5 68.5c23.333 0 42.666 -9 57.999 -27s23 -40.333 23 -67c0 -16 -3 -31.333 -9 -46c-2.66699 -6.66699 -7.66699 -18 -15 -34c5.33301 0.666992 15.333 4.33398 30 11.001c36 16.667 76.333 46 121 88zM197.003 262.998
c0 16.667 -8.00098 24.999 -24.001 24.999c-31.333 0 -67.333 -35 -108 -105c-38.667 -65.333 -58 -115.666 -58 -150.999c0 -22 6.33301 -33 19 -33c34.667 0 76 40 124 120c-36.667 12 -55 28.333 -55 49c0 21.333 10.333 32 31 32c14 0 21 -7 21 -21
c0 -11.333 -9 -18 -27 -20c4.66699 -16.667 17.334 -26.667 38.001 -30c26 55.333 39 100 39 134zM264.002 417.997c0 -13.333 -5.5 -25.5 -16.5 -36.5s-23.167 -16.5 -36.5 -16.5c-24.667 0 -37 15 -37 45c0 13.333 5.33301 25.5 16 36.5s22.667 16.5 36 16.5
c25.333 0 38 -15 38 -45zM130.002 417.997c0 -13.333 -5.33301 -25.5 -16 -36.5s-22.667 -16.5 -36 -16.5c-25.333 0 -38 15 -38 45c0 13.333 5.5 25.5 16.5 36.5s23.167 16.5 36.5 16.5c24.667 0 37 -15 37 -45z" />
    <glyph glyph-name="ugrave" unicode="&#xf9;" horiz-adv-x="416" 
d="M438 218c-36.667 -54 -74.335 -100.333 -113.002 -139c-62.667 -62 -117.334 -93 -164.001 -93c-34 0 -53.667 27.667 -59 83c-29.333 -34 -49.666 -55.333 -60.999 -64c-16.667 -12.667 -37 -19 -61 -19c-34 0 -51 16.333 -51 49c0 30 11 65.333 33 106l74 136
c5.33301 9.33301 14.333 14 27 14c0.666992 0 5.5 -1.16699 14.5 -3.5s15.167 -3.5 18.5 -3.5s9.5 4.5 18.5 13.5s14.833 13.833 17.5 14.5l-119 -224c-11.333 -21.333 -17 -40 -17 -56c0 -17.333 8.33301 -26 25 -26c12 0 33.333 19.333 64 58
c24 30.667 41.667 55.667 53 75l78 139c4.66699 8.66699 12.334 13 23.001 13c4 0 10.333 -1.16699 19 -3.5s14.334 -3.5 17.001 -3.5s8.33398 4.5 17.001 13.5s15 13.833 19 14.5l-127 -239c-10.667 -20 -16 -34.667 -16 -44c0 -13.333 8.66699 -20 26 -20
c29.333 0 72.666 29.667 129.999 89c40.667 42 76 84.333 106 127zM221.999 365h-26l-100 75c-14 13.333 -21 26.666 -21 39.999c0 10.667 4 20.334 12 29.001s18.333 13 31 13c14.667 0 28 -7.66699 40 -23z" />
    <glyph glyph-name="uacute" unicode="&#xfa;" horiz-adv-x="416" 
d="M438 218c-36.667 -54 -74.335 -100.333 -113.002 -139c-62.667 -62 -117.334 -93 -164.001 -93c-34 0 -53.667 27.667 -59 83c-29.333 -34 -49.666 -55.333 -60.999 -64c-16.667 -12.667 -37 -19 -61 -19c-34 0 -51 16.333 -51 49c0 30 11 65.333 33 106l74 136
c5.33301 9.33301 14.333 14 27 14c0.666992 0 5.5 -1.16699 14.5 -3.5s15.167 -3.5 18.5 -3.5s9.5 4.5 18.5 13.5s14.833 13.833 17.5 14.5l-119 -224c-11.333 -21.333 -17 -40 -17 -56c0 -17.333 8.33301 -26 25 -26c12 0 33.333 19.333 64 58
c24 30.667 41.667 55.667 53 75l78 139c4.66699 8.66699 12.334 13 23.001 13c4 0 10.333 -1.16699 19 -3.5s14.334 -3.5 17.001 -3.5s8.33398 4.5 17.001 13.5s15 13.833 19 14.5l-127 -239c-10.667 -20 -16 -34.667 -16 -44c0 -13.333 8.66699 -20 26 -20
c29.333 0 72.666 29.667 129.999 89c40.667 42 76 84.333 106 127zM254.999 484c0 -13.333 -6.99902 -26.667 -20.999 -40l-151 -79h-30l118 134c13.333 15.333 26.666 23 39.999 23s24 -3.66699 32 -11s12 -16.333 12 -27z" />
    <glyph glyph-name="ucircumflex" unicode="&#xfb;" horiz-adv-x="416" 
d="M438 218c-36.667 -54 -74.335 -100.333 -113.002 -139c-62.667 -62 -117.334 -93 -164.001 -93c-34 0 -53.667 27.667 -59 83c-29.333 -34 -49.666 -55.333 -60.999 -64c-16.667 -12.667 -37 -19 -61 -19c-34 0 -51 16.333 -51 49c0 30 11 65.333 33 106l74 136
c5.33301 9.33301 14.333 14 27 14c0.666992 0 5.5 -1.16699 14.5 -3.5s15.167 -3.5 18.5 -3.5s9.5 4.5 18.5 13.5s14.833 13.833 17.5 14.5l-119 -224c-11.333 -21.333 -17 -40 -17 -56c0 -17.333 8.33301 -26 25 -26c12 0 33.333 19.333 64 58
c24 30.667 41.667 55.667 53 75l78 139c4.66699 8.66699 12.334 13 23.001 13c4 0 10.333 -1.16699 19 -3.5s14.334 -3.5 17.001 -3.5s8.33398 4.5 17.001 13.5s15 13.833 19 14.5l-127 -239c-10.667 -20 -16 -34.667 -16 -44c0 -13.333 8.66699 -20 26 -20
c29.333 0 72.666 29.667 129.999 89c40.667 42 76 84.333 106 127zM230.999 416l-142 -55h-38l215 151l8 -151h-19z" />
    <glyph glyph-name="udieresis" unicode="&#xfc;" horiz-adv-x="416" 
d="M438 218c-36.667 -54 -74.335 -100.333 -113.002 -139c-62.667 -62 -117.334 -93 -164.001 -93c-34 0 -53.667 27.667 -59 83c-29.333 -34 -49.666 -55.333 -60.999 -64c-16.667 -12.667 -37 -19 -61 -19c-34 0 -51 16.333 -51 49c0 30 11 65.333 33 106l74 136
c5.33301 9.33301 14.333 14 27 14c0.666992 0 5.5 -1.16699 14.5 -3.5s15.167 -3.5 18.5 -3.5s9.5 4.5 18.5 13.5s14.833 13.833 17.5 14.5l-119 -224c-11.333 -21.333 -17 -40 -17 -56c0 -17.333 8.33301 -26 25 -26c12 0 33.333 19.333 64 58
c24 30.667 41.667 55.667 53 75l78 139c4.66699 8.66699 12.334 13 23.001 13c4 0 10.333 -1.16699 19 -3.5s14.334 -3.5 17.001 -3.5s8.33398 4.5 17.001 13.5s15 13.833 19 14.5l-127 -239c-10.667 -20 -16 -34.667 -16 -44c0 -13.333 8.66699 -20 26 -20
c29.333 0 72.666 29.667 129.999 89c40.667 42 76 84.333 106 127zM263.999 418c0 -13.333 -5.5 -25.5 -16.5 -36.5s-23.167 -16.5 -36.5 -16.5c-24.667 0 -37 15 -37 45c0 13.333 5.33301 25.5 16 36.5s22.667 16.5 36 16.5c25.333 0 38 -15 38 -45zM129.999 418
c0 -13.333 -5.33301 -25.5 -16 -36.5s-22.667 -16.5 -36 -16.5c-25.333 0 -38 15 -38 45c0 13.333 5.5 25.5 16.5 36.5s23.167 16.5 36.5 16.5c24.667 0 37 -15 37 -45z" />
    <glyph glyph-name="dotlessi" unicode="&#x131;" 
d="M258 218c-130.667 -154.667 -218.332 -232.001 -262.999 -232.001c-41.333 0 -62 19.667 -62 59c0 30 12.333 68 37 114l62 111c8 14 17 21 27 21c9.33301 0 17.166 -1.5 23.499 -4.5s9.83301 -4.5 10.5 -4.5c2.66699 0 8.83398 4.83301 18.501 14.5
s16.167 14.834 19.5 15.501l-127 -242c-6 -11.333 -9 -24 -9 -38c0 -17.333 7.66699 -26 23 -26s55.666 33 120.999 99c48.667 49.333 85.667 89.333 111 120z" />
    <glyph glyph-name="oe" unicode="&#x153;" horiz-adv-x="517" 
d="M252 132c34.667 14.667 70.333 37.999 107 69.999c22.667 24.667 34 45.334 34 62.001c0 15.333 -7 23 -21 23c-32 0 -74 -51.667 -126 -155h6zM162.999 41.999c-46 -37.333 -91.666 -56.001 -136.999 -56.001c-22.667 0 -41.334 10 -56.001 30
c-13.333 18 -20 38.667 -20 62c0 56.667 23.5 107.834 70.5 153.501s98.833 68.5 155.5 68.5c36 0 60.667 -18 74 -54c46.667 36 92 54 136 54c15.333 0 28.666 -5.33301 39.999 -16s17 -23.667 17 -39c0 -42 -30.333 -77 -91 -105c-46 -21.333 -84.667 -32 -116 -32
c-12 -26 -18 -49.333 -18 -70c0 -24.667 9 -37 27 -37c44 0 100 30 168 90c54 48 93.667 92.667 119 134l8 -7c-23.333 -39.333 -62.333 -84.333 -117 -135c-70.667 -64.667 -130 -97 -178 -97c-41.333 0 -68.666 18.667 -81.999 56zM197 262.998
c0 16.667 -8.00098 24.999 -24.001 24.999c-31.333 0 -67.333 -35 -108 -105c-38.667 -65.333 -58 -115.666 -58 -150.999c0 -22 6.33301 -33 19 -33c34.667 0 76 40 124 120c-36.667 12 -55 28.333 -55 49c0 21.333 10.333 32 31 32c14 0 21 -7 21 -21
c0 -11.333 -9 -18 -27 -20c4.66699 -16.667 17.334 -26.667 38.001 -30c26 55.333 39 100 39 134z" />
    <glyph glyph-name="circumflex" unicode="&#x2c6;" horiz-adv-x="300" 
d="M231 416l-142 -55h-38l215 151l8 -151h-19z" />
    <glyph glyph-name="endash" unicode="&#x2013;" horiz-adv-x="414" 
d="M408 200c0 -3.33301 -4.66699 -9 -14 -17c-38.667 -28 -74.334 -42 -107.001 -42h-3c-5.33301 0 -10.666 0.333008 -15.999 1l-160 21c-28.667 0 -49.834 -1.66699 -63.501 -5s-25.167 -6.33301 -34.5 -9c-4 0 -6 1.66699 -6 5c0 14 14.667 26.667 44 38
c37.333 14.667 66.666 22 87.999 22c24.667 0 74 -6.66699 148 -20c14.667 -2.66699 29 -4 43 -4c18.667 0 35.334 4 50.001 12c8.66699 4.66699 15.334 7 20.001 7c7.33301 0 11 -3 11 -9z" />
    <glyph glyph-name="emdash" unicode="&#x2014;" horiz-adv-x="604" 
d="M560 200c0 -3.33301 -4.66699 -8.99902 -14 -16.999c-38.667 -28 -74.334 -42 -107.001 -42h-3c-2.66699 0 -8 0.333008 -16 1l-292 21c-24.667 2 -57.334 -2.66699 -98.001 -14c-4 0 -6 1.66699 -6 5c0 14 14.667 26.667 44 38c37.333 14.667 66.666 22 87.999 22
c14.667 0 56.334 -2 125.001 -6c77.333 -4.66699 129 -9.33398 155 -14.001c14 -2.66699 28.333 -4 43 -4c18.667 0 35.334 4 50.001 12c8.66699 4.66699 15.334 7 20.001 7c7.33301 0 11 -3 11 -9z" />
    <glyph glyph-name="quoteleft" unicode="&#x2018;" horiz-adv-x="158" 
d="M259 660c0 -3.33301 -2 -6 -6 -8l-14 -7c-20.667 -14.667 -31 -28 -31 -40c0 -6.66699 2.33301 -11 7 -13c26 -12.667 39 -29 39 -49c0 -16 -5.66699 -30.167 -17 -42.5s-24.333 -18.5 -39 -18.5c-11.333 0 -21.666 4.66699 -30.999 14s-14 20 -14 32
c0 36 17 72.667 51 110c17.333 19.333 32.666 29 45.999 29c6 -0.666992 9 -3 9 -7z" />
    <glyph glyph-name="quoteright" unicode="&#x2019;" horiz-adv-x="158" 
d="M253 624c0 -36 -17.001 -72.666 -51.001 -109.999c-17.333 -19.333 -32.666 -29 -45.999 -29c-6 1.33301 -9 3.66602 -9 6.99902s2.16699 6 6.5 8s8.83301 4.33301 13.5 7c20.667 14.667 31 28 31 40c0 6.66699 -2.33301 11 -7 13c-26 12.667 -39 29 -39 49
c0 16 5.66699 30.167 17 42.5s24.333 18.5 39 18.5c12 0 22.5 -4.5 31.5 -13.5s13.5 -19.833 13.5 -32.5z" />
    <glyph glyph-name="quotedblleft" unicode="&#x201c;" horiz-adv-x="218" 
d="M359 660c0 -3.33301 -2 -6 -6 -8l-14 -7c-20.667 -14.667 -31 -28 -31 -40c0 -6.66699 2.33301 -11 7 -13c26 -12.667 39 -29 39 -49c0 -16 -5.66699 -30.167 -17 -42.5s-24.333 -18.5 -39 -18.5c-11.333 0 -21.666 4.66699 -30.999 14s-14 20 -14 32
c0 36 17 72.667 51 110c17.333 19.333 32.666 29 45.999 29c6 -0.666992 9 -3 9 -7zM258 660c0 -3.33301 -2 -6 -6 -8l-14 -7c-20.667 -14.667 -31 -28 -31 -40c0 -6.66699 2.33301 -11 7 -13c26 -12.667 39 -29 39 -49c0 -16 -5.66699 -30.167 -17 -42.5
s-24.333 -18.5 -39 -18.5c-11.333 0 -21.666 4.66699 -30.999 14s-14 20 -14 32c0 36 17 72.667 51 110c17.333 19.333 32.666 29 45.999 29c6 -0.666992 9 -3 9 -7z" />
    <glyph glyph-name="quotedblright" unicode="&#x201d;" horiz-adv-x="218" 
d="M334 624c0 -36 -17.001 -72.666 -51.001 -109.999c-17.333 -19.333 -32.666 -29 -45.999 -29c-6 1.33301 -9 3.66602 -9 6.99902s2.16699 6 6.5 8s8.83301 4.33301 13.5 7c20.667 14.667 31 28 31 40c0 6.66699 -2.33301 11 -7 13c-26 12.667 -39 29 -39 49
c0 16 5.66699 30.167 17 42.5s24.333 18.5 39 18.5c12 0 22.5 -4.5 31.5 -13.5s13.5 -19.833 13.5 -32.5zM232.999 624.001c0 -36 -17.001 -72.666 -51.001 -109.999c-17.333 -19.333 -32.666 -29 -45.999 -29c-6 1.33301 -9 3.66602 -9 6.99902s2.16699 6 6.5 8
s8.83301 4.33301 13.5 7c20.667 14.667 31 28 31 40c0 6.66699 -2.33301 11 -7 13c-26 12.667 -39 29 -39 49c0 16 5.66699 30.167 17 42.5s24.333 18.5 39 18.5c12 0 22.5 -4.5 31.5 -13.5s13.5 -19.833 13.5 -32.5z" />
    <glyph glyph-name="bullet" unicode="&#x2022;" horiz-adv-x="256" 
d="M236 346c0 -38.667 -14.668 -77.667 -44.001 -117c-31.333 -42 -65.666 -63 -102.999 -63c-17.333 0 -32.333 6.5 -45 19.5s-19 28.833 -19 47.5c0 34 17.833 70.5 53.5 109.5s70.167 58.5 103.5 58.5c36 0 54 -18.333 54 -55z" />
    <glyph glyph-name="ellipsis" unicode="&#x2026;" horiz-adv-x="600" 
d="M542 50c0 -15.333 -6 -28.999 -18 -40.999s-25.333 -18 -40 -18c-28 0 -42 16.333 -42 49c0 15.333 6 29.166 18 41.499s25.333 18.5 40 18.5c28 0 42 -16.667 42 -50zM342 50.001c0 -15.333 -6 -28.999 -18 -40.999s-25.333 -18 -40 -18c-28 0 -42 16.333 -42 49
c0 15.333 6 29.166 18 41.499s25.333 18.5 40 18.5c28 0 42 -16.667 42 -50zM142 50.002c0 -15.333 -6 -28.999 -18 -40.999s-25.333 -18 -40 -18c-28 0 -42 16.333 -42 49c0 15.333 6 29.166 18 41.499s25.333 18.5 40 18.5c28 0 42 -16.667 42 -50z" />
    <glyph glyph-name="fraction" unicode="&#x2044;" horiz-adv-x="170" 
d="M326 656c-56.667 -67.333 -134 -172.667 -232 -316c-105.333 -154 -167.333 -255.333 -186 -304c-12 -30.667 -29.667 -46 -53 -46c-5.33301 0 -11 -5.5 -17 -16.5s-10 -16.5 -12 -16.5c-3.33301 0 -5 2 -5 6c0 24.667 23.333 74.667 70 150
c100 162 239.333 343.667 418 545z" />
    <glyph glyph-name="null" unicode="&#x2400;" horiz-adv-x="0" 
 />
    <glyph glyph-name="fi" unicode="&#xf001;" horiz-adv-x="443" 
d="M415 416c0 -14.667 -4.99902 -27.834 -14.999 -39.501s-21.333 -17.5 -34 -17.5c-10.667 0 -19.667 3.83301 -27 11.5s-11 16.834 -11 27.501c0 14 5.16699 26.167 15.5 36.5s22.166 15.5 35.499 15.5c10 0 18.5 -3.33301 25.5 -10s10.5 -14.667 10.5 -24zM465.001 218
c-130.667 -154.667 -218.666 -232.001 -263.999 -232.001c-41.333 0 -62 19.667 -62 59c0 29.333 14 67.333 42 114l68 111c7.33301 14 16.333 21 27 21c9.33301 0 17.166 -1.5 23.499 -4.5s9.83301 -4.5 10.5 -4.5c2.66699 0 8.83398 4.83301 18.501 14.5
s16.167 14.834 19.5 15.501l-137 -242c-6.66699 -12 -10 -24.667 -10 -38c0 -17.333 8 -26 24 -26c15.333 0 55.666 33 120.999 99c48.667 49.333 85.667 89.333 111 120zM371.002 565.999c0 -40.667 -22.666 -90.668 -67.999 -150.001
c-49.333 -64 -109.666 -114.667 -180.999 -152h55l-10 -18h-71l-136 -268c-64 -119.333 -116.333 -201 -157 -245c-48.667 -53.333 -99.334 -80 -152.001 -80c-28.667 0 -52.334 8.66699 -71.001 26s-28 38.666 -28 63.999c0 26.667 9.33301 50.834 28 72.501
s41 32.5 67 32.5c12.667 0 24 -5.16699 34 -15.5s15 -22.166 15 -35.499c0 -12.667 -5.33301 -23.667 -16 -33s-23.667 -14 -39 -14c-12 0 -23 8.66699 -33 26c20.667 2.66699 31 8 31 16c0 17.333 -7 26 -21 26c-12.667 0 -25 -11 -37 -33c-10 -19.333 -15 -36.333 -15 -51
c0 -19.333 8.5 -35.833 25.5 -49.5s36.833 -20.5 59.5 -20.5c38.667 0 76.334 26.667 113.001 80c22.667 32 59 101.667 109 209c64 136 112.333 233.667 145 293h-59l10 18h60c44 75.333 88.667 142.333 134 201c72 92 128.333 138 169 138
c9.33301 0 18.166 -3.83301 26.499 -11.5s12.5 -16.167 12.5 -25.5zM332.003 557.998c0 19.333 -5.66699 29.001 -17 29.001c-16 0 -51.333 -45 -106 -135c-45.333 -74.667 -79.333 -137.334 -102 -188.001c76.667 56.667 135.667 115.667 177 177
c32 47.333 48 86.333 48 117z" />
    <glyph glyph-name="fl" unicode="&#xf002;" horiz-adv-x="443" 
d="M600 624c-0.666992 -39.333 -23.999 -93.332 -69.999 -161.999c-57.333 -86 -130.666 -155 -219.999 -207l-48 -105c-20.667 -45.333 -31 -85.333 -31 -120c0 -16 7 -24 21 -24c32 0 71.667 29.333 119 88c33.333 41.333 62 85 86 131l8 -7
c-37.333 -66.667 -69.333 -115.667 -96 -147c-46.667 -54.667 -94.667 -83 -144 -85c-18.667 -0.666992 -33.334 6.66602 -44.001 21.999s-16 35.666 -16 60.999c0 53.333 28.333 129.333 85 228c37.333 64.667 84.666 134 141.999 208c80.667 103.333 139.667 155 177 155
c8 0 15.167 -3.66699 21.5 -11s9.5 -15.666 9.5 -24.999zM371.001 566.001c0 -40.667 -22.666 -90.668 -67.999 -150.001c-49.333 -64 -109.666 -114.667 -180.999 -152h55l-10 -18h-71l-136 -268c-64 -119.333 -116.333 -201 -157 -245
c-48.667 -53.333 -99.334 -80 -152.001 -80c-28.667 0 -52.334 8.66699 -71.001 26s-28 38.666 -28 63.999c0 26.667 9.33301 50.834 28 72.501s41 32.5 67 32.5c12.667 0 24 -5.16699 34 -15.5s15 -22.166 15 -35.499c0 -12.667 -5.33301 -23.667 -16 -33
s-23.667 -14 -39 -14c-12 0 -23 8.66699 -33 26c20.667 2.66699 31 8 31 16c0 17.333 -7 26 -21 26c-12.667 0 -25 -11 -37 -33c-10 -19.333 -15 -36.333 -15 -51c0 -19.333 8.5 -35.833 25.5 -49.5s36.833 -20.5 59.5 -20.5c38.667 0 76.334 26.667 113.001 80
c22.667 32 59 101.667 109 209c64 136 112.333 233.667 145 293h-59l10 18h60c44 75.333 88.667 142.333 134 201c72 92 128.333 138 169 138c9.33301 0 18.166 -3.83301 26.499 -11.5s12.5 -16.167 12.5 -25.5zM557.002 618c0 14 -4.66895 21 -14.002 21
c-15.333 0 -49.166 -44 -101.499 -132s-89.166 -161 -110.499 -219c56 32.667 109.333 90.667 160 174c44 72 66 124 66 156zM332 558c0 19.333 -5.66699 29.001 -17 29.001c-16 0 -51.333 -45 -106 -135c-45.333 -74.667 -79.333 -137.334 -102 -188.001
c76.667 56.667 135.667 115.667 177 177c32 47.333 48 86.333 48 117z" />
    <glyph glyph-name=".null" horiz-adv-x="0" 
 />
    <glyph glyph-name="glyph2" horiz-adv-x="270" 
 />
    <glyph glyph-name="nonmarkingreturn" horiz-adv-x="270" 
 />
    <glyph glyph-name="glyph134" horiz-adv-x="750" 
 />
  </font>
</defs>
</svg>
